<?xml version="1.0" standalone="no"?>
<!DOCTYPE svg PUBLIC "-//W3C//DTD SVG 1.1//EN" "http://www.w3.org/Graphics/SVG/1.1/DTD/svg11.dtd" >
<svg xmlns="http://www.w3.org/2000/svg" xmlns:xlink="http://www.w3.org/1999/xlink" version="1.1">
<metadata>
Created by FontForge 20161003 at Wed Jun  6 00:51:34 2018
 By www-data
Copyright (c) Dubina Nikolay (wwwart@d-s.ru) D-Studio Moscow (www.d-s.ru), 2000. All rights reserved.
</metadata>
<defs>
<font id="7738" horiz-adv-x="620" >
  <font-face 
    font-family="7738"
    font-weight="400"
    font-stretch="normal"
    units-per-em="1000"
    panose-1="3 0 0 0 0 6 0 0 0 0"
    ascent="800"
    descent="-200"
    x-height="732"
    cap-height="732"
    bbox="30 -101 929 888"
    underline-thickness="0"
    underline-position="0"
    unicode-range="U+0020-F0DF"
  />
<missing-glyph horiz-adv-x="500" 
 />
    <glyph glyph-name=".notdef" horiz-adv-x="500" 
 />
    <glyph glyph-name=".null" horiz-adv-x="0" 
 />
    <glyph glyph-name="nonmarkingreturn" horiz-adv-x="500" 
 />
    <glyph glyph-name="FL0020h" unicode=" " horiz-adv-x="651" 
 />
    <glyph glyph-name="A" unicode="A" horiz-adv-x="622" 
d="M386 12h-8v-12h214v12h-60v708h60v12h-379q-1 -1 -1 -4q0 -6 5.5 -17.5t16 -23t25.5 -19.5t33 -8q3 0 5 2q-2 1 -2 5q0 10 20.5 27.5t60.5 23.5h10v-68q0 -103 -142 -213q-178 -137 -178 -310q0 -28 4.5 -57t15.5 -58h-56v-12h238v12h-8q-24 43 -36 98q12 46 162 69v-167
zM386 196q-57 -3 -100 -7.5t-72 -11.5q-2 10 -2 19v19q0 132 66 206q87 94 108 132v-357z" />
    <glyph glyph-name="B" unicode="B" horiz-adv-x="586" 
d="M276 526q9 -4 17.5 -8t28.5 -4q41 0 71 9t55 27q17 12 24.5 27t7.5 33q0 37 -24 62t-60 39.5t-78 20.5t-78 6q-66 0 -104 -19.5t-38 -72.5v-634h-68v-12h502q24 66 24 127q0 173 -179 310q-65 50 -101 89zM246 12v530q12 -20 36 -49.5t62 -71.5q66 -74 66 -204
q0 -112 -48 -205h-116zM246 689q0 12 10 21t30 9q31 0 42.5 -21t11.5 -61q0 -45 -9 -70t-39 -25q-17 0 -30 8q-16 11 -16 52v87z" />
    <glyph glyph-name="C" unicode="C" horiz-adv-x="578" 
d="M197 13q-21 0 -21 13l8 34q0 11 -20 11q-55 -13 -94 -25q-22 -6 -22 -19q0 -31 122 -31q55 0 98 8.5t79 28t67.5 52t62.5 81.5q37 56 54 111t17 125l-154 -15v-71q0 -278 -140 -302q58 37 58 110q0 87 -78 204q-88 134 -88 264q0 128 98 128q93 0 132 -138h150
q-9 34 -32 62.5t-57 48.5t-76.5 31.5t-90.5 11.5q-60 0 -105 -18.5t-75 -52t-45 -81t-15 -105.5q0 -52 19.5 -99.5t66.5 -103.5q12 -15 36 -36.5t48 -47.5t42 -54.5t18 -57.5q0 -31 -15 -48t-41 -19h-7z" />
    <glyph glyph-name="D" unicode="D" horiz-adv-x="598" 
d="M258 682v2q0 6 5.5 10t13 6.5t15 3.5t12.5 1q14 0 14 -9q0 -3 -2 -8t-4 -11t-4 -11t-2 -7q0 -11 18 -11q7 0 21.5 2.5t29 7.5t25 13t10.5 19q0 10 -9.5 19t-41.5 13h51v12h-380v-12h60v-701h-60v-21h200q84 0 147 11t105.5 43t64 90t21.5 153q0 42 -13.5 78t-38.5 69.5
t-59 66.5t-76 71q-27 24 -50 40.5t-39 27.5t-25 18t-9 14zM326 32q-27 -12 -52 -12q-38 0 -38 25v642q1 -9 9.5 -20t22.5 -27t32.5 -37.5t39.5 -50.5q41 -57 55.5 -116.5t14.5 -133.5q0 -32 -5.5 -74.5t-16 -83t-26 -72t-36.5 -40.5zM236 705v17h49q-29 -5 -49 -17z" />
    <glyph glyph-name="E" unicode="E" horiz-adv-x="586" 
d="M152 497q-8 25 -12 48t-4 45q0 128 106 128q96 0 126 -114h148q-36 130 -246 130q-58 0 -103 -18.5t-75.5 -52.5t-46 -80.5t-15.5 -103.5q0 -28 4 -52t14 -47.5t26.5 -48.5t41.5 -55q20 -23 48 -53t65 -65q37 -36 37 -89q0 -50 -42 -54q-4 -1 -12 -1q-11 0 -17.5 4.5
t-6.5 11.5q0 5 5 14.5t5 16.5q0 10 -18 10q-27 -7 -50 -13t-42 -11q-11 0 -18.5 -7.5t-7.5 -12.5q0 -31 122 -31q55 0 99.5 8.5t80.5 28.5t66 53t57 82q29 54 46.5 117t22.5 137l-142 -11v-46q0 -70 -3.5 -121.5t-11.5 -86.5q-31 -133 -131 -142q60 33 60 97q0 70 -70 186
q-87 143 -102 184q303 11 303 49q0 19 -27.5 29.5t-65.5 16.5l1 -4q0 -23 -63 -44q-32 -11 -69.5 -19t-82.5 -13z" />
    <glyph glyph-name="F" unicode="F" horiz-adv-x="544" 
d="M381 457l-145 48v215h90v-118q0 -5 5.5 -14.5t16 -22t25 -26.5t32.5 -27q35 -25 61.5 -39.5t47.5 -19.5q-12 15 -20 27.5t-13 25t-7 25.5t-2 30v171h-442v-12h58v-708h-58v-12h442v12h-236v442q26 -8 64.5 -12.5t83.5 -4.5z" />
    <glyph glyph-name="G" unicode="G" horiz-adv-x="578" 
d="M394 -4h154v406l-154 -15v-71q0 -278 -140 -302q58 37 58 110q0 87 -78 204q-88 134 -88 264q0 128 98 128q93 0 132 -138h150q-9 34 -32 62.5t-57 48.5t-76.5 31.5t-90.5 11.5q-60 0 -105 -18.5t-75 -52t-45 -81t-15 -105.5q0 -52 19.5 -99.5t66.5 -103.5
q12 -15 36 -36.5t48 -47.5t42 -54.5t18 -57.5q0 -31 -15 -48t-41 -19h-7q-21 0 -21 13l8 34q0 11 -20 11q-55 -13 -94 -25q-22 -6 -22 -19q0 -31 122 -31q46 0 84 5.5t70 19t60 35.5t54 55z" />
    <glyph glyph-name="H" unicode="H" 
d="M236 522q27 -8 64 -12t84 -4v-494h-8v-12h214v12h-58v708h58v12h-214v-12h8v-196q-101 8 -148 49v147h8v12h-214v-12h58v-708h-58v-12h214v12h-8v510z" />
    <glyph glyph-name="I" unicode="I" horiz-adv-x="332" 
d="M302 0v12h-58v708h58v12h-272v-12h66v-708h-66v-12h272z" />
    <glyph glyph-name="J" unicode="J" horiz-adv-x="611" 
d="M179 -84q-21 0 -21 13l8 34q0 11 -20 11q-55 -13 -94 -25q-22 -6 -22 -19q0 -31 122 -31q55 0 98 8.5t79 28t67.5 52t62.5 81.5q18 28 31 70.5t21.5 89t12 92.5t3.5 81v322h54v12h-272v-12h64v-408q0 -70 -8 -138.5t-25 -124.5t-43 -93t-61 -43z" />
    <glyph glyph-name="K" unicode="K" 
d="M236 538q39 -41 70.5 -73t54 -66t35 -76.5t12.5 -104.5q0 -57 -11.5 -108t-34.5 -98h-8v-12h236v12h-54q18 58 18 115t-24.5 114.5t-64.5 110.5t-91.5 98t-105.5 77q38 -13 82 -13q51 0 84 9.5t52.5 32.5t27.5 63t8 101h50v12h-190q5 -14 7.5 -30.5t2.5 -33.5
q0 -62 -30.5 -92t-81.5 -30q-18 0 -31 9t-13 27v138h8v12h-214v-12h58v-708h-58v-12h214v12h-8v526z" />
    <glyph glyph-name="L" unicode="L" horiz-adv-x="544" 
d="M326 12h-90v708h90v12h-296v-12h58v-708h-58v-12h442v171q0 17 2 30t7 25.5t13 25t20 27.5q-21 -5 -47.5 -19.5t-61.5 -39.5q-18 -13 -32.5 -27t-25 -26.5t-16 -22.5t-5.5 -14v-118z" />
    <glyph glyph-name="M" unicode="M" horiz-adv-x="916" 
d="M678 12h-8v-12h216v12h-60v708h60v12h-216v-12h8v-106q0 -1 -13 -16.5t-34 -42.5t-46 -63.5t-49 -79.5t-44 -90.5t-30 -96.5q-5 50 -23 98t-43.5 90.5t-53.5 79t-51.5 63.5t-39 43t-15.5 17v104h8v12h-214v-12h58v-708h-58v-12h214v12h-8v569q49 -74 78 -132t44 -109
t19.5 -98t4.5 -99v-131h-8v-12h168v12h-8v45q0 65 1 114.5t5 89.5t13 74.5t25 71t40.5 77.5t59.5 94v-566z" />
    <glyph glyph-name="N" unicode="N" 
d="M384 116v-104h-8v-12h214v12h-58v708h58v12h-214v-12h8v-586q-25 44 -80 73q-40 21 -68 27v486h8v12h-214v-12h58v-708h-58v-12h214v12h-8v156q0 20 20 20q47 0 128 -72z" />
    <glyph glyph-name="O" unicode="O" horiz-adv-x="582" 
d="M230 158q34 -34 34 -87q0 -31 -13.5 -44t-37.5 -13q-27 0 -27 19v22q0 16 -20 16q-9 0 -28 -3t-38 -8.5t-33.5 -13t-14.5 -16.5q0 -12 13.5 -19t32 -11t38 -5t32.5 -1q111 0 185 30t118 81.5t62.5 122t18.5 151.5q0 73 -14.5 137.5t-48 113.5t-87.5 77.5t-132 28.5
q-58 0 -102.5 -19t-75 -53t-46.5 -81.5t-16 -103.5q0 -53 19 -99t67 -104q20 -23 48 -53t66 -65zM220 718q8 1 12 1h10q37 0 67 -20.5t51.5 -61t33.5 -102t12 -142.5q0 -175 -33.5 -270.5t-118.5 -108.5q58 37 58 110q0 87 -78 204q-88 134 -88 264q0 113 74 126z" />
    <glyph glyph-name="P" unicode="P" horiz-adv-x="598" 
d="M258 132q0 28 104 129q40 39 77 74.5t65.5 70.5t46 72.5t17.5 79.5q0 34 -16 60t-42.5 45.5t-61.5 33t-72.5 22t-75.5 12t-70 3.5q-37 0 -63.5 -2.5t-43.5 -12.5t-25 -28.5t-8 -51.5v-627h-60v-12h380v12h-174v97q35 -19 84 -19q29 0 47 3t27.5 7.5t12.5 11t3 12.5
q0 11 -10.5 19t-25 13t-29 7.5t-21.5 2.5q-18 0 -18 -11q0 -2 2 -7t4 -11t4 -11t2 -8q0 -9 -14 -9q-5 0 -12.5 1t-15 3.5t-13 6.5t-5.5 10v2zM326 702q84 -36 84 -164q0 -145 -82 -260q-43 -59 -66.5 -96.5t-25.5 -54.5v562q0 25 38 25q25 0 52 -12z" />
    <glyph glyph-name="R" unicode="R" horiz-adv-x="586" 
d="M246 12v530q20 -38 96 -121q68 -72 68 -204q0 -112 -48 -205h-8v-12h178q24 66 24 127q0 174 -179 311q-32 25 -57.5 46.5t-43.5 41.5q23 -8 45 -11.5t45 -3.5q49 0 81.5 26t32.5 80q0 43 -23.5 67t-59 36t-78 15t-79.5 3q-36 0 -62.5 -3t-44 -12.5t-26.5 -27.5t-9 -49
v-634h-68v-12h224v12h-8zM246 602v93q3 24 40 24q20 0 38.5 -6t32.5 -17t22.5 -27t8.5 -36q0 -22 -9.5 -38.5t-24 -28t-31.5 -17.5t-33 -6q-26 0 -35 13.5t-9 45.5z" />
    <glyph glyph-name="S" unicode="S" horiz-adv-x="556" 
d="M359 719q21 0 21 -13l-8 -34q0 -11 20 -11q55 13 94 25q22 6 22 19q0 31 -122 31q-82 0 -133.5 -5t-80 -20t-38.5 -42t-10 -70q0 -25 21 -56t53 -67t69 -76t69 -83t53 -87.5t21 -89.5q0 -128 -98 -128q-93 0 -132 138h-150q9 -34 32 -62.5t57 -48.5t76.5 -31.5
t90.5 -11.5q60 0 105 18.5t75 52t45 81t15 105.5q0 45 -21.5 80.5t-53.5 65.5t-69 55.5t-69 50.5t-53.5 50t-21.5 54q0 15 3 34.5t14.5 36t34 28t62.5 11.5h7z" />
    <glyph glyph-name="T" unicode="T" horiz-adv-x="706" 
d="M282 720v-708h-218v-12h582v12h-218v708h82v-159q0 -10 22.5 -27t51.5 -33t56 -27.5t36 -11.5q-17 23 -23.5 44t-6.5 55v171h-582v-171q0 -34 -8 -54.5t-26 -40.5q7 0 22.5 5t34.5 13t39 18.5t36.5 21t27 20.5t10.5 17v159h82z" />
    <glyph glyph-name="U" unicode="U" horiz-adv-x="673" 
d="M353 0q67 0 114 47t76 138t42 224.5t13 306.5h45v16h-196v-16h7v-264q0 -74 -4 -150t-16 -137.5t-33 -100t-55 -38.5q-37 0 -61 38.5t-38 100t-19.5 137.5t-5.5 150v264h6v16h-198v-16l36 -4q0 -172 15.5 -304.5t48.5 -223t85 -137.5t124 -47h14z" />
    <glyph glyph-name="V" unicode="V" horiz-adv-x="657" 
d="M220 722h8v12h-198v-12h60v-301q0 -75 18 -138t45 -117q25 -49 52 -82t60 -53.5t73.5 -29t90.5 -8.5q111 0 111 31q0 5 -7 13t-15 8q-18 5 -39.5 11t-45.5 13q-17 0 -17 -10q0 -7 5 -17t5 -15q0 -7 -6.5 -11.5t-16.5 -4.5q-7 0 -11 1q-37 5 -37 55q0 24 16.5 57t38 65.5
t42.5 60.5t30 42q21 31 37 70t27.5 80t17.5 83t6 79v118h57v12h-194v-12h9v-118q0 -56 -5 -98t-15.5 -76.5t-25.5 -66t-35 -67.5q-64 -116 -64 -187q0 -64 56 -97q-90 9 -120 143q-8 35 -10.5 86.5t-2.5 122.5v358z" />
    <glyph glyph-name="W" unicode="W" horiz-adv-x="959" 
d="M543 722h10v12h-148v-12h10v-63q0 -41 -0.5 -77t-3 -71t-7.5 -70.5t-14 -75.5q-7 -32 -22.5 -69t-31 -72.5t-27.5 -66t-12 -48.5q0 -64 56 -97q-90 9 -120 143q-8 35 -10.5 86.5t-2.5 122.5v358h8v12h-198v-12h60v-301q0 -75 18 -138t45 -117q25 -49 52 -82t60 -53.5
t73.5 -29t90.5 -8.5q111 0 111 31q0 5 -7 13t-15 8q-18 5 -39.5 11t-45.5 13q-17 0 -17 -10q0 -7 5 -17t5 -15q0 -7 -6.5 -11.5t-16.5 -4.5q-7 0 -11 1q-37 5 -37 55q0 16 7.5 36t19 41.5t26 43t28.5 41.5q4 -33 19 -62q25 -49 52 -82t60 -53.5t73.5 -29t90.5 -8.5
q111 0 111 31q0 5 -7 13t-15 8q-18 5 -39.5 11t-45.5 13q-17 0 -17 -10q0 -7 5 -17t5 -15q0 -7 -6.5 -11.5t-16.5 -4.5q-7 0 -11 1q-37 5 -37 55q0 24 16.5 57t38 65.5t42.5 60.5t30 42q21 31 37 70t27.5 80t17.5 83t6 79v117h57v12h-194v-12h9v-117q0 -56 -5 -98
t-15.5 -76.5t-25.5 -66t-35 -67.5q-64 -116 -64 -187q0 -64 56 -97q-90 9 -120 143q-4 17 -7.5 26t-6 18.5t-4 23.5t-1.5 43q0 44 4 81t9.5 75t9.5 81.5t4 99.5v118z" />
    <glyph glyph-name="X" unicode="X" horiz-adv-x="622" 
d="M250 452l152 -440h-8v-12h198v12h-38l-202 521q65 62 106 108.5t58 78.5h76v12h-202v-12h8q2 -6 3 -12.5t1 -14.5q0 -77 -58 -141l-62 168h8v12h-260v-12h106l104 -247q-88 -132 -120 -199q-32 -66 -50.5 -131t-23.5 -131h-16v-12h216v12h-8q-58 89 -58 190q0 110 70 250
z" />
    <glyph glyph-name="Y" unicode="Y" horiz-adv-x="495" 
d="M411 13h-67v168h42l67 539h12v12h-155v-12h8l-48 -513h-1l-73 513h8v12h-174v-12h18l100 -538h50v-169h-59v-13h272v13z" />
    <glyph glyph-name="Z" unicode="Z" horiz-adv-x="622" 
d="M532 720h60v12h-458q0 -8 5.5 -20t15.5 -23.5t25 -19.5t33 -8q3 0 5 2q-2 1 -2 5q0 5 17.5 12t42.5 14.5t52.5 14t47.5 9.5h10v-68q0 -103 -142 -213q-178 -137 -178 -310q0 -28 4.5 -57t15.5 -58h-56v-12h562q0 8 -5.5 20t-15.5 23.5t-25 19.5t-33 8q-3 0 -5 -2
q2 -1 2 -5q0 -6 -13 -14.5t-35 -16.5t-51 -14t-61 -6h-91q-47 91 -47 202q0 67 22 112t55 82q14 16 38 34.5t51 40.5t54.5 46.5t49.5 53t36 60.5t14 68v8z" />
    <glyph glyph-name="a" unicode="a" horiz-adv-x="622" 
d="M386 12h-8v-12h214v12h-60v708h60v12h-379q-1 -1 -1 -4q0 -6 5.5 -17.5t16 -23t25.5 -19.5t33 -8q3 0 5 2q-2 1 -2 5q0 10 20.5 27.5t60.5 23.5h10v-68q0 -103 -142 -213q-178 -137 -178 -310q0 -28 4.5 -57t15.5 -58h-56v-12h238v12h-8q-24 43 -36 98q12 46 162 69v-167
zM386 196q-57 -3 -100 -7.5t-72 -11.5q-2 10 -2 19v19q0 132 66 206q87 94 108 132v-357z" />
    <glyph glyph-name="b" unicode="b" horiz-adv-x="586" 
d="M276 526q9 -4 17.5 -8t28.5 -4q41 0 71 9t55 27q17 12 24.5 27t7.5 33q0 37 -24 62t-60 39.5t-78 20.5t-78 6q-66 0 -104 -19.5t-38 -72.5v-634h-68v-12h502q24 66 24 127q0 173 -179 310q-65 50 -101 89zM246 12v530q12 -20 36 -49.5t62 -71.5q66 -74 66 -204
q0 -112 -48 -205h-116zM246 689q0 12 10 21t30 9q31 0 42.5 -21t11.5 -61q0 -45 -9 -70t-39 -25q-17 0 -30 8q-16 11 -16 52v87z" />
    <glyph glyph-name="c" unicode="c" horiz-adv-x="578" 
d="M197 13q-21 0 -21 13l8 34q0 11 -20 11q-55 -13 -94 -25q-22 -6 -22 -19q0 -31 122 -31q55 0 98 8.5t79 28t67.5 52t62.5 81.5q37 56 54 111t17 125l-154 -15v-71q0 -278 -140 -302q58 37 58 110q0 87 -78 204q-88 134 -88 264q0 128 98 128q93 0 132 -138h150
q-9 34 -32 62.5t-57 48.5t-76.5 31.5t-90.5 11.5q-60 0 -105 -18.5t-75 -52t-45 -81t-15 -105.5q0 -52 19.5 -99.5t66.5 -103.5q12 -15 36 -36.5t48 -47.5t42 -54.5t18 -57.5q0 -31 -15 -48t-41 -19h-7z" />
    <glyph glyph-name="d" unicode="d" horiz-adv-x="598" 
d="M258 682v2q0 6 5.5 10t13 6.5t15 3.5t12.5 1q14 0 14 -9q0 -3 -2 -8t-4 -11t-4 -11t-2 -7q0 -11 18 -11q7 0 21.5 2.5t29 7.5t25 13t10.5 19q0 10 -9.5 19t-41.5 13h51v12h-380v-12h60v-701h-60v-21h200q84 0 147 11t105.5 43t64 90t21.5 153q0 42 -13.5 78t-38.5 69.5
t-59 66.5t-76 71q-27 24 -50 40.5t-39 27.5t-25 18t-9 14zM326 32q-27 -12 -52 -12q-38 0 -38 25v642q1 -9 9.5 -20t22.5 -27t32.5 -37.5t39.5 -50.5q41 -57 55.5 -116.5t14.5 -133.5q0 -32 -5.5 -74.5t-16 -83t-26 -72t-36.5 -40.5zM236 705v17h49q-29 -5 -49 -17z" />
    <glyph glyph-name="e" unicode="e" horiz-adv-x="586" 
d="M152 497q-8 25 -12 48t-4 45q0 128 106 128q96 0 126 -114h148q-36 130 -246 130q-58 0 -103 -18.5t-75.5 -52.5t-46 -80.5t-15.5 -103.5q0 -28 4 -52t14 -47.5t26.5 -48.5t41.5 -55q20 -23 48 -53t65 -65q37 -36 37 -89q0 -50 -42 -54q-4 -1 -12 -1q-11 0 -17.5 4.5
t-6.5 11.5q0 5 5 14.5t5 16.5q0 10 -18 10q-27 -7 -50 -13t-42 -11q-11 0 -18.5 -7.5t-7.5 -12.5q0 -31 122 -31q55 0 99.5 8.5t80.5 28.5t66 53t57 82q29 54 46.5 117t22.5 137l-142 -11v-46q0 -70 -3.5 -121.5t-11.5 -86.5q-31 -133 -131 -142q60 33 60 97q0 70 -70 186
q-87 143 -102 184q303 11 303 49q0 19 -27.5 29.5t-65.5 16.5l1 -4q0 -23 -63 -44q-32 -11 -69.5 -19t-82.5 -13z" />
    <glyph glyph-name="f" unicode="f" horiz-adv-x="544" 
d="M381 457l-145 48v215h90v-118q0 -5 5.5 -14.5t16 -22t25 -26.5t32.5 -27q35 -25 61.5 -39.5t47.5 -19.5q-12 15 -20 27.5t-13 25t-7 25.5t-2 30v171h-442v-12h58v-708h-58v-12h442v12h-236v442q26 -8 64.5 -12.5t83.5 -4.5z" />
    <glyph glyph-name="g" unicode="g" horiz-adv-x="578" 
d="M394 -4h154v406l-154 -15v-71q0 -278 -140 -302q58 37 58 110q0 87 -78 204q-88 134 -88 264q0 128 98 128q93 0 132 -138h150q-9 34 -32 62.5t-57 48.5t-76.5 31.5t-90.5 11.5q-60 0 -105 -18.5t-75 -52t-45 -81t-15 -105.5q0 -52 19.5 -99.5t66.5 -103.5
q12 -15 36 -36.5t48 -47.5t42 -54.5t18 -57.5q0 -31 -15 -48t-41 -19h-7q-21 0 -21 13l8 34q0 11 -20 11q-55 -13 -94 -25q-22 -6 -22 -19q0 -31 122 -31q46 0 84 5.5t70 19t60 35.5t54 55z" />
    <glyph glyph-name="h" unicode="h" 
d="M236 522q27 -8 64 -12t84 -4v-494h-8v-12h214v12h-58v708h58v12h-214v-12h8v-196q-101 8 -148 49v147h8v12h-214v-12h58v-708h-58v-12h214v12h-8v510z" />
    <glyph glyph-name="i" unicode="i" horiz-adv-x="332" 
d="M302 0v12h-58v708h58v12h-272v-12h66v-708h-66v-12h272z" />
    <glyph glyph-name="j" unicode="j" horiz-adv-x="611" 
d="M179 -84q-21 0 -21 13l8 34q0 11 -20 11q-55 -13 -94 -25q-22 -6 -22 -19q0 -31 122 -31q55 0 98 8.5t79 28t67.5 52t62.5 81.5q18 28 31 70.5t21.5 89t12 92.5t3.5 81v322h54v12h-272v-12h64v-408q0 -70 -8 -138.5t-25 -124.5t-43 -93t-61 -43z" />
    <glyph glyph-name="k" unicode="k" 
d="M236 538q39 -41 70.5 -73t54 -66t35 -76.5t12.5 -104.5q0 -57 -11.5 -108t-34.5 -98h-8v-12h236v12h-54q18 58 18 115t-24.5 114.5t-64.5 110.5t-91.5 98t-105.5 77q38 -13 82 -13q51 0 84 9.5t52.5 32.5t27.5 63t8 101h50v12h-190q5 -14 7.5 -30.5t2.5 -33.5
q0 -62 -30.5 -92t-81.5 -30q-18 0 -31 9t-13 27v138h8v12h-214v-12h58v-708h-58v-12h214v12h-8v526z" />
    <glyph glyph-name="l" unicode="l" horiz-adv-x="544" 
d="M326 12h-90v708h90v12h-296v-12h58v-708h-58v-12h442v171q0 17 2 30t7 25.5t13 25t20 27.5q-21 -5 -47.5 -19.5t-61.5 -39.5q-18 -13 -32.5 -27t-25 -26.5t-16 -22.5t-5.5 -14v-118z" />
    <glyph glyph-name="m" unicode="m" horiz-adv-x="916" 
d="M678 12h-8v-12h216v12h-60v708h60v12h-216v-12h8v-106q0 -1 -13 -16.5t-34 -42.5t-46 -63.5t-49 -79.5t-44 -90.5t-30 -96.5q-5 50 -23 98t-43.5 90.5t-53.5 79t-51.5 63.5t-39 43t-15.5 17v104h8v12h-214v-12h58v-708h-58v-12h214v12h-8v569q49 -74 78 -132t44 -109
t19.5 -98t4.5 -99v-131h-8v-12h168v12h-8v45q0 65 1 114.5t5 89.5t13 74.5t25 71t40.5 77.5t59.5 94v-566z" />
    <glyph glyph-name="n" unicode="n" 
d="M384 116v-104h-8v-12h214v12h-58v708h58v12h-214v-12h8v-586q-25 44 -80 73q-40 21 -68 27v486h8v12h-214v-12h58v-708h-58v-12h214v12h-8v156q0 20 20 20q47 0 128 -72z" />
    <glyph glyph-name="o" unicode="o" horiz-adv-x="582" 
d="M230 158q34 -34 34 -87q0 -31 -13.5 -44t-37.5 -13q-27 0 -27 19v22q0 16 -20 16q-9 0 -28 -3t-38 -8.5t-33.5 -13t-14.5 -16.5q0 -12 13.5 -19t32 -11t38 -5t32.5 -1q111 0 185 30t118 81.5t62.5 122t18.5 151.5q0 73 -14.5 137.5t-48 113.5t-87.5 77.5t-132 28.5
q-58 0 -102.5 -19t-75 -53t-46.5 -81.5t-16 -103.5q0 -53 19 -99t67 -104q20 -23 48 -53t66 -65zM220 718q8 1 12 1h10q37 0 67 -20.5t51.5 -61t33.5 -102t12 -142.5q0 -175 -33.5 -270.5t-118.5 -108.5q58 37 58 110q0 87 -78 204q-88 134 -88 264q0 113 74 126z" />
    <glyph glyph-name="p" unicode="p" horiz-adv-x="598" 
d="M258 132q0 28 104 129q40 39 77 74.5t65.5 70.5t46 72.5t17.5 79.5q0 34 -16 60t-42.5 45.5t-61.5 33t-72.5 22t-75.5 12t-70 3.5q-37 0 -63.5 -2.5t-43.5 -12.5t-25 -28.5t-8 -51.5v-627h-60v-12h380v12h-174v97q35 -19 84 -19q29 0 47 3t27.5 7.5t12.5 11t3 12.5
q0 11 -10.5 19t-25 13t-29 7.5t-21.5 2.5q-18 0 -18 -11q0 -2 2 -7t4 -11t4 -11t2 -8q0 -9 -14 -9q-5 0 -12.5 1t-15 3.5t-13 6.5t-5.5 10v2zM326 702q84 -36 84 -164q0 -145 -82 -260q-43 -59 -66.5 -96.5t-25.5 -54.5v562q0 25 38 25q25 0 52 -12z" />
    <glyph glyph-name="r" unicode="r" horiz-adv-x="586" 
d="M246 12v530q20 -38 96 -121q68 -72 68 -204q0 -112 -48 -205h-8v-12h178q24 66 24 127q0 174 -179 311q-32 25 -57.5 46.5t-43.5 41.5q23 -8 45 -11.5t45 -3.5q49 0 81.5 26t32.5 80q0 43 -23.5 67t-59 36t-78 15t-79.5 3q-36 0 -62.5 -3t-44 -12.5t-26.5 -27.5t-9 -49
v-634h-68v-12h224v12h-8zM246 602v93q3 24 40 24q20 0 38.5 -6t32.5 -17t22.5 -27t8.5 -36q0 -22 -9.5 -38.5t-24 -28t-31.5 -17.5t-33 -6q-26 0 -35 13.5t-9 45.5z" />
    <glyph glyph-name="s" unicode="s" horiz-adv-x="556" 
d="M359 719q21 0 21 -13l-8 -34q0 -11 20 -11q55 13 94 25q22 6 22 19q0 31 -122 31q-82 0 -133.5 -5t-80 -20t-38.5 -42t-10 -70q0 -25 21 -56t53 -67t69 -76t69 -83t53 -87.5t21 -89.5q0 -128 -98 -128q-93 0 -132 138h-150q9 -34 32 -62.5t57 -48.5t76.5 -31.5
t90.5 -11.5q60 0 105 18.5t75 52t45 81t15 105.5q0 45 -21.5 80.5t-53.5 65.5t-69 55.5t-69 50.5t-53.5 50t-21.5 54q0 15 3 34.5t14.5 36t34 28t62.5 11.5h7z" />
    <glyph glyph-name="t" unicode="t" horiz-adv-x="706" 
d="M282 720v-708h-218v-12h582v12h-218v708h82v-159q0 -10 22.5 -27t51.5 -33t56 -27.5t36 -11.5q-17 23 -23.5 44t-6.5 55v171h-582v-171q0 -34 -8 -54.5t-26 -40.5q7 0 22.5 5t34.5 13t39 18.5t36.5 21t27 20.5t10.5 17v159h82z" />
    <glyph glyph-name="u" unicode="u" horiz-adv-x="673" 
d="M353 0q67 0 114 47t76 138t42 224.5t13 306.5h45v16h-196v-16h7v-264q0 -74 -4 -150t-16 -137.5t-33 -100t-55 -38.5q-37 0 -61 38.5t-38 100t-19.5 137.5t-5.5 150v264h6v16h-198v-16l36 -4q0 -172 15.5 -304.5t48.5 -223t85 -137.5t124 -47h14z" />
    <glyph glyph-name="v" unicode="v" horiz-adv-x="657" 
d="M220 722h8v12h-198v-12h60v-301q0 -75 18 -138t45 -117q25 -49 52 -82t60 -53.5t73.5 -29t90.5 -8.5q111 0 111 31q0 5 -7 13t-15 8q-18 5 -39.5 11t-45.5 13q-17 0 -17 -10q0 -7 5 -17t5 -15q0 -7 -6.5 -11.5t-16.5 -4.5q-7 0 -11 1q-37 5 -37 55q0 24 16.5 57t38 65.5
t42.5 60.5t30 42q21 31 37 70t27.5 80t17.5 83t6 79v118h57v12h-194v-12h9v-118q0 -56 -5 -98t-15.5 -76.5t-25.5 -66t-35 -67.5q-64 -116 -64 -187q0 -64 56 -97q-90 9 -120 143q-8 35 -10.5 86.5t-2.5 122.5v358z" />
    <glyph glyph-name="w" unicode="w" horiz-adv-x="959" 
d="M543 722h10v12h-148v-12h10v-63q0 -41 -0.5 -77t-3 -71t-7.5 -70.5t-14 -75.5q-7 -32 -22.5 -69t-31 -72.5t-27.5 -66t-12 -48.5q0 -64 56 -97q-90 9 -120 143q-8 35 -10.5 86.5t-2.5 122.5v358h8v12h-198v-12h60v-301q0 -75 18 -138t45 -117q25 -49 52 -82t60 -53.5
t73.5 -29t90.5 -8.5q111 0 111 31q0 5 -7 13t-15 8q-18 5 -39.5 11t-45.5 13q-17 0 -17 -10q0 -7 5 -17t5 -15q0 -7 -6.5 -11.5t-16.5 -4.5q-7 0 -11 1q-37 5 -37 55q0 16 7.5 36t19 41.5t26 43t28.5 41.5q4 -33 19 -62q25 -49 52 -82t60 -53.5t73.5 -29t90.5 -8.5
q111 0 111 31q0 5 -7 13t-15 8q-18 5 -39.5 11t-45.5 13q-17 0 -17 -10q0 -7 5 -17t5 -15q0 -7 -6.5 -11.5t-16.5 -4.5q-7 0 -11 1q-37 5 -37 55q0 24 16.5 57t38 65.5t42.5 60.5t30 42q21 31 37 70t27.5 80t17.5 83t6 79v117h57v12h-194v-12h9v-117q0 -56 -5 -98
t-15.5 -76.5t-25.5 -66t-35 -67.5q-64 -116 -64 -187q0 -64 56 -97q-90 9 -120 143q-4 17 -7.5 26t-6 18.5t-4 23.5t-1.5 43q0 44 4 81t9.5 75t9.5 81.5t4 99.5v118z" />
    <glyph glyph-name="x" unicode="x" horiz-adv-x="622" 
d="M250 452l152 -440h-8v-12h198v12h-38l-202 521q65 62 106 108.5t58 78.5h76v12h-202v-12h8q2 -6 3 -12.5t1 -14.5q0 -77 -58 -141l-62 168h8v12h-260v-12h106l104 -247q-88 -132 -120 -199q-32 -66 -50.5 -131t-23.5 -131h-16v-12h216v12h-8q-58 89 -58 190q0 110 70 250
z" />
    <glyph glyph-name="y" unicode="y" horiz-adv-x="495" 
d="M411 13h-67v168h42l67 539h12v12h-155v-12h8l-48 -513h-1l-73 513h8v12h-174v-12h18l100 -538h50v-169h-59v-13h272v13z" />
    <glyph glyph-name="z" unicode="z" horiz-adv-x="622" 
d="M532 720h60v12h-458q0 -8 5.5 -20t15.5 -23.5t25 -19.5t33 -8q3 0 5 2q-2 1 -2 5q0 5 17.5 12t42.5 14.5t52.5 14t47.5 9.5h10v-68q0 -103 -142 -213q-178 -137 -178 -310q0 -28 4.5 -57t15.5 -58h-56v-12h562q0 8 -5.5 20t-15.5 23.5t-25 19.5t-33 8q-3 0 -5 -2
q2 -1 2 -5q0 -6 -13 -14.5t-35 -16.5t-51 -14t-61 -6h-91q-47 91 -47 202q0 67 22 112t55 82q14 16 38 34.5t51 40.5t54.5 46.5t49.5 53t36 60.5t14 68v8z" />
    <glyph glyph-name="FL00A0h" unicode="&#xa0;" horiz-adv-x="651" 
 />
    <glyph glyph-name="FL00C0h" unicode="&#xc0;" horiz-adv-x="622" 
d="M386 12h-8v-12h214v12h-60v708h60v12h-379q-1 -1 -1 -4q0 -6 5.5 -17.5t16 -23t25.5 -19.5t33 -8q3 0 5 2q-2 1 -2 5q0 10 20.5 27.5t60.5 23.5h10v-68q0 -103 -142 -213q-178 -137 -178 -310q0 -28 4.5 -57t15.5 -58h-56v-12h238v12h-8q-24 43 -36 98q12 46 162 69v-167
zM386 196q-57 -3 -100 -7.5t-72 -11.5q-2 10 -2 19v19q0 132 66 206q87 94 108 132v-357z" />
    <glyph glyph-name="FL00C1h" unicode="&#xc1;" horiz-adv-x="584" 
d="M236 650v70h88v-70q0 -3 5.5 -13.5t15 -23t22 -26.5t26.5 -24q39 -28 67 -43t48 -18q-43 38 -43 100v130h-435v-12h58v-708h-58v-12h502q11 33 16.5 64.5t5.5 62.5q0 173 -179 310q-139 108 -139 213zM362 12h-126v541q11 -19 36.5 -51.5t69.5 -80.5q66 -74 66 -204
q0 -110 -46 -205z" />
    <glyph glyph-name="FL00C2h" unicode="&#xc2;" horiz-adv-x="586" 
d="M276 526q9 -4 17.5 -8t28.5 -4q41 0 71 9t55 27q17 12 24.5 27t7.5 33q0 37 -24 62t-60 39.5t-78 20.5t-78 6q-66 0 -104 -19.5t-38 -72.5v-634h-68v-12h502q24 66 24 127q0 173 -179 310q-65 50 -101 89zM246 12v530q12 -20 36 -49.5t62 -71.5q66 -74 66 -204
q0 -112 -48 -205h-116zM246 689q0 12 10 21t30 9q31 0 42.5 -21t11.5 -61q0 -45 -9 -70t-39 -25q-17 0 -30 8q-16 11 -16 52v87z" />
    <glyph glyph-name="FL00C3h" unicode="&#xc3;" horiz-adv-x="544" 
d="M326 720v-118q0 -5 5.5 -14.5t16 -22t25 -26.5t32.5 -27q35 -25 61.5 -39.5t47.5 -19.5q-12 15 -20 27.5t-13 25t-7 25.5t-2 30v171h-442v-12h58v-708h-58v-12h442v12h-236v708h90z" />
    <glyph glyph-name="FL00C4h" unicode="&#xc4;" horiz-adv-x="712" 
d="M567 54v666h60v12h-379q-2 -2 -2 -4q0 -6 6 -17.5t16.5 -23t25 -19.5t32.5 -8q2 0 6 2q-3 2 -3 6q0 6 7 13.5t18 15.5t26 14t32 9h9v-70q0 -104 -141 -213q-179 -137 -179 -278q0 -50 18 -108q-17 -3 -32.5 -4t-28.5 -2.5t-20.5 -3t-7.5 -5.5l6 -9t16.5 -19.5t25.5 -19.5
t33 -9q2 0 4 2q-2 4 -2 10q0 25 82 43q36 8 76 12t84 4t84 -4t78 -12q84 -18 84 -43q0 -6 -5 -11l5 -2q18 0 33 9t25.5 19.5t16.5 19.5l6 9q0 3 -1 5q-23 5 -51 8t-63 6zM291 62q-44 85 -44 176q0 109 66 183q87 94 108 132v-491h-130z" />
    <glyph glyph-name="FL00C5h" unicode="&#xc5;" horiz-adv-x="586" 
d="M152 497q-8 25 -12 48t-4 45q0 128 106 128q96 0 126 -114h148q-36 130 -246 130q-58 0 -103 -18.5t-75.5 -52.5t-46 -80.5t-15.5 -103.5q0 -28 4 -52t14 -47.5t26.5 -48.5t41.5 -55q20 -23 48 -53t65 -65q37 -36 37 -89q0 -50 -42 -54q-4 -1 -12 -1q-11 0 -17.5 4.5
t-6.5 11.5q0 5 5 14.5t5 16.5q0 10 -18 10q-27 -7 -50 -13t-42 -11q-11 0 -18.5 -7.5t-7.5 -12.5q0 -31 122 -31q55 0 99.5 8.5t80.5 28.5t66 53t57 82q29 54 46.5 117t22.5 137l-142 -11v-46q0 -70 -3.5 -121.5t-11.5 -86.5q-31 -133 -131 -142q60 33 60 97q0 70 -70 186
q-87 143 -102 184q303 11 303 49q0 19 -27.5 29.5t-65.5 16.5l1 -4q0 -23 -63 -44q-32 -11 -69.5 -19t-82.5 -13z" />
    <glyph glyph-name="FL00C6h" unicode="&#xc6;" horiz-adv-x="916" 
d="M678 720q5 -14 6.5 -29t1.5 -31q0 -65 -38 -87t-72 -22q-16 0 -30 7q-14 11 -14 30v132h8v12h-162v-12h8v-132q0 -19 -14 -30q-6 -3 -13.5 -5t-18.5 -2q-35 0 -72 23q-38 22 -38 89q0 15 1.5 29t6.5 28h8v12h-138q-5 -17 -7.5 -34t-2.5 -34q0 -84 46 -113
q26 -16 58 -23.5t70 -7.5q39 0 74 11q-35 -31 -60 -53t-42 -37q-178 -139 -178 -314q0 -28 4.5 -57t15.5 -58h-56v-12h238v12h-8q-48 93 -48 206q0 132 66 206q48 53 75 82.5t33 35.5v-530h-8v-12h162v12h-8v531q32 -36 57.5 -66t48.5 -53q68 -72 68 -206q0 -113 -48 -206
h-8v-12h236v12h-54q11 29 15.5 58t4.5 57q0 175 -180 315q-41 32 -67.5 55t-40.5 36q38 -13 82 -13q38 0 70 7.5t58 23.5q44 28 44 113q0 18 -1.5 34.5t-6.5 33.5h-140v-12h8z" />
    <glyph glyph-name="FL00C7h" unicode="&#xc7;" horiz-adv-x="471" 
d="M161 146q-14 -12 -36.5 -33.5t-57.5 -50.5q-37 -33 -37 -44q0 -12 42 -17t107 -5q34 0 70 15q38 16 38 27q0 6 -10 8q-41 11 -64.5 17t-29.5 8q-20 0 -20 -9q0 -5 5 -16t5 -16q0 -16 -34 -16q-50 0 -50 19q0 18 102 101q38 30 78.5 73t73.5 91t54.5 98t21.5 95
q0 20 -3.5 37t-13.5 29t-27.5 18.5t-44.5 6.5q-23 0 -47.5 -7.5t-51.5 -10.5l210 168h-410q0 -6 5.5 -18t16 -24t25.5 -21t34 -9q2 0 4 2q-2 3 -2 8q0 7 14.5 16t35.5 17t45.5 13t45.5 5q10 0 14 -1l-238 -190q53 9 92 14t66 5q22 0 36.5 -11.5t23 -28.5t11.5 -38.5t3 -40.5
q0 -37 -4 -73.5t-15.5 -71.5t-31.5 -70t-51 -69z" />
    <glyph glyph-name="FL00C8h" unicode="&#xc8;" 
d="M236 116q81 72 128 72q20 0 20 -20v-156h-8v-12h214v12h-58v708h58v12h-214v-12h8v-486q-28 -6 -68 -27q-55 -29 -80 -73v586h8v12h-214v-12h58v-708h-58v-12h214v12h-8v104z" />
    <glyph glyph-name="Eacute" unicode="&#xc9;" horiz-adv-x="621" 
d="M384 12h-8v-12h214v12h-58v711h59v12h-214v-12h8v-489q-29 -6 -69 -27q-55 -29 -80 -73v589h9v12h-214v-12h58v-711h-59v-12h214v12h-8v104q81 72 128 72q20 0 20 -20v-156zM314 769q33 0 61 1t49 5t32.5 11.5t11.5 21.5q0 18 -12 42.5t-31 37.5q-3 0 -3 -3l3 -16
q0 -25 -14.5 -40.5t-34 -24t-38.5 -11.5t-27 -3q-9 0 -27.5 2.5t-38 10.5t-34 23t-14.5 40q0 4 1 9t3 10q-1 2 -4 2q-9 0 -17 -11t-13.5 -24.5t-8.5 -26.5t-3 -17q0 -14 16.5 -22t40 -11.5t49.5 -4.5t46 -1h7z" />
    <glyph glyph-name="FL00CAh" unicode="&#xca;" 
d="M236 538q39 -41 70.5 -73t54 -66t35 -76.5t12.5 -104.5q0 -57 -11.5 -108t-34.5 -98h-8v-12h236v12h-54q18 58 18 115t-24.5 114.5t-64.5 110.5t-91.5 98t-105.5 77q38 -13 82 -13q51 0 84 9.5t52.5 32.5t27.5 63t8 101h50v12h-190q5 -14 7.5 -30.5t2.5 -33.5
q0 -62 -30.5 -92t-81.5 -30q-18 0 -31 9t-13 27v138h8v12h-214v-12h58v-708h-58v-12h214v12h-8v526z" />
    <glyph glyph-name="FL00CBh" unicode="&#xcb;" horiz-adv-x="622" 
d="M260 12q-48 93 -48 205q0 130 66 204q87 94 108 132v-541h-8v-12h214v12h-60v708h60v12h-380q0 -6 5.5 -18t16 -24t25.5 -21t33 -9q2 0 6 2q-2 1 -2 5q0 6 7 14t19 15.5t28.5 14t34.5 9.5h1v-70q0 -104 -142 -213q-178 -137 -178 -310q0 -28 4.5 -57t15.5 -58h-56v-12
h238v12h-8z" />
    <glyph glyph-name="FL00CCh" unicode="&#xcc;" horiz-adv-x="916" 
d="M678 12h-8v-12h216v12h-60v708h60v12h-216v-12h8v-106q0 -1 -13 -16.5t-34 -42.5t-46 -63.5t-49 -79.5t-44 -90.5t-30 -96.5q-5 50 -23 98t-43.5 90.5t-53.5 79t-51.5 63.5t-39 43t-15.5 17v104h8v12h-214v-12h58v-708h-58v-12h214v12h-8v569q49 -74 78 -132t44 -109
t19.5 -98t4.5 -99v-131h-8v-12h168v12h-8v45q0 65 1 114.5t5 89.5t13 74.5t25 71t40.5 77.5t59.5 94v-566z" />
    <glyph glyph-name="FL00CDh" unicode="&#xcd;" 
d="M236 522q27 -8 64 -12t84 -4v-494h-8v-12h214v12h-58v708h58v12h-214v-12h8v-196q-101 8 -148 49v147h8v12h-214v-12h58v-708h-58v-12h214v12h-8v510z" />
    <glyph glyph-name="FL00CEh" unicode="&#xce;" horiz-adv-x="582" 
d="M230 158q34 -34 34 -87q0 -31 -13.5 -44t-37.5 -13q-27 0 -27 19v22q0 16 -20 16q-9 0 -28 -3t-38 -8.5t-33.5 -13t-14.5 -16.5q0 -12 13.5 -19t32 -11t38 -5t32.5 -1q111 0 185 30t118 81.5t62.5 122t18.5 151.5q0 73 -14.5 137.5t-48 113.5t-87.5 77.5t-132 28.5
q-58 0 -102.5 -19t-75 -53t-46.5 -81.5t-16 -103.5q0 -53 19 -99t67 -104q20 -23 48 -53t66 -65zM220 718q8 1 12 1h10q37 0 67 -20.5t51.5 -61t33.5 -102t12 -142.5q0 -175 -33.5 -270.5t-118.5 -108.5q58 37 58 110q0 87 -78 204q-88 134 -88 264q0 113 74 126z" />
    <glyph glyph-name="FL00CFh" unicode="&#xcf;" 
d="M384 700v-688h-8v-12h214v12h-58v708h58v12h-560v-12h58v-708h-58v-12h214v12h-8v697q16 1 27.5 4t37.5 3q45 0 64 -5.5t19 -10.5z" />
    <glyph glyph-name="FL00D0h" unicode="&#xd0;" horiz-adv-x="598" 
d="M258 132q0 28 104 129q40 39 77 74.5t65.5 70.5t46 72.5t17.5 79.5q0 34 -16 60t-42.5 45.5t-61.5 33t-72.5 22t-75.5 12t-70 3.5q-37 0 -63.5 -2.5t-43.5 -12.5t-25 -28.5t-8 -51.5v-627h-60v-12h380v12h-174v97q35 -19 84 -19q29 0 47 3t27.5 7.5t12.5 11t3 12.5
q0 11 -10.5 19t-25 13t-29 7.5t-21.5 2.5q-18 0 -18 -11q0 -2 2 -7t4 -11t4 -11t2 -8q0 -9 -14 -9q-5 0 -12.5 1t-15 3.5t-13 6.5t-5.5 10v2zM326 702q84 -36 84 -164q0 -145 -82 -260q-43 -59 -66.5 -96.5t-25.5 -54.5v562q0 25 38 25q25 0 52 -12z" />
    <glyph glyph-name="FL00D1h" unicode="&#xd1;" horiz-adv-x="578" 
d="M197 13q-21 0 -21 13l8 34q0 11 -20 11q-55 -13 -94 -25q-22 -6 -22 -19q0 -31 122 -31q55 0 98 8.5t79 28t67.5 52t62.5 81.5q37 56 54 111t17 125l-154 -15v-71q0 -278 -140 -302q58 37 58 110q0 87 -78 204q-88 134 -88 264q0 128 98 128q93 0 132 -138h150
q-9 34 -32 62.5t-57 48.5t-76.5 31.5t-90.5 11.5q-60 0 -105 -18.5t-75 -52t-45 -81t-15 -105.5q0 -52 19.5 -99.5t66.5 -103.5q12 -15 36 -36.5t48 -47.5t42 -54.5t18 -57.5q0 -31 -15 -48t-41 -19h-7z" />
    <glyph glyph-name="FL00D2h" unicode="&#xd2;" horiz-adv-x="706" 
d="M282 720v-708h-218v-12h582v12h-218v708h82v-159q0 -10 22.5 -27t51.5 -33t56 -27.5t36 -11.5q-17 23 -23.5 44t-6.5 55v171h-582v-171q0 -34 -8 -54.5t-26 -40.5q7 0 22.5 5t34.5 13t39 18.5t36.5 21t27 20.5t10.5 17v159h82z" />
    <glyph glyph-name="FL00D3h" unicode="&#xd3;" horiz-adv-x="634" 
d="M196 720h8v12h-174v-12h18l204 -536q-95 -15 -95 -36q0 -14 20 -23.5t47 -22.5q27 74 192 80q-21 -76 -48 -112q-21 -24 -53 -39t-70 -15q-25 0 -25 16l6 26q0 13 -22 13q-9 0 -27.5 -2t-37.5 -6.5t-33 -12.5t-14 -20q0 -13 12.5 -20t30.5 -10.5t37.5 -4.5t33.5 -1
q74 0 144 32q101 46 152 352q45 267 102 354h-190v-12h8q-1 -5 -1 -30q0 -37 2.5 -113t7.5 -191q1 -12 1 -23v-21q0 -39 -3 -76t-11 -72h-22z" />
    <glyph glyph-name="FL00D4h" unicode="&#xd4;" horiz-adv-x="860" 
d="M178 0h506v12h-180v111q41 -22 164 -22q104 0 130 29q32 33 32 84q0 136 -209 345q-79 79 -107 159q11 0 26 -5.5t28.5 -13t23 -15t9.5 -10.5l-3 -7q0 -1 5 -1q39 14 60 33.5t21 32.5h-506q0 -2 5 -12.5t15 -22.5t24.5 -21.5t34.5 -9.5q4 0 6 2q-2 2 -2 6q0 5 9 12.5
t22 14.5t28 12t26 5q-21 -64 -107 -157q-209 -221 -209 -350q0 -48 30 -81q27 -28 128 -28q117 0 168 21v-111h-178v-12zM356 139q-22 -20 -76 -20q-27 0 -46.5 11.5t-31.5 31.5t-18 46.5t-6 55.5q0 155 94 281q65 100 84 137v-543zM624 130q-19 -11 -48 -11q-47 0 -72 20
v543q51 -95 83 -140q97 -134 97 -284q0 -95 -60 -128z" />
    <glyph glyph-name="FL00D5h" unicode="&#xd5;" horiz-adv-x="622" 
d="M250 452l152 -440h-8v-12h198v12h-38l-202 521q65 62 106 108.5t58 78.5h76v12h-202v-12h8q2 -6 3 -12.5t1 -14.5q0 -77 -58 -141l-62 168h8v12h-260v-12h106l104 -247q-88 -132 -120 -199q-32 -66 -50.5 -131t-23.5 -131h-16v-12h216v12h-8q-58 89 -58 190q0 110 70 250
z" />
    <glyph glyph-name="FL00D6h" unicode="&#xd6;" horiz-adv-x="662" 
d="M384 52q-36 -2 -73 -5.5t-75 -10.5v684h8v12h-214v-12h58v-709l-58 -9v-20q49 9 94.5 17t90.5 15t90.5 11t94.5 4q151 0 151 -35q0 -3 -2 -5.5t-4 -6.5l1.5 -0.5t3.5 -0.5q37 12 59.5 29.5t22.5 28.5q0 4 -14.5 7t-32.5 5t-34 2.5t-19 0.5v666h58v12h-214v-12h8v-668z
" />
    <glyph glyph-name="FL00D7h" unicode="&#xd7;" horiz-adv-x="622" 
d="M386 179q-21 37 -108 132q-66 73 -66 204q0 112 48 205h8v12h-238v-12h56q-11 -29 -15.5 -58t-4.5 -57q0 -173 178 -310q142 -109 142 -213v-70h-174v-12h380v12h-60v708h60v12h-214v-12h8v-541z" />
    <glyph glyph-name="FL00D8h" unicode="&#xd8;" horiz-adv-x="916" 
d="M678 720v-696q-20 -10 -90 -10q-56 0 -56 10v696h8v12h-164v-12h8v-696q-23 -10 -92 -10q-56 0 -56 10v696h8v12h-214v-12h58v-708h-58v-12h856v12h-60v708h60v12h-216v-12h8z" />
    <glyph glyph-name="FL00D9h" unicode="&#xd9;" horiz-adv-x="916" 
d="M532 44v676h8v12h-164v-12h8v-676q-51 -2 -88 -4.5t-60 -5.5v686h8v12h-214v-12h58v-707q-24 -5 -38.5 -8t-19.5 -5v-14q32 3 65.5 5t66.5 2q41 0 80 -8.5t76 -18.5t71.5 -18.5t66.5 -8.5q34 0 68 8.5t69 18t72 18t76 8.5q65 0 143 -6v14q-12 3 -26.5 6t-31.5 7v707h60
v12h-216v-12h8v-685q-54 6 -146 9z" />
    <glyph glyph-name="FL00DAh" unicode="&#xda;" horiz-adv-x="586" 
d="M371 718q-71 -51 -126 -111t-95 -135q-37 -69 -48.5 -184t-11.5 -276h-60v-12h502q24 64 24 127q0 55 -23.5 106.5t-59 100.5t-78 96t-79.5 95q23 36 56 72.5t80 74.5q20 16 41.5 31t44.5 29h-378q0 -5 5.5 -17t15.5 -24t25 -21.5t35 -9.5q2 0 4 2q-3 3 -3 8q0 8 12 16
t31 14.5t42 12t44 7.5v-2zM362 12h-124q-2 26 -3 54t-1 59q0 278 64 363q24 -35 44.5 -63t36 -57t24.5 -64t9 -84q0 -115 -50 -208z" />
    <glyph glyph-name="FL00DCh" unicode="&#xdc;" horiz-adv-x="584" 
d="M236 720h57v12h-263v-12h58v-708h-58v-12h502q11 33 16.5 64.5t5.5 62.5q0 173 -179 310q-139 108 -139 213v70zM362 12h-126v541q11 -19 36.5 -51.5t69.5 -80.5q66 -74 66 -204q0 -110 -46 -205z" />
    <glyph glyph-name="FL00DDh" unicode="&#xdd;" horiz-adv-x="574" 
d="M386 513q3 -15 5.5 -37t4 -46t2.5 -48t1 -44q0 -300 -155 -324q60 36 60 111q0 46 -24 104.5t-66 116.5l-140 -17q4 -19 19 -38t35 -39t42.5 -40.5t41 -43t30.5 -47t12 -50.5t-11.5 -40.5t-39.5 -16.5q-27 0 -27 19v6t2 16q0 16 -17 16q-12 0 -32 -3.5t-38.5 -9
t-32.5 -13t-14 -15.5q0 -12 13 -19.5t31 -11t37.5 -4.5t32.5 -1q107 0 164 30q43 22 83 62.5t71 90t49.5 102.5t18.5 100q0 72 -15 137t-49 114t-87.5 77.5t-130.5 28.5q-208 0 -232 -210h112q-6 34 -6 65q0 69 23.5 98.5t74.5 29.5q111 0 150 -192q-275 -13 -275 -53
q0 -14 19.5 -23t47.5 -22l-1 4q0 22 59 45q33 12 70.5 21t81.5 14z" />
    <glyph glyph-name="FL00DEh" unicode="&#xde;" horiz-adv-x="886" 
d="M334 486v-31t2 -25q5 -34 25 -69.5t48 -71t60.5 -69t62.5 -62.5q34 -34 34 -87q0 -37 -17.5 -47t-44.5 -10q-16 0 -16 5q7 14 7 18q0 11 -20 11q-4 0 -15.5 -1.5t-23.5 -4.5t-21.5 -8.5t-9.5 -14.5q0 -6 1.5 -10.5t8 -7.5t19.5 -5t36 -2q107 0 164 30q43 22 83 62.5
t71 90t49.5 102.5t18.5 100q0 72 -15 137t-49 113.5t-87.5 77.5t-130.5 29q-111 0 -174 -67q-55 -58 -64 -159q-73 15 -100 39v171h100v12h-306v-12h58v-708h-58v-12h306v11h-100v487q20 -4 44.5 -7t53.5 -5zM522 718q7 1 12 1h12q43 0 74 -29.5t51 -80.5t30 -120.5
t10 -150.5q0 -300 -155 -324q60 36 60 110q0 87 -78 204q-90 132 -90 264q0 113 74 126z" />
    <glyph glyph-name="FL00DFh" unicode="&#xdf;" horiz-adv-x="586" 
d="M340 12h-8v-12h224v12h-68v634q0 31 -9 49t-26.5 27.5t-44 12.5t-62.5 3q-38 0 -80 -3t-77.5 -15t-59 -36t-23.5 -67q0 -54 32.5 -80t81.5 -26q23 0 45 3.5t45 11.5q-18 -20 -43.5 -41.5t-57.5 -46.5q-179 -137 -179 -311q0 -61 24 -127h178v12h-8q-48 93 -48 205
q0 132 68 204q76 83 96 121v-530zM340 602q0 -32 -9 -45.5t-35 -13.5q-16 0 -33 6t-31.5 17.5t-24 28t-9.5 38.5q0 20 8.5 36t22.5 27t32.5 17t38.5 6q37 0 40 -24v-93z" />
    <glyph glyph-name="agrave" unicode="&#xe0;" horiz-adv-x="622" 
d="M386 12h-8v-12h214v12h-60v708h60v12h-379q-1 -1 -1 -4q0 -6 5.5 -17.5t16 -23t25.5 -19.5t33 -8q3 0 5 2q-2 1 -2 5q0 10 20.5 27.5t60.5 23.5h10v-68q0 -103 -142 -213q-178 -137 -178 -310q0 -28 4.5 -57t15.5 -58h-56v-12h238v12h-8q-24 43 -36 98q12 46 162 69v-167
zM386 196q-57 -3 -100 -7.5t-72 -11.5q-2 10 -2 19v19q0 132 66 206q87 94 108 132v-357z" />
    <glyph glyph-name="aacute" unicode="&#xe1;" horiz-adv-x="584" 
d="M236 650v70h88v-70q0 -3 5.5 -13.5t15 -23t22 -26.5t26.5 -24q39 -28 67 -43t48 -18q-43 38 -43 100v130h-435v-12h58v-708h-58v-12h502q11 33 16.5 64.5t5.5 62.5q0 173 -179 310q-139 108 -139 213zM362 12h-126v541q11 -19 36.5 -51.5t69.5 -80.5q66 -74 66 -204
q0 -110 -46 -205z" />
    <glyph glyph-name="acircumflex" unicode="&#xe2;" horiz-adv-x="586" 
d="M276 526q9 -4 17.5 -8t28.5 -4q41 0 71 9t55 27q17 12 24.5 27t7.5 33q0 37 -24 62t-60 39.5t-78 20.5t-78 6q-66 0 -104 -19.5t-38 -72.5v-634h-68v-12h502q24 66 24 127q0 173 -179 310q-65 50 -101 89zM246 12v530q12 -20 36 -49.5t62 -71.5q66 -74 66 -204
q0 -112 -48 -205h-116zM246 689q0 12 10 21t30 9q31 0 42.5 -21t11.5 -61q0 -45 -9 -70t-39 -25q-17 0 -30 8q-16 11 -16 52v87z" />
    <glyph glyph-name="atilde" unicode="&#xe3;" horiz-adv-x="544" 
d="M326 720v-118q0 -5 5.5 -14.5t16 -22t25 -26.5t32.5 -27q35 -25 61.5 -39.5t47.5 -19.5q-12 15 -20 27.5t-13 25t-7 25.5t-2 30v171h-442v-12h58v-708h-58v-12h442v12h-236v708h90z" />
    <glyph glyph-name="adieresis" unicode="&#xe4;" horiz-adv-x="712" 
d="M567 54v666h60v12h-379q-2 -2 -2 -4q0 -6 6 -17.5t16.5 -23t25 -19.5t32.5 -8q2 0 6 2q-3 2 -3 6q0 6 7 13.5t18 15.5t26 14t32 9h9v-70q0 -104 -141 -213q-179 -137 -179 -278q0 -50 18 -108q-17 -3 -32.5 -4t-28.5 -2.5t-20.5 -3t-7.5 -5.5l6 -9t16.5 -19.5t25.5 -19.5
t33 -9q2 0 4 2q-2 4 -2 10q0 25 82 43q36 8 76 12t84 4t84 -4t78 -12q84 -18 84 -43q0 -6 -5 -11l5 -2q18 0 33 9t25.5 19.5t16.5 19.5l6 9q0 3 -1 5q-23 5 -51 8t-63 6zM291 62q-44 85 -44 176q0 109 66 183q87 94 108 132v-491h-130z" />
    <glyph glyph-name="aring" unicode="&#xe5;" horiz-adv-x="586" 
d="M152 497q-8 25 -12 48t-4 45q0 128 106 128q96 0 126 -114h148q-36 130 -246 130q-58 0 -103 -18.5t-75.5 -52.5t-46 -80.5t-15.5 -103.5q0 -28 4 -52t14 -47.5t26.5 -48.5t41.5 -55q20 -23 48 -53t65 -65q37 -36 37 -89q0 -50 -42 -54q-4 -1 -12 -1q-11 0 -17.5 4.5
t-6.5 11.5q0 5 5 14.5t5 16.5q0 10 -18 10q-27 -7 -50 -13t-42 -11q-11 0 -18.5 -7.5t-7.5 -12.5q0 -31 122 -31q55 0 99.5 8.5t80.5 28.5t66 53t57 82q29 54 46.5 117t22.5 137l-142 -11v-46q0 -70 -3.5 -121.5t-11.5 -86.5q-31 -133 -131 -142q60 33 60 97q0 70 -70 186
q-87 143 -102 184q303 11 303 49q0 19 -27.5 29.5t-65.5 16.5l1 -4q0 -23 -63 -44q-32 -11 -69.5 -19t-82.5 -13z" />
    <glyph glyph-name="ae" unicode="&#xe6;" horiz-adv-x="916" 
d="M678 720q5 -14 6.5 -29t1.5 -31q0 -65 -38 -87t-72 -22q-16 0 -30 7q-14 11 -14 30v132h8v12h-162v-12h8v-132q0 -19 -14 -30q-6 -3 -13.5 -5t-18.5 -2q-35 0 -72 23q-38 22 -38 89q0 15 1.5 29t6.5 28h8v12h-138q-5 -17 -7.5 -34t-2.5 -34q0 -84 46 -113
q26 -16 58 -23.5t70 -7.5q39 0 74 11q-35 -31 -60 -53t-42 -37q-178 -139 -178 -314q0 -28 4.5 -57t15.5 -58h-56v-12h238v12h-8q-48 93 -48 206q0 132 66 206q48 53 75 82.5t33 35.5v-530h-8v-12h162v12h-8v531q32 -36 57.5 -66t48.5 -53q68 -72 68 -206q0 -113 -48 -206
h-8v-12h236v12h-54q11 29 15.5 58t4.5 57q0 175 -180 315q-41 32 -67.5 55t-40.5 36q38 -13 82 -13q38 0 70 7.5t58 23.5q44 28 44 113q0 18 -1.5 34.5t-6.5 33.5h-140v-12h8z" />
    <glyph glyph-name="ccedilla" unicode="&#xe7;" horiz-adv-x="471" 
d="M161 146q-14 -12 -36.5 -33.5t-57.5 -50.5q-37 -33 -37 -44q0 -12 42 -17t107 -5q34 0 70 15q38 16 38 27q0 6 -10 8q-41 11 -64.5 17t-29.5 8q-20 0 -20 -9q0 -5 5 -16t5 -16q0 -16 -34 -16q-50 0 -50 19q0 18 102 101q38 30 78.5 73t73.5 91t54.5 98t21.5 95
q0 20 -3.5 37t-13.5 29t-27.5 18.5t-44.5 6.5q-23 0 -47.5 -7.5t-51.5 -10.5l210 168h-410q0 -6 5.5 -18t16 -24t25.5 -21t34 -9q2 0 4 2q-2 3 -2 8q0 7 14.5 16t35.5 17t45.5 13t45.5 5q10 0 14 -1l-238 -190q53 9 92 14t66 5q22 0 36.5 -11.5t23 -28.5t11.5 -38.5t3 -40.5
q0 -37 -4 -73.5t-15.5 -71.5t-31.5 -70t-51 -69z" />
    <glyph glyph-name="egrave" unicode="&#xe8;" 
d="M236 116q81 72 128 72q20 0 20 -20v-156h-8v-12h214v12h-58v708h58v12h-214v-12h8v-486q-28 -6 -68 -27q-55 -29 -80 -73v586h8v12h-214v-12h58v-708h-58v-12h214v12h-8v104z" />
    <glyph glyph-name="eacute" unicode="&#xe9;" horiz-adv-x="621" 
d="M384 12h-8v-12h214v12h-58v711h59v12h-214v-12h8v-489q-29 -6 -69 -27q-55 -29 -80 -73v589h9v12h-214v-12h58v-711h-59v-12h214v12h-8v104q81 72 128 72q20 0 20 -20v-156zM314 769q33 0 61 1t49 5t32.5 11.5t11.5 21.5q0 18 -12 42.5t-31 37.5q-3 0 -3 -3l3 -16
q0 -25 -14.5 -40.5t-34 -24t-38.5 -11.5t-27 -3q-9 0 -27.5 2.5t-38 10.5t-34 23t-14.5 40q0 4 1 9t3 10q-1 2 -4 2q-9 0 -17 -11t-13.5 -24.5t-8.5 -26.5t-3 -17q0 -14 16.5 -22t40 -11.5t49.5 -4.5t46 -1h7z" />
    <glyph glyph-name="ecircumflex" unicode="&#xea;" 
d="M236 538q39 -41 70.5 -73t54 -66t35 -76.5t12.5 -104.5q0 -57 -11.5 -108t-34.5 -98h-8v-12h236v12h-54q18 58 18 115t-24.5 114.5t-64.5 110.5t-91.5 98t-105.5 77q38 -13 82 -13q51 0 84 9.5t52.5 32.5t27.5 63t8 101h50v12h-190q5 -14 7.5 -30.5t2.5 -33.5
q0 -62 -30.5 -92t-81.5 -30q-18 0 -31 9t-13 27v138h8v12h-214v-12h58v-708h-58v-12h214v12h-8v526z" />
    <glyph glyph-name="edieresis" unicode="&#xeb;" horiz-adv-x="622" 
d="M260 12q-48 93 -48 205q0 130 66 204q87 94 108 132v-541h-8v-12h214v12h-60v708h60v12h-380q0 -6 5.5 -18t16 -24t25.5 -21t33 -9q2 0 6 2q-2 1 -2 5q0 6 7 14t19 15.5t28.5 14t34.5 9.5h1v-70q0 -104 -142 -213q-178 -137 -178 -310q0 -28 4.5 -57t15.5 -58h-56v-12
h238v12h-8z" />
    <glyph glyph-name="igrave" unicode="&#xec;" horiz-adv-x="916" 
d="M678 12h-8v-12h216v12h-60v708h60v12h-216v-12h8v-106q0 -1 -13 -16.5t-34 -42.5t-46 -63.5t-49 -79.5t-44 -90.5t-30 -96.5q-5 50 -23 98t-43.5 90.5t-53.5 79t-51.5 63.5t-39 43t-15.5 17v104h8v12h-214v-12h58v-708h-58v-12h214v12h-8v569q49 -74 78 -132t44 -109
t19.5 -98t4.5 -99v-131h-8v-12h168v12h-8v45q0 65 1 114.5t5 89.5t13 74.5t25 71t40.5 77.5t59.5 94v-566z" />
    <glyph glyph-name="iacute" unicode="&#xed;" 
d="M236 522q27 -8 64 -12t84 -4v-494h-8v-12h214v12h-58v708h58v12h-214v-12h8v-196q-101 8 -148 49v147h8v12h-214v-12h58v-708h-58v-12h214v12h-8v510z" />
    <glyph glyph-name="icircumflex" unicode="&#xee;" horiz-adv-x="582" 
d="M230 158q34 -34 34 -87q0 -31 -13.5 -44t-37.5 -13q-27 0 -27 19v22q0 16 -20 16q-9 0 -28 -3t-38 -8.5t-33.5 -13t-14.5 -16.5q0 -12 13.5 -19t32 -11t38 -5t32.5 -1q111 0 185 30t118 81.5t62.5 122t18.5 151.5q0 73 -14.5 137.5t-48 113.5t-87.5 77.5t-132 28.5
q-58 0 -102.5 -19t-75 -53t-46.5 -81.5t-16 -103.5q0 -53 19 -99t67 -104q20 -23 48 -53t66 -65zM220 718q8 1 12 1h10q37 0 67 -20.5t51.5 -61t33.5 -102t12 -142.5q0 -175 -33.5 -270.5t-118.5 -108.5q58 37 58 110q0 87 -78 204q-88 134 -88 264q0 113 74 126z" />
    <glyph glyph-name="idieresis" unicode="&#xef;" 
d="M384 700v-688h-8v-12h214v12h-58v708h58v12h-560v-12h58v-708h-58v-12h214v12h-8v697q16 1 27.5 4t37.5 3q45 0 64 -5.5t19 -10.5z" />
    <glyph glyph-name="eth" unicode="&#xf0;" horiz-adv-x="598" 
d="M258 132q0 28 104 129q40 39 77 74.5t65.5 70.5t46 72.5t17.5 79.5q0 34 -16 60t-42.5 45.5t-61.5 33t-72.5 22t-75.5 12t-70 3.5q-37 0 -63.5 -2.5t-43.5 -12.5t-25 -28.5t-8 -51.5v-627h-60v-12h380v12h-174v97q35 -19 84 -19q29 0 47 3t27.5 7.5t12.5 11t3 12.5
q0 11 -10.5 19t-25 13t-29 7.5t-21.5 2.5q-18 0 -18 -11q0 -2 2 -7t4 -11t4 -11t2 -8q0 -9 -14 -9q-5 0 -12.5 1t-15 3.5t-13 6.5t-5.5 10v2zM326 702q84 -36 84 -164q0 -145 -82 -260q-43 -59 -66.5 -96.5t-25.5 -54.5v562q0 25 38 25q25 0 52 -12z" />
    <glyph glyph-name="ntilde" unicode="&#xf1;" horiz-adv-x="578" 
d="M197 13q-21 0 -21 13l8 34q0 11 -20 11q-55 -13 -94 -25q-22 -6 -22 -19q0 -31 122 -31q55 0 98 8.5t79 28t67.5 52t62.5 81.5q37 56 54 111t17 125l-154 -15v-71q0 -278 -140 -302q58 37 58 110q0 87 -78 204q-88 134 -88 264q0 128 98 128q93 0 132 -138h150
q-9 34 -32 62.5t-57 48.5t-76.5 31.5t-90.5 11.5q-60 0 -105 -18.5t-75 -52t-45 -81t-15 -105.5q0 -52 19.5 -99.5t66.5 -103.5q12 -15 36 -36.5t48 -47.5t42 -54.5t18 -57.5q0 -31 -15 -48t-41 -19h-7z" />
    <glyph glyph-name="ograve" unicode="&#xf2;" horiz-adv-x="706" 
d="M282 720v-708h-218v-12h582v12h-218v708h82v-159q0 -10 22.5 -27t51.5 -33t56 -27.5t36 -11.5q-17 23 -23.5 44t-6.5 55v171h-582v-171q0 -34 -8 -54.5t-26 -40.5q7 0 22.5 5t34.5 13t39 18.5t36.5 21t27 20.5t10.5 17v159h82z" />
    <glyph glyph-name="oacute" unicode="&#xf3;" horiz-adv-x="634" 
d="M196 720h8v12h-174v-12h18l204 -536q-95 -15 -95 -36q0 -14 20 -23.5t47 -22.5q27 74 192 80q-21 -76 -48 -112q-21 -24 -53 -39t-70 -15q-25 0 -25 16l6 26q0 13 -22 13q-9 0 -27.5 -2t-37.5 -6.5t-33 -12.5t-14 -20q0 -13 12.5 -20t30.5 -10.5t37.5 -4.5t33.5 -1
q74 0 144 32q101 46 152 352q45 267 102 354h-190v-12h8q-1 -5 -1 -30q0 -37 2.5 -113t7.5 -191q1 -12 1 -23v-21q0 -39 -3 -76t-11 -72h-22z" />
    <glyph glyph-name="ocircumflex" unicode="&#xf4;" horiz-adv-x="860" 
d="M178 0h506v12h-180v111q41 -22 164 -22q104 0 130 29q32 33 32 84q0 136 -209 345q-79 79 -107 159q11 0 26 -5.5t28.5 -13t23 -15t9.5 -10.5l-3 -7q0 -1 5 -1q39 14 60 33.5t21 32.5h-506q0 -2 5 -12.5t15 -22.5t24.5 -21.5t34.5 -9.5q4 0 6 2q-2 2 -2 6q0 5 9 12.5
t22 14.5t28 12t26 5q-21 -64 -107 -157q-209 -221 -209 -350q0 -48 30 -81q27 -28 128 -28q117 0 168 21v-111h-178v-12zM356 139q-22 -20 -76 -20q-27 0 -46.5 11.5t-31.5 31.5t-18 46.5t-6 55.5q0 155 94 281q65 100 84 137v-543zM624 130q-19 -11 -48 -11q-47 0 -72 20
v543q51 -95 83 -140q97 -134 97 -284q0 -95 -60 -128z" />
    <glyph glyph-name="otilde" unicode="&#xf5;" horiz-adv-x="622" 
d="M250 452l152 -440h-8v-12h198v12h-38l-202 521q65 62 106 108.5t58 78.5h76v12h-202v-12h8q2 -6 3 -12.5t1 -14.5q0 -77 -58 -141l-62 168h8v12h-260v-12h106l104 -247q-88 -132 -120 -199q-32 -66 -50.5 -131t-23.5 -131h-16v-12h216v12h-8q-58 89 -58 190q0 110 70 250
z" />
    <glyph glyph-name="odieresis" unicode="&#xf6;" horiz-adv-x="662" 
d="M384 52q-36 -2 -73 -5.5t-75 -10.5v684h8v12h-214v-12h58v-709l-58 -9v-20q49 9 94.5 17t90.5 15t90.5 11t94.5 4q151 0 151 -35q0 -3 -2 -5.5t-4 -6.5l1.5 -0.5t3.5 -0.5q37 12 59.5 29.5t22.5 28.5q0 4 -14.5 7t-32.5 5t-34 2.5t-19 0.5v666h58v12h-214v-12h8v-668z
" />
    <glyph glyph-name="divide" unicode="&#xf7;" horiz-adv-x="622" 
d="M386 179q-21 37 -108 132q-66 73 -66 204q0 112 48 205h8v12h-238v-12h56q-11 -29 -15.5 -58t-4.5 -57q0 -173 178 -310q142 -109 142 -213v-70h-174v-12h380v12h-60v708h60v12h-214v-12h8v-541z" />
    <glyph glyph-name="oslash" unicode="&#xf8;" horiz-adv-x="916" 
d="M678 720v-696q-20 -10 -90 -10q-56 0 -56 10v696h8v12h-164v-12h8v-696q-23 -10 -92 -10q-56 0 -56 10v696h8v12h-214v-12h58v-708h-58v-12h856v12h-60v708h60v12h-216v-12h8z" />
    <glyph glyph-name="ugrave" unicode="&#xf9;" horiz-adv-x="916" 
d="M532 44v676h8v12h-164v-12h8v-676q-51 -2 -88 -4.5t-60 -5.5v686h8v12h-214v-12h58v-707q-24 -5 -38.5 -8t-19.5 -5v-14q32 3 65.5 5t66.5 2q41 0 80 -8.5t76 -18.5t71.5 -18.5t66.5 -8.5q34 0 68 8.5t69 18t72 18t76 8.5q65 0 143 -6v14q-12 3 -26.5 6t-31.5 7v707h60
v12h-216v-12h8v-685q-54 6 -146 9z" />
    <glyph glyph-name="uacute" unicode="&#xfa;" horiz-adv-x="586" 
d="M371 718q-71 -51 -126 -111t-95 -135q-37 -69 -48.5 -184t-11.5 -276h-60v-12h502q24 64 24 127q0 55 -23.5 106.5t-59 100.5t-78 96t-79.5 95q23 36 56 72.5t80 74.5q20 16 41.5 31t44.5 29h-378q0 -5 5.5 -17t15.5 -24t25 -21.5t35 -9.5q2 0 4 2q-3 3 -3 8q0 8 12 16
t31 14.5t42 12t44 7.5v-2zM362 12h-124q-2 26 -3 54t-1 59q0 278 64 363q24 -35 44.5 -63t36 -57t24.5 -64t9 -84q0 -115 -50 -208z" />
    <glyph glyph-name="udieresis" unicode="&#xfc;" horiz-adv-x="584" 
d="M236 720h57v12h-263v-12h58v-708h-58v-12h502q11 33 16.5 64.5t5.5 62.5q0 173 -179 310q-139 108 -139 213v70zM362 12h-126v541q11 -19 36.5 -51.5t69.5 -80.5q66 -74 66 -204q0 -110 -46 -205z" />
    <glyph glyph-name="yacute" unicode="&#xfd;" horiz-adv-x="574" 
d="M386 513q3 -15 5.5 -37t4 -46t2.5 -48t1 -44q0 -300 -155 -324q60 36 60 111q0 46 -24 104.5t-66 116.5l-140 -17q4 -19 19 -38t35 -39t42.5 -40.5t41 -43t30.5 -47t12 -50.5t-11.5 -40.5t-39.5 -16.5q-27 0 -27 19v6t2 16q0 16 -17 16q-12 0 -32 -3.5t-38.5 -9
t-32.5 -13t-14 -15.5q0 -12 13 -19.5t31 -11t37.5 -4.5t32.5 -1q107 0 164 30q43 22 83 62.5t71 90t49.5 102.5t18.5 100q0 72 -15 137t-49 114t-87.5 77.5t-130.5 28.5q-208 0 -232 -210h112q-6 34 -6 65q0 69 23.5 98.5t74.5 29.5q111 0 150 -192q-275 -13 -275 -53
q0 -14 19.5 -23t47.5 -22l-1 4q0 22 59 45q33 12 70.5 21t81.5 14z" />
    <glyph glyph-name="thorn" unicode="&#xfe;" horiz-adv-x="886" 
d="M334 486v-31t2 -25q5 -34 25 -69.5t48 -71t60.5 -69t62.5 -62.5q34 -34 34 -87q0 -37 -17.5 -47t-44.5 -10q-16 0 -16 5q7 14 7 18q0 11 -20 11q-4 0 -15.5 -1.5t-23.5 -4.5t-21.5 -8.5t-9.5 -14.5q0 -6 1.5 -10.5t8 -7.5t19.5 -5t36 -2q107 0 164 30q43 22 83 62.5
t71 90t49.5 102.5t18.5 100q0 72 -15 137t-49 113.5t-87.5 77.5t-130.5 29q-111 0 -174 -67q-55 -58 -64 -159q-73 15 -100 39v171h100v12h-306v-12h58v-708h-58v-12h306v11h-100v487q20 -4 44.5 -7t53.5 -5zM522 718q7 1 12 1h12q43 0 74 -29.5t51 -80.5t30 -120.5
t10 -150.5q0 -300 -155 -324q60 36 60 110q0 87 -78 204q-90 132 -90 264q0 113 74 126z" />
    <glyph glyph-name="ydieresis" unicode="&#xff;" horiz-adv-x="586" 
d="M340 12h-8v-12h224v12h-68v634q0 31 -9 49t-26.5 27.5t-44 12.5t-62.5 3q-38 0 -80 -3t-77.5 -15t-59 -36t-23.5 -67q0 -54 32.5 -80t81.5 -26q23 0 45 3.5t45 11.5q-18 -20 -43.5 -41.5t-57.5 -46.5q-179 -137 -179 -311q0 -61 24 -127h178v12h-8q-48 93 -48 205
q0 132 68 204q76 83 96 121v-530zM340 602q0 -32 -9 -45.5t-35 -13.5q-16 0 -33 6t-31.5 17.5t-24 28t-9.5 38.5q0 20 8.5 36t22.5 27t32.5 17t38.5 6q37 0 40 -24v-93z" />
    <glyph glyph-name="afii10017" unicode="&#x410;" horiz-adv-x="622" 
d="M386 12h-8v-12h214v12h-60v708h60v12h-379q-1 -1 -1 -4q0 -6 5.5 -17.5t16 -23t25.5 -19.5t33 -8q3 0 5 2q-2 1 -2 5q0 10 20.5 27.5t60.5 23.5h10v-68q0 -103 -142 -213q-178 -137 -178 -310q0 -28 4.5 -57t15.5 -58h-56v-12h238v12h-8q-24 43 -36 98q12 46 162 69v-167
zM386 196q-57 -3 -100 -7.5t-72 -11.5q-2 10 -2 19v19q0 132 66 206q87 94 108 132v-357z" />
    <glyph glyph-name="afii10018" unicode="&#x411;" horiz-adv-x="584" 
d="M236 650v70h88v-70q0 -3 5.5 -13.5t15 -23t22 -26.5t26.5 -24q39 -28 67 -43t48 -18q-43 38 -43 100v130h-435v-12h58v-708h-58v-12h502q11 33 16.5 64.5t5.5 62.5q0 173 -179 310q-139 108 -139 213zM362 12h-126v541q11 -19 36.5 -51.5t69.5 -80.5q66 -74 66 -204
q0 -110 -46 -205z" />
    <glyph glyph-name="afii10019" unicode="&#x412;" horiz-adv-x="586" 
d="M276 526q9 -4 17.5 -8t28.5 -4q41 0 71 9t55 27q17 12 24.5 27t7.5 33q0 37 -24 62t-60 39.5t-78 20.5t-78 6q-66 0 -104 -19.5t-38 -72.5v-634h-68v-12h502q24 66 24 127q0 173 -179 310q-65 50 -101 89zM246 12v530q12 -20 36 -49.5t62 -71.5q66 -74 66 -204
q0 -112 -48 -205h-116zM246 689q0 12 10 21t30 9q31 0 42.5 -21t11.5 -61q0 -45 -9 -70t-39 -25q-17 0 -30 8q-16 11 -16 52v87z" />
    <glyph glyph-name="afii10020" unicode="&#x413;" horiz-adv-x="544" 
d="M326 720v-118q0 -5 5.5 -14.5t16 -22t25 -26.5t32.5 -27q35 -25 61.5 -39.5t47.5 -19.5q-12 15 -20 27.5t-13 25t-7 25.5t-2 30v171h-442v-12h58v-708h-58v-12h442v12h-236v708h90z" />
    <glyph glyph-name="afii10021" unicode="&#x414;" horiz-adv-x="712" 
d="M567 54v666h60v12h-379q-2 -2 -2 -4q0 -6 6 -17.5t16.5 -23t25 -19.5t32.5 -8q2 0 6 2q-3 2 -3 6q0 6 7 13.5t18 15.5t26 14t32 9h9v-70q0 -104 -141 -213q-179 -137 -179 -278q0 -50 18 -108q-17 -3 -32.5 -4t-28.5 -2.5t-20.5 -3t-7.5 -5.5l6 -9t16.5 -19.5t25.5 -19.5
t33 -9q2 0 4 2q-2 4 -2 10q0 25 82 43q36 8 76 12t84 4t84 -4t78 -12q84 -18 84 -43q0 -6 -5 -11l5 -2q18 0 33 9t25.5 19.5t16.5 19.5l6 9q0 3 -1 5q-23 5 -51 8t-63 6zM291 62q-44 85 -44 176q0 109 66 183q87 94 108 132v-491h-130z" />
    <glyph glyph-name="afii10022" unicode="&#x415;" horiz-adv-x="586" 
d="M152 497q-8 25 -12 48t-4 45q0 128 106 128q96 0 126 -114h148q-36 130 -246 130q-58 0 -103 -18.5t-75.5 -52.5t-46 -80.5t-15.5 -103.5q0 -28 4 -52t14 -47.5t26.5 -48.5t41.5 -55q20 -23 48 -53t65 -65q37 -36 37 -89q0 -50 -42 -54q-4 -1 -12 -1q-11 0 -17.5 4.5
t-6.5 11.5q0 5 5 14.5t5 16.5q0 10 -18 10q-27 -7 -50 -13t-42 -11q-11 0 -18.5 -7.5t-7.5 -12.5q0 -31 122 -31q55 0 99.5 8.5t80.5 28.5t66 53t57 82q29 54 46.5 117t22.5 137l-142 -11v-46q0 -70 -3.5 -121.5t-11.5 -86.5q-31 -133 -131 -142q60 33 60 97q0 70 -70 186
q-87 143 -102 184q303 11 303 49q0 19 -27.5 29.5t-65.5 16.5l1 -4q0 -23 -63 -44q-32 -11 -69.5 -19t-82.5 -13z" />
    <glyph glyph-name="afii10024" unicode="&#x416;" horiz-adv-x="916" 
d="M678 720q5 -14 6.5 -29t1.5 -31q0 -65 -38 -87t-72 -22q-16 0 -30 7q-14 11 -14 30v132h8v12h-162v-12h8v-132q0 -19 -14 -30q-6 -3 -13.5 -5t-18.5 -2q-35 0 -72 23q-38 22 -38 89q0 15 1.5 29t6.5 28h8v12h-138q-5 -17 -7.5 -34t-2.5 -34q0 -84 46 -113
q26 -16 58 -23.5t70 -7.5q39 0 74 11q-35 -31 -60 -53t-42 -37q-178 -139 -178 -314q0 -28 4.5 -57t15.5 -58h-56v-12h238v12h-8q-48 93 -48 206q0 132 66 206q48 53 75 82.5t33 35.5v-530h-8v-12h162v12h-8v531q32 -36 57.5 -66t48.5 -53q68 -72 68 -206q0 -113 -48 -206
h-8v-12h236v12h-54q11 29 15.5 58t4.5 57q0 175 -180 315q-41 32 -67.5 55t-40.5 36q38 -13 82 -13q38 0 70 7.5t58 23.5q44 28 44 113q0 18 -1.5 34.5t-6.5 33.5h-140v-12h8z" />
    <glyph glyph-name="afii10025" unicode="&#x417;" horiz-adv-x="471" 
d="M161 146q-14 -12 -36.5 -33.5t-57.5 -50.5q-37 -33 -37 -44q0 -12 42 -17t107 -5q34 0 70 15q38 16 38 27q0 6 -10 8q-41 11 -64.5 17t-29.5 8q-20 0 -20 -9q0 -5 5 -16t5 -16q0 -16 -34 -16q-50 0 -50 19q0 18 102 101q38 30 78.5 73t73.5 91t54.5 98t21.5 95
q0 20 -3.5 37t-13.5 29t-27.5 18.5t-44.5 6.5q-23 0 -47.5 -7.5t-51.5 -10.5l210 168h-410q0 -6 5.5 -18t16 -24t25.5 -21t34 -9q2 0 4 2q-2 3 -2 8q0 7 14.5 16t35.5 17t45.5 13t45.5 5q10 0 14 -1l-238 -190q53 9 92 14t66 5q22 0 36.5 -11.5t23 -28.5t11.5 -38.5t3 -40.5
q0 -37 -4 -73.5t-15.5 -71.5t-31.5 -70t-51 -69z" />
    <glyph glyph-name="afii10026" unicode="&#x418;" 
d="M236 116q81 72 128 72q20 0 20 -20v-156h-8v-12h214v12h-58v708h58v12h-214v-12h8v-486q-28 -6 -68 -27q-55 -29 -80 -73v586h8v12h-214v-12h58v-708h-58v-12h214v12h-8v104z" />
    <glyph glyph-name="afii10027" unicode="&#x419;" horiz-adv-x="621" 
d="M384 12h-8v-12h214v12h-58v711h59v12h-214v-12h8v-489q-29 -6 -69 -27q-55 -29 -80 -73v589h9v12h-214v-12h58v-711h-59v-12h214v12h-8v104q81 72 128 72q20 0 20 -20v-156zM314 769q33 0 61 1t49 5t32.5 11.5t11.5 21.5q0 18 -12 42.5t-31 37.5q-3 0 -3 -3l3 -16
q0 -25 -14.5 -40.5t-34 -24t-38.5 -11.5t-27 -3q-9 0 -27.5 2.5t-38 10.5t-34 23t-14.5 40q0 4 1 9t3 10q-1 2 -4 2q-9 0 -17 -11t-13.5 -24.5t-8.5 -26.5t-3 -17q0 -14 16.5 -22t40 -11.5t49.5 -4.5t46 -1h7z" />
    <glyph glyph-name="afii10028" unicode="&#x41a;" 
d="M236 538q39 -41 70.5 -73t54 -66t35 -76.5t12.5 -104.5q0 -57 -11.5 -108t-34.5 -98h-8v-12h236v12h-54q18 58 18 115t-24.5 114.5t-64.5 110.5t-91.5 98t-105.5 77q38 -13 82 -13q51 0 84 9.5t52.5 32.5t27.5 63t8 101h50v12h-190q5 -14 7.5 -30.5t2.5 -33.5
q0 -62 -30.5 -92t-81.5 -30q-18 0 -31 9t-13 27v138h8v12h-214v-12h58v-708h-58v-12h214v12h-8v526z" />
    <glyph glyph-name="afii10029" unicode="&#x41b;" horiz-adv-x="622" 
d="M260 12q-48 93 -48 205q0 130 66 204q87 94 108 132v-541h-8v-12h214v12h-60v708h60v12h-380q0 -6 5.5 -18t16 -24t25.5 -21t33 -9q2 0 6 2q-2 1 -2 5q0 6 7 14t19 15.5t28.5 14t34.5 9.5h1v-70q0 -104 -142 -213q-178 -137 -178 -310q0 -28 4.5 -57t15.5 -58h-56v-12
h238v12h-8z" />
    <glyph glyph-name="afii10030" unicode="&#x41c;" horiz-adv-x="916" 
d="M678 12h-8v-12h216v12h-60v708h60v12h-216v-12h8v-106q0 -1 -13 -16.5t-34 -42.5t-46 -63.5t-49 -79.5t-44 -90.5t-30 -96.5q-5 50 -23 98t-43.5 90.5t-53.5 79t-51.5 63.5t-39 43t-15.5 17v104h8v12h-214v-12h58v-708h-58v-12h214v12h-8v569q49 -74 78 -132t44 -109
t19.5 -98t4.5 -99v-131h-8v-12h168v12h-8v45q0 65 1 114.5t5 89.5t13 74.5t25 71t40.5 77.5t59.5 94v-566z" />
    <glyph glyph-name="afii10031" unicode="&#x41d;" 
d="M236 522q27 -8 64 -12t84 -4v-494h-8v-12h214v12h-58v708h58v12h-214v-12h8v-196q-101 8 -148 49v147h8v12h-214v-12h58v-708h-58v-12h214v12h-8v510z" />
    <glyph glyph-name="afii10032" unicode="&#x41e;" horiz-adv-x="582" 
d="M230 158q34 -34 34 -87q0 -31 -13.5 -44t-37.5 -13q-27 0 -27 19v22q0 16 -20 16q-9 0 -28 -3t-38 -8.5t-33.5 -13t-14.5 -16.5q0 -12 13.5 -19t32 -11t38 -5t32.5 -1q111 0 185 30t118 81.5t62.5 122t18.5 151.5q0 73 -14.5 137.5t-48 113.5t-87.5 77.5t-132 28.5
q-58 0 -102.5 -19t-75 -53t-46.5 -81.5t-16 -103.5q0 -53 19 -99t67 -104q20 -23 48 -53t66 -65zM220 718q8 1 12 1h10q37 0 67 -20.5t51.5 -61t33.5 -102t12 -142.5q0 -175 -33.5 -270.5t-118.5 -108.5q58 37 58 110q0 87 -78 204q-88 134 -88 264q0 113 74 126z" />
    <glyph glyph-name="afii10033" unicode="&#x41f;" 
d="M384 700v-688h-8v-12h214v12h-58v708h58v12h-560v-12h58v-708h-58v-12h214v12h-8v697q16 1 27.5 4t37.5 3q45 0 64 -5.5t19 -10.5z" />
    <glyph glyph-name="afii10034" unicode="&#x420;" horiz-adv-x="598" 
d="M258 132q0 28 104 129q40 39 77 74.5t65.5 70.5t46 72.5t17.5 79.5q0 34 -16 60t-42.5 45.5t-61.5 33t-72.5 22t-75.5 12t-70 3.5q-37 0 -63.5 -2.5t-43.5 -12.5t-25 -28.5t-8 -51.5v-627h-60v-12h380v12h-174v97q35 -19 84 -19q29 0 47 3t27.5 7.5t12.5 11t3 12.5
q0 11 -10.5 19t-25 13t-29 7.5t-21.5 2.5q-18 0 -18 -11q0 -2 2 -7t4 -11t4 -11t2 -8q0 -9 -14 -9q-5 0 -12.5 1t-15 3.5t-13 6.5t-5.5 10v2zM326 702q84 -36 84 -164q0 -145 -82 -260q-43 -59 -66.5 -96.5t-25.5 -54.5v562q0 25 38 25q25 0 52 -12z" />
    <glyph glyph-name="afii10035" unicode="&#x421;" horiz-adv-x="578" 
d="M197 13q-21 0 -21 13l8 34q0 11 -20 11q-55 -13 -94 -25q-22 -6 -22 -19q0 -31 122 -31q55 0 98 8.5t79 28t67.5 52t62.5 81.5q37 56 54 111t17 125l-154 -15v-71q0 -278 -140 -302q58 37 58 110q0 87 -78 204q-88 134 -88 264q0 128 98 128q93 0 132 -138h150
q-9 34 -32 62.5t-57 48.5t-76.5 31.5t-90.5 11.5q-60 0 -105 -18.5t-75 -52t-45 -81t-15 -105.5q0 -52 19.5 -99.5t66.5 -103.5q12 -15 36 -36.5t48 -47.5t42 -54.5t18 -57.5q0 -31 -15 -48t-41 -19h-7z" />
    <glyph glyph-name="afii10036" unicode="&#x422;" horiz-adv-x="706" 
d="M282 720v-708h-218v-12h582v12h-218v708h82v-159q0 -10 22.5 -27t51.5 -33t56 -27.5t36 -11.5q-17 23 -23.5 44t-6.5 55v171h-582v-171q0 -34 -8 -54.5t-26 -40.5q7 0 22.5 5t34.5 13t39 18.5t36.5 21t27 20.5t10.5 17v159h82z" />
    <glyph glyph-name="afii10037" unicode="&#x423;" horiz-adv-x="634" 
d="M196 720h8v12h-174v-12h18l204 -536q-95 -15 -95 -36q0 -14 20 -23.5t47 -22.5q27 74 192 80q-21 -76 -48 -112q-21 -24 -53 -39t-70 -15q-25 0 -25 16l6 26q0 13 -22 13q-9 0 -27.5 -2t-37.5 -6.5t-33 -12.5t-14 -20q0 -13 12.5 -20t30.5 -10.5t37.5 -4.5t33.5 -1
q74 0 144 32q101 46 152 352q45 267 102 354h-190v-12h8q-1 -5 -1 -30q0 -37 2.5 -113t7.5 -191q1 -12 1 -23v-21q0 -39 -3 -76t-11 -72h-22z" />
    <glyph glyph-name="afii10038" unicode="&#x424;" horiz-adv-x="860" 
d="M178 0h506v12h-180v111q41 -22 164 -22q104 0 130 29q32 33 32 84q0 136 -209 345q-79 79 -107 159q11 0 26 -5.5t28.5 -13t23 -15t9.5 -10.5l-3 -7q0 -1 5 -1q39 14 60 33.5t21 32.5h-506q0 -2 5 -12.5t15 -22.5t24.5 -21.5t34.5 -9.5q4 0 6 2q-2 2 -2 6q0 5 9 12.5
t22 14.5t28 12t26 5q-21 -64 -107 -157q-209 -221 -209 -350q0 -48 30 -81q27 -28 128 -28q117 0 168 21v-111h-178v-12zM356 139q-22 -20 -76 -20q-27 0 -46.5 11.5t-31.5 31.5t-18 46.5t-6 55.5q0 155 94 281q65 100 84 137v-543zM624 130q-19 -11 -48 -11q-47 0 -72 20
v543q51 -95 83 -140q97 -134 97 -284q0 -95 -60 -128z" />
    <glyph glyph-name="afii10039" unicode="&#x425;" horiz-adv-x="622" 
d="M250 452l152 -440h-8v-12h198v12h-38l-202 521q65 62 106 108.5t58 78.5h76v12h-202v-12h8q2 -6 3 -12.5t1 -14.5q0 -77 -58 -141l-62 168h8v12h-260v-12h106l104 -247q-88 -132 -120 -199q-32 -66 -50.5 -131t-23.5 -131h-16v-12h216v12h-8q-58 89 -58 190q0 110 70 250
z" />
    <glyph glyph-name="afii10040" unicode="&#x426;" horiz-adv-x="662" 
d="M384 52q-36 -2 -73 -5.5t-75 -10.5v684h8v12h-214v-12h58v-709l-58 -9v-20q49 9 94.5 17t90.5 15t90.5 11t94.5 4q151 0 151 -35q0 -3 -2 -5.5t-4 -6.5l1.5 -0.5t3.5 -0.5q37 12 59.5 29.5t22.5 28.5q0 4 -14.5 7t-32.5 5t-34 2.5t-19 0.5v666h58v12h-214v-12h8v-668z
" />
    <glyph glyph-name="afii10041" unicode="&#x427;" horiz-adv-x="622" 
d="M386 179q-21 37 -108 132q-66 73 -66 204q0 112 48 205h8v12h-238v-12h56q-11 -29 -15.5 -58t-4.5 -57q0 -173 178 -310q142 -109 142 -213v-70h-174v-12h380v12h-60v708h60v12h-214v-12h8v-541z" />
    <glyph glyph-name="afii10042" unicode="&#x428;" horiz-adv-x="916" 
d="M678 720v-696q-20 -10 -90 -10q-56 0 -56 10v696h8v12h-164v-12h8v-696q-23 -10 -92 -10q-56 0 -56 10v696h8v12h-214v-12h58v-708h-58v-12h856v12h-60v708h60v12h-216v-12h8z" />
    <glyph glyph-name="afii10043" unicode="&#x429;" horiz-adv-x="916" 
d="M532 44v676h8v12h-164v-12h8v-676q-51 -2 -88 -4.5t-60 -5.5v686h8v12h-214v-12h58v-707q-24 -5 -38.5 -8t-19.5 -5v-14q32 3 65.5 5t66.5 2q41 0 80 -8.5t76 -18.5t71.5 -18.5t66.5 -8.5q34 0 68 8.5t69 18t72 18t76 8.5q65 0 143 -6v14q-12 3 -26.5 6t-31.5 7v707h60
v12h-216v-12h8v-685q-54 6 -146 9z" />
    <glyph glyph-name="afii10044" unicode="&#x42a;" horiz-adv-x="586" 
d="M371 718q-71 -51 -126 -111t-95 -135q-37 -69 -48.5 -184t-11.5 -276h-60v-12h502q24 64 24 127q0 55 -23.5 106.5t-59 100.5t-78 96t-79.5 95q23 36 56 72.5t80 74.5q20 16 41.5 31t44.5 29h-378q0 -5 5.5 -17t15.5 -24t25 -21.5t35 -9.5q2 0 4 2q-3 3 -3 8q0 8 12 16
t31 14.5t42 12t44 7.5v-2zM362 12h-124q-2 26 -3 54t-1 59q0 278 64 363q24 -35 44.5 -63t36 -57t24.5 -64t9 -84q0 -115 -50 -208z" />
    <glyph glyph-name="afii10046" unicode="&#x42c;" horiz-adv-x="584" 
d="M236 720h57v12h-263v-12h58v-708h-58v-12h502q11 33 16.5 64.5t5.5 62.5q0 173 -179 310q-139 108 -139 213v70zM362 12h-126v541q11 -19 36.5 -51.5t69.5 -80.5q66 -74 66 -204q0 -110 -46 -205z" />
    <glyph glyph-name="afii10047" unicode="&#x42d;" horiz-adv-x="574" 
d="M386 513q3 -15 5.5 -37t4 -46t2.5 -48t1 -44q0 -300 -155 -324q60 36 60 111q0 46 -24 104.5t-66 116.5l-140 -17q4 -19 19 -38t35 -39t42.5 -40.5t41 -43t30.5 -47t12 -50.5t-11.5 -40.5t-39.5 -16.5q-27 0 -27 19v6t2 16q0 16 -17 16q-12 0 -32 -3.5t-38.5 -9
t-32.5 -13t-14 -15.5q0 -12 13 -19.5t31 -11t37.5 -4.5t32.5 -1q107 0 164 30q43 22 83 62.5t71 90t49.5 102.5t18.5 100q0 72 -15 137t-49 114t-87.5 77.5t-130.5 28.5q-208 0 -232 -210h112q-6 34 -6 65q0 69 23.5 98.5t74.5 29.5q111 0 150 -192q-275 -13 -275 -53
q0 -14 19.5 -23t47.5 -22l-1 4q0 22 59 45q33 12 70.5 21t81.5 14z" />
    <glyph glyph-name="afii10048" unicode="&#x42e;" horiz-adv-x="886" 
d="M334 486v-31t2 -25q5 -34 25 -69.5t48 -71t60.5 -69t62.5 -62.5q34 -34 34 -87q0 -37 -17.5 -47t-44.5 -10q-16 0 -16 5q7 14 7 18q0 11 -20 11q-4 0 -15.5 -1.5t-23.5 -4.5t-21.5 -8.5t-9.5 -14.5q0 -6 1.5 -10.5t8 -7.5t19.5 -5t36 -2q107 0 164 30q43 22 83 62.5
t71 90t49.5 102.5t18.5 100q0 72 -15 137t-49 113.5t-87.5 77.5t-130.5 29q-111 0 -174 -67q-55 -58 -64 -159q-73 15 -100 39v171h100v12h-306v-12h58v-708h-58v-12h306v11h-100v487q20 -4 44.5 -7t53.5 -5zM522 718q7 1 12 1h12q43 0 74 -29.5t51 -80.5t30 -120.5
t10 -150.5q0 -300 -155 -324q60 36 60 110q0 87 -78 204q-90 132 -90 264q0 113 74 126z" />
    <glyph glyph-name="afii10049" unicode="&#x42f;" horiz-adv-x="586" 
d="M340 12h-8v-12h224v12h-68v634q0 31 -9 49t-26.5 27.5t-44 12.5t-62.5 3q-38 0 -80 -3t-77.5 -15t-59 -36t-23.5 -67q0 -54 32.5 -80t81.5 -26q23 0 45 3.5t45 11.5q-18 -20 -43.5 -41.5t-57.5 -46.5q-179 -137 -179 -311q0 -61 24 -127h178v12h-8q-48 93 -48 205
q0 132 68 204q76 83 96 121v-530zM340 602q0 -32 -9 -45.5t-35 -13.5q-16 0 -33 6t-31.5 17.5t-24 28t-9.5 38.5q0 20 8.5 36t22.5 27t32.5 17t38.5 6q37 0 40 -24v-93z" />
    <glyph glyph-name="afii10065" unicode="&#x430;" horiz-adv-x="622" 
d="M386 12h-8v-12h214v12h-60v708h60v12h-379q-1 -1 -1 -4q0 -6 5.5 -17.5t16 -23t25.5 -19.5t33 -8q3 0 5 2q-2 1 -2 5q0 10 20.5 27.5t60.5 23.5h10v-68q0 -103 -142 -213q-178 -137 -178 -310q0 -28 4.5 -57t15.5 -58h-56v-12h238v12h-8q-24 43 -36 98q12 46 162 69v-167
zM386 196q-57 -3 -100 -7.5t-72 -11.5q-2 10 -2 19v19q0 132 66 206q87 94 108 132v-357z" />
    <glyph glyph-name="afii10066" unicode="&#x431;" horiz-adv-x="584" 
d="M236 650v70h88v-70q0 -3 5.5 -13.5t15 -23t22 -26.5t26.5 -24q39 -28 67 -43t48 -18q-43 38 -43 100v130h-435v-12h58v-708h-58v-12h502q11 33 16.5 64.5t5.5 62.5q0 173 -179 310q-139 108 -139 213zM362 12h-126v541q11 -19 36.5 -51.5t69.5 -80.5q66 -74 66 -204
q0 -110 -46 -205z" />
    <glyph glyph-name="afii10067" unicode="&#x432;" horiz-adv-x="586" 
d="M276 526q9 -4 17.5 -8t28.5 -4q41 0 71 9t55 27q17 12 24.5 27t7.5 33q0 37 -24 62t-60 39.5t-78 20.5t-78 6q-66 0 -104 -19.5t-38 -72.5v-634h-68v-12h502q24 66 24 127q0 173 -179 310q-65 50 -101 89zM246 12v530q12 -20 36 -49.5t62 -71.5q66 -74 66 -204
q0 -112 -48 -205h-116zM246 689q0 12 10 21t30 9q31 0 42.5 -21t11.5 -61q0 -45 -9 -70t-39 -25q-17 0 -30 8q-16 11 -16 52v87z" />
    <glyph glyph-name="afii10068" unicode="&#x433;" horiz-adv-x="544" 
d="M326 720v-118q0 -5 5.5 -14.5t16 -22t25 -26.5t32.5 -27q35 -25 61.5 -39.5t47.5 -19.5q-12 15 -20 27.5t-13 25t-7 25.5t-2 30v171h-442v-12h58v-708h-58v-12h442v12h-236v708h90z" />
    <glyph glyph-name="afii10069" unicode="&#x434;" horiz-adv-x="712" 
d="M567 54v666h60v12h-379q-2 -2 -2 -4q0 -6 6 -17.5t16.5 -23t25 -19.5t32.5 -8q2 0 6 2q-3 2 -3 6q0 6 7 13.5t18 15.5t26 14t32 9h9v-70q0 -104 -141 -213q-179 -137 -179 -278q0 -50 18 -108q-17 -3 -32.5 -4t-28.5 -2.5t-20.5 -3t-7.5 -5.5l6 -9t16.5 -19.5t25.5 -19.5
t33 -9q2 0 4 2q-2 4 -2 10q0 25 82 43q36 8 76 12t84 4t84 -4t78 -12q84 -18 84 -43q0 -6 -5 -11l5 -2q18 0 33 9t25.5 19.5t16.5 19.5l6 9q0 3 -1 5q-23 5 -51 8t-63 6zM291 62q-44 85 -44 176q0 109 66 183q87 94 108 132v-491h-130z" />
    <glyph glyph-name="afii10070" unicode="&#x435;" horiz-adv-x="586" 
d="M152 497q-8 25 -12 48t-4 45q0 128 106 128q96 0 126 -114h148q-36 130 -246 130q-58 0 -103 -18.5t-75.5 -52.5t-46 -80.5t-15.5 -103.5q0 -28 4 -52t14 -47.5t26.5 -48.5t41.5 -55q20 -23 48 -53t65 -65q37 -36 37 -89q0 -50 -42 -54q-4 -1 -12 -1q-11 0 -17.5 4.5
t-6.5 11.5q0 5 5 14.5t5 16.5q0 10 -18 10q-27 -7 -50 -13t-42 -11q-11 0 -18.5 -7.5t-7.5 -12.5q0 -31 122 -31q55 0 99.5 8.5t80.5 28.5t66 53t57 82q29 54 46.5 117t22.5 137l-142 -11v-46q0 -70 -3.5 -121.5t-11.5 -86.5q-31 -133 -131 -142q60 33 60 97q0 70 -70 186
q-87 143 -102 184q303 11 303 49q0 19 -27.5 29.5t-65.5 16.5l1 -4q0 -23 -63 -44q-32 -11 -69.5 -19t-82.5 -13z" />
    <glyph glyph-name="afii10072" unicode="&#x436;" horiz-adv-x="916" 
d="M678 720q5 -14 6.5 -29t1.5 -31q0 -65 -38 -87t-72 -22q-16 0 -30 7q-14 11 -14 30v132h8v12h-162v-12h8v-132q0 -19 -14 -30q-6 -3 -13.5 -5t-18.5 -2q-35 0 -72 23q-38 22 -38 89q0 15 1.5 29t6.5 28h8v12h-138q-5 -17 -7.5 -34t-2.5 -34q0 -84 46 -113
q26 -16 58 -23.5t70 -7.5q39 0 74 11q-35 -31 -60 -53t-42 -37q-178 -139 -178 -314q0 -28 4.5 -57t15.5 -58h-56v-12h238v12h-8q-48 93 -48 206q0 132 66 206q48 53 75 82.5t33 35.5v-530h-8v-12h162v12h-8v531q32 -36 57.5 -66t48.5 -53q68 -72 68 -206q0 -113 -48 -206
h-8v-12h236v12h-54q11 29 15.5 58t4.5 57q0 175 -180 315q-41 32 -67.5 55t-40.5 36q38 -13 82 -13q38 0 70 7.5t58 23.5q44 28 44 113q0 18 -1.5 34.5t-6.5 33.5h-140v-12h8z" />
    <glyph glyph-name="afii10073" unicode="&#x437;" horiz-adv-x="471" 
d="M161 146q-14 -12 -36.5 -33.5t-57.5 -50.5q-37 -33 -37 -44q0 -12 42 -17t107 -5q34 0 70 15q38 16 38 27q0 6 -10 8q-41 11 -64.5 17t-29.5 8q-20 0 -20 -9q0 -5 5 -16t5 -16q0 -16 -34 -16q-50 0 -50 19q0 18 102 101q38 30 78.5 73t73.5 91t54.5 98t21.5 95
q0 20 -3.5 37t-13.5 29t-27.5 18.5t-44.5 6.5q-23 0 -47.5 -7.5t-51.5 -10.5l210 168h-410q0 -6 5.5 -18t16 -24t25.5 -21t34 -9q2 0 4 2q-2 3 -2 8q0 7 14.5 16t35.5 17t45.5 13t45.5 5q10 0 14 -1l-238 -190q53 9 92 14t66 5q22 0 36.5 -11.5t23 -28.5t11.5 -38.5t3 -40.5
q0 -37 -4 -73.5t-15.5 -71.5t-31.5 -70t-51 -69z" />
    <glyph glyph-name="afii10074" unicode="&#x438;" 
d="M236 116q81 72 128 72q20 0 20 -20v-156h-8v-12h214v12h-58v708h58v12h-214v-12h8v-486q-28 -6 -68 -27q-55 -29 -80 -73v586h8v12h-214v-12h58v-708h-58v-12h214v12h-8v104z" />
    <glyph glyph-name="afii10075" unicode="&#x439;" horiz-adv-x="621" 
d="M384 12h-8v-12h214v12h-58v711h59v12h-214v-12h8v-489q-29 -6 -69 -27q-55 -29 -80 -73v589h9v12h-214v-12h58v-711h-59v-12h214v12h-8v104q81 72 128 72q20 0 20 -20v-156zM314 769q33 0 61 1t49 5t32.5 11.5t11.5 21.5q0 18 -12 42.5t-31 37.5q-3 0 -3 -3l3 -16
q0 -25 -14.5 -40.5t-34 -24t-38.5 -11.5t-27 -3q-9 0 -27.5 2.5t-38 10.5t-34 23t-14.5 40q0 4 1 9t3 10q-1 2 -4 2q-9 0 -17 -11t-13.5 -24.5t-8.5 -26.5t-3 -17q0 -14 16.5 -22t40 -11.5t49.5 -4.5t46 -1h7z" />
    <glyph glyph-name="afii10076" unicode="&#x43a;" 
d="M236 538q39 -41 70.5 -73t54 -66t35 -76.5t12.5 -104.5q0 -57 -11.5 -108t-34.5 -98h-8v-12h236v12h-54q18 58 18 115t-24.5 114.5t-64.5 110.5t-91.5 98t-105.5 77q38 -13 82 -13q51 0 84 9.5t52.5 32.5t27.5 63t8 101h50v12h-190q5 -14 7.5 -30.5t2.5 -33.5
q0 -62 -30.5 -92t-81.5 -30q-18 0 -31 9t-13 27v138h8v12h-214v-12h58v-708h-58v-12h214v12h-8v526z" />
    <glyph glyph-name="afii10077" unicode="&#x43b;" horiz-adv-x="622" 
d="M260 12q-48 93 -48 205q0 130 66 204q87 94 108 132v-541h-8v-12h214v12h-60v708h60v12h-380q0 -6 5.5 -18t16 -24t25.5 -21t33 -9q2 0 6 2q-2 1 -2 5q0 6 7 14t19 15.5t28.5 14t34.5 9.5h1v-70q0 -104 -142 -213q-178 -137 -178 -310q0 -28 4.5 -57t15.5 -58h-56v-12
h238v12h-8z" />
    <glyph glyph-name="afii10078" unicode="&#x43c;" horiz-adv-x="916" 
d="M678 12h-8v-12h216v12h-60v708h60v12h-216v-12h8v-106q0 -1 -13 -16.5t-34 -42.5t-46 -63.5t-49 -79.5t-44 -90.5t-30 -96.5q-5 50 -23 98t-43.5 90.5t-53.5 79t-51.5 63.5t-39 43t-15.5 17v104h8v12h-214v-12h58v-708h-58v-12h214v12h-8v569q49 -74 78 -132t44 -109
t19.5 -98t4.5 -99v-131h-8v-12h168v12h-8v45q0 65 1 114.5t5 89.5t13 74.5t25 71t40.5 77.5t59.5 94v-566z" />
    <glyph glyph-name="afii10079" unicode="&#x43d;" 
d="M236 522q27 -8 64 -12t84 -4v-494h-8v-12h214v12h-58v708h58v12h-214v-12h8v-196q-101 8 -148 49v147h8v12h-214v-12h58v-708h-58v-12h214v12h-8v510z" />
    <glyph glyph-name="afii10080" unicode="&#x43e;" horiz-adv-x="582" 
d="M230 158q34 -34 34 -87q0 -31 -13.5 -44t-37.5 -13q-27 0 -27 19v22q0 16 -20 16q-9 0 -28 -3t-38 -8.5t-33.5 -13t-14.5 -16.5q0 -12 13.5 -19t32 -11t38 -5t32.5 -1q111 0 185 30t118 81.5t62.5 122t18.5 151.5q0 73 -14.5 137.5t-48 113.5t-87.5 77.5t-132 28.5
q-58 0 -102.5 -19t-75 -53t-46.5 -81.5t-16 -103.5q0 -53 19 -99t67 -104q20 -23 48 -53t66 -65zM220 718q8 1 12 1h10q37 0 67 -20.5t51.5 -61t33.5 -102t12 -142.5q0 -175 -33.5 -270.5t-118.5 -108.5q58 37 58 110q0 87 -78 204q-88 134 -88 264q0 113 74 126z" />
    <glyph glyph-name="afii10081" unicode="&#x43f;" 
d="M384 700v-688h-8v-12h214v12h-58v708h58v12h-560v-12h58v-708h-58v-12h214v12h-8v697q16 1 27.5 4t37.5 3q45 0 64 -5.5t19 -10.5z" />
    <glyph glyph-name="afii10082" unicode="&#x440;" horiz-adv-x="598" 
d="M258 132q0 28 104 129q40 39 77 74.5t65.5 70.5t46 72.5t17.5 79.5q0 34 -16 60t-42.5 45.5t-61.5 33t-72.5 22t-75.5 12t-70 3.5q-37 0 -63.5 -2.5t-43.5 -12.5t-25 -28.5t-8 -51.5v-627h-60v-12h380v12h-174v97q35 -19 84 -19q29 0 47 3t27.5 7.5t12.5 11t3 12.5
q0 11 -10.5 19t-25 13t-29 7.5t-21.5 2.5q-18 0 -18 -11q0 -2 2 -7t4 -11t4 -11t2 -8q0 -9 -14 -9q-5 0 -12.5 1t-15 3.5t-13 6.5t-5.5 10v2zM326 702q84 -36 84 -164q0 -145 -82 -260q-43 -59 -66.5 -96.5t-25.5 -54.5v562q0 25 38 25q25 0 52 -12z" />
    <glyph glyph-name="afii10083" unicode="&#x441;" horiz-adv-x="578" 
d="M197 13q-21 0 -21 13l8 34q0 11 -20 11q-55 -13 -94 -25q-22 -6 -22 -19q0 -31 122 -31q55 0 98 8.5t79 28t67.5 52t62.5 81.5q37 56 54 111t17 125l-154 -15v-71q0 -278 -140 -302q58 37 58 110q0 87 -78 204q-88 134 -88 264q0 128 98 128q93 0 132 -138h150
q-9 34 -32 62.5t-57 48.5t-76.5 31.5t-90.5 11.5q-60 0 -105 -18.5t-75 -52t-45 -81t-15 -105.5q0 -52 19.5 -99.5t66.5 -103.5q12 -15 36 -36.5t48 -47.5t42 -54.5t18 -57.5q0 -31 -15 -48t-41 -19h-7z" />
    <glyph glyph-name="afii10084" unicode="&#x442;" horiz-adv-x="706" 
d="M282 720v-708h-218v-12h582v12h-218v708h82v-159q0 -10 22.5 -27t51.5 -33t56 -27.5t36 -11.5q-17 23 -23.5 44t-6.5 55v171h-582v-171q0 -34 -8 -54.5t-26 -40.5q7 0 22.5 5t34.5 13t39 18.5t36.5 21t27 20.5t10.5 17v159h82z" />
    <glyph glyph-name="afii10085" unicode="&#x443;" horiz-adv-x="634" 
d="M196 720h8v12h-174v-12h18l204 -536q-95 -15 -95 -36q0 -14 20 -23.5t47 -22.5q27 74 192 80q-21 -76 -48 -112q-21 -24 -53 -39t-70 -15q-25 0 -25 16l6 26q0 13 -22 13q-9 0 -27.5 -2t-37.5 -6.5t-33 -12.5t-14 -20q0 -13 12.5 -20t30.5 -10.5t37.5 -4.5t33.5 -1
q74 0 144 32q101 46 152 352q45 267 102 354h-190v-12h8q-1 -5 -1 -30q0 -37 2.5 -113t7.5 -191q1 -12 1 -23v-21q0 -39 -3 -76t-11 -72h-22z" />
    <glyph glyph-name="afii10086" unicode="&#x444;" horiz-adv-x="860" 
d="M178 0h506v12h-180v111q41 -22 164 -22q104 0 130 29q32 33 32 84q0 136 -209 345q-79 79 -107 159q11 0 26 -5.5t28.5 -13t23 -15t9.5 -10.5l-3 -7q0 -1 5 -1q39 14 60 33.5t21 32.5h-506q0 -2 5 -12.5t15 -22.5t24.5 -21.5t34.5 -9.5q4 0 6 2q-2 2 -2 6q0 5 9 12.5
t22 14.5t28 12t26 5q-21 -64 -107 -157q-209 -221 -209 -350q0 -48 30 -81q27 -28 128 -28q117 0 168 21v-111h-178v-12zM356 139q-22 -20 -76 -20q-27 0 -46.5 11.5t-31.5 31.5t-18 46.5t-6 55.5q0 155 94 281q65 100 84 137v-543zM624 130q-19 -11 -48 -11q-47 0 -72 20
v543q51 -95 83 -140q97 -134 97 -284q0 -95 -60 -128z" />
    <glyph glyph-name="afii10087" unicode="&#x445;" horiz-adv-x="622" 
d="M250 452l152 -440h-8v-12h198v12h-38l-202 521q65 62 106 108.5t58 78.5h76v12h-202v-12h8q2 -6 3 -12.5t1 -14.5q0 -77 -58 -141l-62 168h8v12h-260v-12h106l104 -247q-88 -132 -120 -199q-32 -66 -50.5 -131t-23.5 -131h-16v-12h216v12h-8q-58 89 -58 190q0 110 70 250
z" />
    <glyph glyph-name="afii10088" unicode="&#x446;" horiz-adv-x="662" 
d="M384 52q-36 -2 -73 -5.5t-75 -10.5v684h8v12h-214v-12h58v-709l-58 -9v-20q49 9 94.5 17t90.5 15t90.5 11t94.5 4q151 0 151 -35q0 -3 -2 -5.5t-4 -6.5l1.5 -0.5t3.5 -0.5q37 12 59.5 29.5t22.5 28.5q0 4 -14.5 7t-32.5 5t-34 2.5t-19 0.5v666h58v12h-214v-12h8v-668z
" />
    <glyph glyph-name="afii10089" unicode="&#x447;" horiz-adv-x="622" 
d="M386 179q-21 37 -108 132q-66 73 -66 204q0 112 48 205h8v12h-238v-12h56q-11 -29 -15.5 -58t-4.5 -57q0 -173 178 -310q142 -109 142 -213v-70h-174v-12h380v12h-60v708h60v12h-214v-12h8v-541z" />
    <glyph glyph-name="afii10090" unicode="&#x448;" horiz-adv-x="916" 
d="M678 720v-696q-20 -10 -90 -10q-56 0 -56 10v696h8v12h-164v-12h8v-696q-23 -10 -92 -10q-56 0 -56 10v696h8v12h-214v-12h58v-708h-58v-12h856v12h-60v708h60v12h-216v-12h8z" />
    <glyph glyph-name="afii10091" unicode="&#x449;" horiz-adv-x="916" 
d="M532 44v676h8v12h-164v-12h8v-676q-51 -2 -88 -4.5t-60 -5.5v686h8v12h-214v-12h58v-707q-24 -5 -38.5 -8t-19.5 -5v-14q32 3 65.5 5t66.5 2q41 0 80 -8.5t76 -18.5t71.5 -18.5t66.5 -8.5q34 0 68 8.5t69 18t72 18t76 8.5q65 0 143 -6v14q-12 3 -26.5 6t-31.5 7v707h60
v12h-216v-12h8v-685q-54 6 -146 9z" />
    <glyph glyph-name="afii10092" unicode="&#x44a;" horiz-adv-x="586" 
d="M371 718q-71 -51 -126 -111t-95 -135q-37 -69 -48.5 -184t-11.5 -276h-60v-12h502q24 64 24 127q0 55 -23.5 106.5t-59 100.5t-78 96t-79.5 95q23 36 56 72.5t80 74.5q20 16 41.5 31t44.5 29h-378q0 -5 5.5 -17t15.5 -24t25 -21.5t35 -9.5q2 0 4 2q-3 3 -3 8q0 8 12 16
t31 14.5t42 12t44 7.5v-2zM362 12h-124q-2 26 -3 54t-1 59q0 278 64 363q24 -35 44.5 -63t36 -57t24.5 -64t9 -84q0 -115 -50 -208z" />
    <glyph glyph-name="afii10094" unicode="&#x44c;" horiz-adv-x="584" 
d="M236 720h57v12h-263v-12h58v-708h-58v-12h502q11 33 16.5 64.5t5.5 62.5q0 173 -179 310q-139 108 -139 213v70zM362 12h-126v541q11 -19 36.5 -51.5t69.5 -80.5q66 -74 66 -204q0 -110 -46 -205z" />
    <glyph glyph-name="afii10095" unicode="&#x44d;" horiz-adv-x="574" 
d="M386 513q3 -15 5.5 -37t4 -46t2.5 -48t1 -44q0 -300 -155 -324q60 36 60 111q0 46 -24 104.5t-66 116.5l-140 -17q4 -19 19 -38t35 -39t42.5 -40.5t41 -43t30.5 -47t12 -50.5t-11.5 -40.5t-39.5 -16.5q-27 0 -27 19v6t2 16q0 16 -17 16q-12 0 -32 -3.5t-38.5 -9
t-32.5 -13t-14 -15.5q0 -12 13 -19.5t31 -11t37.5 -4.5t32.5 -1q107 0 164 30q43 22 83 62.5t71 90t49.5 102.5t18.5 100q0 72 -15 137t-49 114t-87.5 77.5t-130.5 28.5q-208 0 -232 -210h112q-6 34 -6 65q0 69 23.5 98.5t74.5 29.5q111 0 150 -192q-275 -13 -275 -53
q0 -14 19.5 -23t47.5 -22l-1 4q0 22 59 45q33 12 70.5 21t81.5 14z" />
    <glyph glyph-name="afii10096" unicode="&#x44e;" horiz-adv-x="886" 
d="M334 486v-31t2 -25q5 -34 25 -69.5t48 -71t60.5 -69t62.5 -62.5q34 -34 34 -87q0 -37 -17.5 -47t-44.5 -10q-16 0 -16 5q7 14 7 18q0 11 -20 11q-4 0 -15.5 -1.5t-23.5 -4.5t-21.5 -8.5t-9.5 -14.5q0 -6 1.5 -10.5t8 -7.5t19.5 -5t36 -2q107 0 164 30q43 22 83 62.5
t71 90t49.5 102.5t18.5 100q0 72 -15 137t-49 113.5t-87.5 77.5t-130.5 29q-111 0 -174 -67q-55 -58 -64 -159q-73 15 -100 39v171h100v12h-306v-12h58v-708h-58v-12h306v11h-100v487q20 -4 44.5 -7t53.5 -5zM522 718q7 1 12 1h12q43 0 74 -29.5t51 -80.5t30 -120.5
t10 -150.5q0 -300 -155 -324q60 36 60 110q0 87 -78 204q-90 132 -90 264q0 113 74 126z" />
    <glyph glyph-name="afii10097" unicode="&#x44f;" horiz-adv-x="586" 
d="M340 12h-8v-12h224v12h-68v634q0 31 -9 49t-26.5 27.5t-44 12.5t-62.5 3q-38 0 -80 -3t-77.5 -15t-59 -36t-23.5 -67q0 -54 32.5 -80t81.5 -26q23 0 45 3.5t45 11.5q-18 -20 -43.5 -41.5t-57.5 -46.5q-179 -137 -179 -311q0 -61 24 -127h178v12h-8q-48 93 -48 205
q0 132 68 204q76 83 96 121v-530zM340 602q0 -32 -9 -45.5t-35 -13.5q-16 0 -33 6t-31.5 17.5t-24 28t-9.5 38.5q0 20 8.5 36t22.5 27t32.5 17t38.5 6q37 0 40 -24v-93z" />
    <glyph glyph-name="space" unicode="&#xf020;" horiz-adv-x="62" 
 />
    <glyph glyph-name="Agrave" unicode="&#xf0c0;" horiz-adv-x="622" 
d="M386 12h-8v-12h214v12h-60v708h60v12h-379q-1 -1 -1 -4q0 -6 5.5 -17.5t16 -23t25.5 -19.5t33 -8q3 0 5 2q-2 1 -2 5q0 10 20.5 27.5t60.5 23.5h10v-68q0 -103 -142 -213q-178 -137 -178 -310q0 -28 4.5 -57t15.5 -58h-56v-12h238v12h-8q-24 43 -36 98q12 46 162 69v-167
zM386 196q-57 -3 -100 -7.5t-72 -11.5q-2 10 -2 19v19q0 132 66 206q87 94 108 132v-357z" />
    <glyph glyph-name="Aacute" unicode="&#xf0c1;" horiz-adv-x="584" 
d="M236 650v70h88v-70q0 -3 5.5 -13.5t15 -23t22 -26.5t26.5 -24q39 -28 67 -43t48 -18q-43 38 -43 100v130h-435v-12h58v-708h-58v-12h502q11 33 16.5 64.5t5.5 62.5q0 173 -179 310q-139 108 -139 213zM362 12h-126v541q11 -19 36.5 -51.5t69.5 -80.5q66 -74 66 -204
q0 -110 -46 -205z" />
    <glyph glyph-name="Acircumflex" unicode="&#xf0c2;" horiz-adv-x="586" 
d="M276 526q9 -4 17.5 -8t28.5 -4q41 0 71 9t55 27q17 12 24.5 27t7.5 33q0 37 -24 62t-60 39.5t-78 20.5t-78 6q-66 0 -104 -19.5t-38 -72.5v-634h-68v-12h502q24 66 24 127q0 173 -179 310q-65 50 -101 89zM246 12v530q12 -20 36 -49.5t62 -71.5q66 -74 66 -204
q0 -112 -48 -205h-116zM246 689q0 12 10 21t30 9q31 0 42.5 -21t11.5 -61q0 -45 -9 -70t-39 -25q-17 0 -30 8q-16 11 -16 52v87z" />
    <glyph glyph-name="Atilde" unicode="&#xf0c3;" horiz-adv-x="544" 
d="M326 720v-118q0 -5 5.5 -14.5t16 -22t25 -26.5t32.5 -27q35 -25 61.5 -39.5t47.5 -19.5q-12 15 -20 27.5t-13 25t-7 25.5t-2 30v171h-442v-12h58v-708h-58v-12h442v12h-236v708h90z" />
    <glyph glyph-name="Adieresis" unicode="&#xf0c4;" horiz-adv-x="712" 
d="M567 54v666h60v12h-379q-2 -2 -2 -4q0 -6 6 -17.5t16.5 -23t25 -19.5t32.5 -8q2 0 6 2q-3 2 -3 6q0 6 7 13.5t18 15.5t26 14t32 9h9v-70q0 -104 -141 -213q-179 -137 -179 -278q0 -50 18 -108q-17 -3 -32.5 -4t-28.5 -2.5t-20.5 -3t-7.5 -5.5l6 -9t16.5 -19.5t25.5 -19.5
t33 -9q2 0 4 2q-2 4 -2 10q0 25 82 43q36 8 76 12t84 4t84 -4t78 -12q84 -18 84 -43q0 -6 -5 -11l5 -2q18 0 33 9t25.5 19.5t16.5 19.5l6 9q0 3 -1 5q-23 5 -51 8t-63 6zM291 62q-44 85 -44 176q0 109 66 183q87 94 108 132v-491h-130z" />
    <glyph glyph-name="Aring" unicode="&#xf0c5;" horiz-adv-x="586" 
d="M152 497q-8 25 -12 48t-4 45q0 128 106 128q96 0 126 -114h148q-36 130 -246 130q-58 0 -103 -18.5t-75.5 -52.5t-46 -80.5t-15.5 -103.5q0 -28 4 -52t14 -47.5t26.5 -48.5t41.5 -55q20 -23 48 -53t65 -65q37 -36 37 -89q0 -50 -42 -54q-4 -1 -12 -1q-11 0 -17.5 4.5
t-6.5 11.5q0 5 5 14.5t5 16.5q0 10 -18 10q-27 -7 -50 -13t-42 -11q-11 0 -18.5 -7.5t-7.5 -12.5q0 -31 122 -31q55 0 99.5 8.5t80.5 28.5t66 53t57 82q29 54 46.5 117t22.5 137l-142 -11v-46q0 -70 -3.5 -121.5t-11.5 -86.5q-31 -133 -131 -142q60 33 60 97q0 70 -70 186
q-87 143 -102 184q303 11 303 49q0 19 -27.5 29.5t-65.5 16.5l1 -4q0 -23 -63 -44q-32 -11 -69.5 -19t-82.5 -13z" />
    <glyph glyph-name="AE" unicode="&#xf0c6;" horiz-adv-x="916" 
d="M678 720q5 -14 6.5 -29t1.5 -31q0 -65 -38 -87t-72 -22q-16 0 -30 7q-14 11 -14 30v132h8v12h-162v-12h8v-132q0 -19 -14 -30q-6 -3 -13.5 -5t-18.5 -2q-35 0 -72 23q-38 22 -38 89q0 15 1.5 29t6.5 28h8v12h-138q-5 -17 -7.5 -34t-2.5 -34q0 -84 46 -113
q26 -16 58 -23.5t70 -7.5q39 0 74 11q-35 -31 -60 -53t-42 -37q-178 -139 -178 -314q0 -28 4.5 -57t15.5 -58h-56v-12h238v12h-8q-48 93 -48 206q0 132 66 206q48 53 75 82.5t33 35.5v-530h-8v-12h162v12h-8v531q32 -36 57.5 -66t48.5 -53q68 -72 68 -206q0 -113 -48 -206
h-8v-12h236v12h-54q11 29 15.5 58t4.5 57q0 175 -180 315q-41 32 -67.5 55t-40.5 36q38 -13 82 -13q38 0 70 7.5t58 23.5q44 28 44 113q0 18 -1.5 34.5t-6.5 33.5h-140v-12h8z" />
    <glyph glyph-name="Ccedilla" unicode="&#xf0c7;" horiz-adv-x="471" 
d="M161 146q-14 -12 -36.5 -33.5t-57.5 -50.5q-37 -33 -37 -44q0 -12 42 -17t107 -5q34 0 70 15q38 16 38 27q0 6 -10 8q-41 11 -64.5 17t-29.5 8q-20 0 -20 -9q0 -5 5 -16t5 -16q0 -16 -34 -16q-50 0 -50 19q0 18 102 101q38 30 78.5 73t73.5 91t54.5 98t21.5 95
q0 20 -3.5 37t-13.5 29t-27.5 18.5t-44.5 6.5q-23 0 -47.5 -7.5t-51.5 -10.5l210 168h-410q0 -6 5.5 -18t16 -24t25.5 -21t34 -9q2 0 4 2q-2 3 -2 8q0 7 14.5 16t35.5 17t45.5 13t45.5 5q10 0 14 -1l-238 -190q53 9 92 14t66 5q22 0 36.5 -11.5t23 -28.5t11.5 -38.5t3 -40.5
q0 -37 -4 -73.5t-15.5 -71.5t-31.5 -70t-51 -69z" />
    <glyph glyph-name="Egrave" unicode="&#xf0c8;" 
d="M236 116q81 72 128 72q20 0 20 -20v-156h-8v-12h214v12h-58v708h58v12h-214v-12h8v-486q-28 -6 -68 -27q-55 -29 -80 -73v586h8v12h-214v-12h58v-708h-58v-12h214v12h-8v104z" />
    <glyph glyph-name="Ecircumflex" unicode="&#xf0ca;" 
d="M236 538q39 -41 70.5 -73t54 -66t35 -76.5t12.5 -104.5q0 -57 -11.5 -108t-34.5 -98h-8v-12h236v12h-54q18 58 18 115t-24.5 114.5t-64.5 110.5t-91.5 98t-105.5 77q38 -13 82 -13q51 0 84 9.5t52.5 32.5t27.5 63t8 101h50v12h-190q5 -14 7.5 -30.5t2.5 -33.5
q0 -62 -30.5 -92t-81.5 -30q-18 0 -31 9t-13 27v138h8v12h-214v-12h58v-708h-58v-12h214v12h-8v526z" />
    <glyph glyph-name="Edieresis" unicode="&#xf0cb;" horiz-adv-x="622" 
d="M260 12q-48 93 -48 205q0 130 66 204q87 94 108 132v-541h-8v-12h214v12h-60v708h60v12h-380q0 -6 5.5 -18t16 -24t25.5 -21t33 -9q2 0 6 2q-2 1 -2 5q0 6 7 14t19 15.5t28.5 14t34.5 9.5h1v-70q0 -104 -142 -213q-178 -137 -178 -310q0 -28 4.5 -57t15.5 -58h-56v-12
h238v12h-8z" />
    <glyph glyph-name="Igrave" unicode="&#xf0cc;" horiz-adv-x="916" 
d="M678 12h-8v-12h216v12h-60v708h60v12h-216v-12h8v-106q0 -1 -13 -16.5t-34 -42.5t-46 -63.5t-49 -79.5t-44 -90.5t-30 -96.5q-5 50 -23 98t-43.5 90.5t-53.5 79t-51.5 63.5t-39 43t-15.5 17v104h8v12h-214v-12h58v-708h-58v-12h214v12h-8v569q49 -74 78 -132t44 -109
t19.5 -98t4.5 -99v-131h-8v-12h168v12h-8v45q0 65 1 114.5t5 89.5t13 74.5t25 71t40.5 77.5t59.5 94v-566z" />
    <glyph glyph-name="Iacute" unicode="&#xf0cd;" 
d="M236 522q27 -8 64 -12t84 -4v-494h-8v-12h214v12h-58v708h58v12h-214v-12h8v-196q-101 8 -148 49v147h8v12h-214v-12h58v-708h-58v-12h214v12h-8v510z" />
    <glyph glyph-name="Icircumflex" unicode="&#xf0ce;" horiz-adv-x="582" 
d="M230 158q34 -34 34 -87q0 -31 -13.5 -44t-37.5 -13q-27 0 -27 19v22q0 16 -20 16q-9 0 -28 -3t-38 -8.5t-33.5 -13t-14.5 -16.5q0 -12 13.5 -19t32 -11t38 -5t32.5 -1q111 0 185 30t118 81.5t62.5 122t18.5 151.5q0 73 -14.5 137.5t-48 113.5t-87.5 77.5t-132 28.5
q-58 0 -102.5 -19t-75 -53t-46.5 -81.5t-16 -103.5q0 -53 19 -99t67 -104q20 -23 48 -53t66 -65zM220 718q8 1 12 1h10q37 0 67 -20.5t51.5 -61t33.5 -102t12 -142.5q0 -175 -33.5 -270.5t-118.5 -108.5q58 37 58 110q0 87 -78 204q-88 134 -88 264q0 113 74 126z" />
    <glyph glyph-name="Idieresis" unicode="&#xf0cf;" 
d="M384 700v-688h-8v-12h214v12h-58v708h58v12h-560v-12h58v-708h-58v-12h214v12h-8v697q16 1 27.5 4t37.5 3q45 0 64 -5.5t19 -10.5z" />
    <glyph glyph-name="Eth" unicode="&#xf0d0;" horiz-adv-x="598" 
d="M258 132q0 28 104 129q40 39 77 74.5t65.5 70.5t46 72.5t17.5 79.5q0 34 -16 60t-42.5 45.5t-61.5 33t-72.5 22t-75.5 12t-70 3.5q-37 0 -63.5 -2.5t-43.5 -12.5t-25 -28.5t-8 -51.5v-627h-60v-12h380v12h-174v97q35 -19 84 -19q29 0 47 3t27.5 7.5t12.5 11t3 12.5
q0 11 -10.5 19t-25 13t-29 7.5t-21.5 2.5q-18 0 -18 -11q0 -2 2 -7t4 -11t4 -11t2 -8q0 -9 -14 -9q-5 0 -12.5 1t-15 3.5t-13 6.5t-5.5 10v2zM326 702q84 -36 84 -164q0 -145 -82 -260q-43 -59 -66.5 -96.5t-25.5 -54.5v562q0 25 38 25q25 0 52 -12z" />
    <glyph glyph-name="Ntilde" unicode="&#xf0d1;" horiz-adv-x="578" 
d="M197 13q-21 0 -21 13l8 34q0 11 -20 11q-55 -13 -94 -25q-22 -6 -22 -19q0 -31 122 -31q55 0 98 8.5t79 28t67.5 52t62.5 81.5q37 56 54 111t17 125l-154 -15v-71q0 -278 -140 -302q58 37 58 110q0 87 -78 204q-88 134 -88 264q0 128 98 128q93 0 132 -138h150
q-9 34 -32 62.5t-57 48.5t-76.5 31.5t-90.5 11.5q-60 0 -105 -18.5t-75 -52t-45 -81t-15 -105.5q0 -52 19.5 -99.5t66.5 -103.5q12 -15 36 -36.5t48 -47.5t42 -54.5t18 -57.5q0 -31 -15 -48t-41 -19h-7z" />
    <glyph glyph-name="Ograve" unicode="&#xf0d2;" horiz-adv-x="706" 
d="M282 720v-708h-218v-12h582v12h-218v708h82v-159q0 -10 22.5 -27t51.5 -33t56 -27.5t36 -11.5q-17 23 -23.5 44t-6.5 55v171h-582v-171q0 -34 -8 -54.5t-26 -40.5q7 0 22.5 5t34.5 13t39 18.5t36.5 21t27 20.5t10.5 17v159h82z" />
    <glyph glyph-name="Oacute" unicode="&#xf0d3;" horiz-adv-x="634" 
d="M196 720h8v12h-174v-12h18l204 -536q-95 -15 -95 -36q0 -14 20 -23.5t47 -22.5q27 74 192 80q-21 -76 -48 -112q-21 -24 -53 -39t-70 -15q-25 0 -25 16l6 26q0 13 -22 13q-9 0 -27.5 -2t-37.5 -6.5t-33 -12.5t-14 -20q0 -13 12.5 -20t30.5 -10.5t37.5 -4.5t33.5 -1
q74 0 144 32q101 46 152 352q45 267 102 354h-190v-12h8q-1 -5 -1 -30q0 -37 2.5 -113t7.5 -191q1 -12 1 -23v-21q0 -39 -3 -76t-11 -72h-22z" />
    <glyph glyph-name="Ocircumflex" unicode="&#xf0d4;" horiz-adv-x="860" 
d="M178 0h506v12h-180v111q41 -22 164 -22q104 0 130 29q32 33 32 84q0 136 -209 345q-79 79 -107 159q11 0 26 -5.5t28.5 -13t23 -15t9.5 -10.5l-3 -7q0 -1 5 -1q39 14 60 33.5t21 32.5h-506q0 -2 5 -12.5t15 -22.5t24.5 -21.5t34.5 -9.5q4 0 6 2q-2 2 -2 6q0 5 9 12.5
t22 14.5t28 12t26 5q-21 -64 -107 -157q-209 -221 -209 -350q0 -48 30 -81q27 -28 128 -28q117 0 168 21v-111h-178v-12zM356 139q-22 -20 -76 -20q-27 0 -46.5 11.5t-31.5 31.5t-18 46.5t-6 55.5q0 155 94 281q65 100 84 137v-543zM624 130q-19 -11 -48 -11q-47 0 -72 20
v543q51 -95 83 -140q97 -134 97 -284q0 -95 -60 -128z" />
    <glyph glyph-name="Otilde" unicode="&#xf0d5;" horiz-adv-x="622" 
d="M250 452l152 -440h-8v-12h198v12h-38l-202 521q65 62 106 108.5t58 78.5h76v12h-202v-12h8q2 -6 3 -12.5t1 -14.5q0 -77 -58 -141l-62 168h8v12h-260v-12h106l104 -247q-88 -132 -120 -199q-32 -66 -50.5 -131t-23.5 -131h-16v-12h216v12h-8q-58 89 -58 190q0 110 70 250
z" />
    <glyph glyph-name="Odieresis" unicode="&#xf0d6;" horiz-adv-x="662" 
d="M384 52q-36 -2 -73 -5.5t-75 -10.5v684h8v12h-214v-12h58v-709l-58 -9v-20q49 9 94.5 17t90.5 15t90.5 11t94.5 4q151 0 151 -35q0 -3 -2 -5.5t-4 -6.5l1.5 -0.5t3.5 -0.5q37 12 59.5 29.5t22.5 28.5q0 4 -14.5 7t-32.5 5t-34 2.5t-19 0.5v666h58v12h-214v-12h8v-668z
" />
    <glyph glyph-name="multiply" unicode="&#xf0d7;" horiz-adv-x="622" 
d="M386 179q-21 37 -108 132q-66 73 -66 204q0 112 48 205h8v12h-238v-12h56q-11 -29 -15.5 -58t-4.5 -57q0 -173 178 -310q142 -109 142 -213v-70h-174v-12h380v12h-60v708h60v12h-214v-12h8v-541z" />
    <glyph glyph-name="Oslash" unicode="&#xf0d8;" horiz-adv-x="916" 
d="M678 720v-696q-20 -10 -90 -10q-56 0 -56 10v696h8v12h-164v-12h8v-696q-23 -10 -92 -10q-56 0 -56 10v696h8v12h-214v-12h58v-708h-58v-12h856v12h-60v708h60v12h-216v-12h8z" />
    <glyph glyph-name="Ugrave" unicode="&#xf0d9;" horiz-adv-x="916" 
d="M532 44v676h8v12h-164v-12h8v-676q-51 -2 -88 -4.5t-60 -5.5v686h8v12h-214v-12h58v-707q-24 -5 -38.5 -8t-19.5 -5v-14q32 3 65.5 5t66.5 2q41 0 80 -8.5t76 -18.5t71.5 -18.5t66.5 -8.5q34 0 68 8.5t69 18t72 18t76 8.5q65 0 143 -6v14q-12 3 -26.5 6t-31.5 7v707h60
v12h-216v-12h8v-685q-54 6 -146 9z" />
    <glyph glyph-name="Uacute" unicode="&#xf0da;" horiz-adv-x="586" 
d="M371 718q-71 -51 -126 -111t-95 -135q-37 -69 -48.5 -184t-11.5 -276h-60v-12h502q24 64 24 127q0 55 -23.5 106.5t-59 100.5t-78 96t-79.5 95q23 36 56 72.5t80 74.5q20 16 41.5 31t44.5 29h-378q0 -5 5.5 -17t15.5 -24t25 -21.5t35 -9.5q2 0 4 2q-3 3 -3 8q0 8 12 16
t31 14.5t42 12t44 7.5v-2zM362 12h-124q-2 26 -3 54t-1 59q0 278 64 363q24 -35 44.5 -63t36 -57t24.5 -64t9 -84q0 -115 -50 -208z" />
    <glyph glyph-name="Udieresis" unicode="&#xf0dc;" horiz-adv-x="584" 
d="M236 720h57v12h-263v-12h58v-708h-58v-12h502q11 33 16.5 64.5t5.5 62.5q0 173 -179 310q-139 108 -139 213v70zM362 12h-126v541q11 -19 36.5 -51.5t69.5 -80.5q66 -74 66 -204q0 -110 -46 -205z" />
    <glyph glyph-name="Yacute" unicode="&#xf0dd;" horiz-adv-x="574" 
d="M386 513q3 -15 5.5 -37t4 -46t2.5 -48t1 -44q0 -300 -155 -324q60 36 60 111q0 46 -24 104.5t-66 116.5l-140 -17q4 -19 19 -38t35 -39t42.5 -40.5t41 -43t30.5 -47t12 -50.5t-11.5 -40.5t-39.5 -16.5q-27 0 -27 19v6t2 16q0 16 -17 16q-12 0 -32 -3.5t-38.5 -9
t-32.5 -13t-14 -15.5q0 -12 13 -19.5t31 -11t37.5 -4.5t32.5 -1q107 0 164 30q43 22 83 62.5t71 90t49.5 102.5t18.5 100q0 72 -15 137t-49 114t-87.5 77.5t-130.5 28.5q-208 0 -232 -210h112q-6 34 -6 65q0 69 23.5 98.5t74.5 29.5q111 0 150 -192q-275 -13 -275 -53
q0 -14 19.5 -23t47.5 -22l-1 4q0 22 59 45q33 12 70.5 21t81.5 14z" />
    <glyph glyph-name="Thorn" unicode="&#xf0de;" horiz-adv-x="886" 
d="M334 486v-31t2 -25q5 -34 25 -69.5t48 -71t60.5 -69t62.5 -62.5q34 -34 34 -87q0 -37 -17.5 -47t-44.5 -10q-16 0 -16 5q7 14 7 18q0 11 -20 11q-4 0 -15.5 -1.5t-23.5 -4.5t-21.5 -8.5t-9.5 -14.5q0 -6 1.5 -10.5t8 -7.5t19.5 -5t36 -2q107 0 164 30q43 22 83 62.5
t71 90t49.5 102.5t18.5 100q0 72 -15 137t-49 113.5t-87.5 77.5t-130.5 29q-111 0 -174 -67q-55 -58 -64 -159q-73 15 -100 39v171h100v12h-306v-12h58v-708h-58v-12h306v11h-100v487q20 -4 44.5 -7t53.5 -5zM522 718q7 1 12 1h12q43 0 74 -29.5t51 -80.5t30 -120.5
t10 -150.5q0 -300 -155 -324q60 36 60 110q0 87 -78 204q-90 132 -90 264q0 113 74 126z" />
    <glyph glyph-name="germandbls" unicode="&#xf0df;" horiz-adv-x="586" 
d="M340 12h-8v-12h224v12h-68v634q0 31 -9 49t-26.5 27.5t-44 12.5t-62.5 3q-38 0 -80 -3t-77.5 -15t-59 -36t-23.5 -67q0 -54 32.5 -80t81.5 -26q23 0 45 3.5t45 11.5q-18 -20 -43.5 -41.5t-57.5 -46.5q-179 -137 -179 -311q0 -61 24 -127h178v12h-8q-48 93 -48 205
q0 132 68 204q76 83 96 121v-530zM340 602q0 -32 -9 -45.5t-35 -13.5q-16 0 -33 6t-31.5 17.5t-24 28t-9.5 38.5q0 20 8.5 36t22.5 27t32.5 17t38.5 6q37 0 40 -24v-93z" />
    <glyph glyph-name="FL00C9h" 
d="M384 12h-8v-12h214v12h-58v610h58v12h-214v-12h8v-388q-28 -6 -68 -27q-55 -29 -80 -73v488h8v12h-214v-12h58v-610h-58v-12h214v12h-8v104q81 72 128 72q20 0 20 -20v-156zM312 664q54 2 101 2t81.5 2t54 7t19.5 16q0 13 -19.5 30t-50.5 25q-5 0 -5 -2t2.5 -5t2.5 -6
q0 -17 -24 -28.5t-55.5 -18t-62 -9t-44.5 -2.5t-45 2.5t-62.5 8.5t-55 17t-23.5 28q0 7 6 13q-1 1 -6 1q-15 0 -27.5 -7.5t-21.5 -17t-14 -18t-5 -11.5q0 -12 18.5 -17t51.5 -6.5t80 -1.5t104 -2z" />
    <glyph glyph-name="FL00E0h" horiz-adv-x="622" 
d="M386 12h-8v-12h214v12h-60v708h60v12h-379q-1 -1 -1 -4q0 -6 5.5 -17.5t16 -23t25.5 -19.5t33 -8q3 0 5 2q-2 1 -2 5q0 10 20.5 27.5t60.5 23.5h10v-68q0 -103 -142 -213q-178 -137 -178 -310q0 -28 4.5 -57t15.5 -58h-56v-12h238v12h-8q-24 43 -36 98q12 46 162 69v-167
zM386 196q-57 -3 -100 -7.5t-72 -11.5q-2 10 -2 19v19q0 132 66 206q87 94 108 132v-357z" />
    <glyph glyph-name="FL00E1h" horiz-adv-x="584" 
d="M236 650v70h88v-70q0 -3 5.5 -13.5t15 -23t22 -26.5t26.5 -24q39 -28 67 -43t48 -18q-43 38 -43 100v130h-435v-12h58v-708h-58v-12h502q11 33 16.5 64.5t5.5 62.5q0 173 -179 310q-139 108 -139 213zM362 12h-126v541q11 -19 36.5 -51.5t69.5 -80.5q66 -74 66 -204
q0 -110 -46 -205z" />
    <glyph glyph-name="FL00E2h" horiz-adv-x="586" 
d="M276 526q9 -4 17.5 -8t28.5 -4q41 0 71 9t55 27q17 12 24.5 27t7.5 33q0 37 -24 62t-60 39.5t-78 20.5t-78 6q-66 0 -104 -19.5t-38 -72.5v-634h-68v-12h502q24 66 24 127q0 173 -179 310q-65 50 -101 89zM246 12v530q12 -20 36 -49.5t62 -71.5q66 -74 66 -204
q0 -112 -48 -205h-116zM246 689q0 12 10 21t30 9q31 0 42.5 -21t11.5 -61q0 -45 -9 -70t-39 -25q-17 0 -30 8q-16 11 -16 52v87z" />
    <glyph glyph-name="FL00E3h" horiz-adv-x="544" 
d="M326 720v-118q0 -5 5.5 -14.5t16 -22t25 -26.5t32.5 -27q35 -25 61.5 -39.5t47.5 -19.5q-12 15 -20 27.5t-13 25t-7 25.5t-2 30v171h-442v-12h58v-708h-58v-12h442v12h-236v708h90z" />
    <glyph glyph-name="FL00E4h" horiz-adv-x="712" 
d="M567 54v666h60v12h-379q-2 -2 -2 -4q0 -6 6 -17.5t16.5 -23t25 -19.5t32.5 -8q2 0 6 2q-3 2 -3 6q0 6 7 13.5t18 15.5t26 14t32 9h9v-70q0 -104 -141 -213q-179 -137 -179 -278q0 -50 18 -108q-17 -3 -32.5 -4t-28.5 -2.5t-20.5 -3t-7.5 -5.5l6 -9t16.5 -19.5t25.5 -19.5
t33 -9q2 0 4 2q-2 4 -2 10q0 25 82 43q36 8 76 12t84 4t84 -4t78 -12q84 -18 84 -43q0 -6 -5 -11l5 -2q18 0 33 9t25.5 19.5t16.5 19.5l6 9q0 3 -1 5q-23 5 -51 8t-63 6zM291 62q-44 85 -44 176q0 109 66 183q87 94 108 132v-491h-130z" />
    <glyph glyph-name="FL00E5h" horiz-adv-x="586" 
d="M152 497q-8 25 -12 48t-4 45q0 128 106 128q96 0 126 -114h148q-36 130 -246 130q-58 0 -103 -18.5t-75.5 -52.5t-46 -80.5t-15.5 -103.5q0 -28 4 -52t14 -47.5t26.5 -48.5t41.5 -55q20 -23 48 -53t65 -65q37 -36 37 -89q0 -50 -42 -54q-4 -1 -12 -1q-11 0 -17.5 4.5
t-6.5 11.5q0 5 5 14.5t5 16.5q0 10 -18 10q-27 -7 -50 -13t-42 -11q-11 0 -18.5 -7.5t-7.5 -12.5q0 -31 122 -31q55 0 99.5 8.5t80.5 28.5t66 53t57 82q29 54 46.5 117t22.5 137l-142 -11v-46q0 -70 -3.5 -121.5t-11.5 -86.5q-31 -133 -131 -142q60 33 60 97q0 70 -70 186
q-87 143 -102 184q303 11 303 49q0 19 -27.5 29.5t-65.5 16.5l1 -4q0 -23 -63 -44q-32 -11 -69.5 -19t-82.5 -13z" />
    <glyph glyph-name="FL00E6h" horiz-adv-x="916" 
d="M678 720q5 -14 6.5 -29t1.5 -31q0 -65 -38 -87t-72 -22q-16 0 -30 7q-14 11 -14 30v132h8v12h-162v-12h8v-132q0 -19 -14 -30q-6 -3 -13.5 -5t-18.5 -2q-35 0 -72 23q-38 22 -38 89q0 15 1.5 29t6.5 28h8v12h-138q-5 -17 -7.5 -34t-2.5 -34q0 -84 46 -113
q26 -16 58 -23.5t70 -7.5q39 0 74 11q-35 -31 -60 -53t-42 -37q-178 -139 -178 -314q0 -28 4.5 -57t15.5 -58h-56v-12h238v12h-8q-48 93 -48 206q0 132 66 206q48 53 75 82.5t33 35.5v-530h-8v-12h162v12h-8v531q32 -36 57.5 -66t48.5 -53q68 -72 68 -206q0 -113 -48 -206
h-8v-12h236v12h-54q11 29 15.5 58t4.5 57q0 175 -180 315q-41 32 -67.5 55t-40.5 36q38 -13 82 -13q38 0 70 7.5t58 23.5q44 28 44 113q0 18 -1.5 34.5t-6.5 33.5h-140v-12h8z" />
    <glyph glyph-name="FL00E7h" horiz-adv-x="471" 
d="M161 146q-14 -12 -36.5 -33.5t-57.5 -50.5q-37 -33 -37 -44q0 -12 42 -17t107 -5q34 0 70 15q38 16 38 27q0 6 -10 8q-41 11 -64.5 17t-29.5 8q-20 0 -20 -9q0 -5 5 -16t5 -16q0 -16 -34 -16q-50 0 -50 19q0 18 102 101q38 30 78.5 73t73.5 91t54.5 98t21.5 95
q0 20 -3.5 37t-13.5 29t-27.5 18.5t-44.5 6.5q-23 0 -47.5 -7.5t-51.5 -10.5l210 168h-410q0 -6 5.5 -18t16 -24t25.5 -21t34 -9q2 0 4 2q-2 3 -2 8q0 7 14.5 16t35.5 17t45.5 13t45.5 5q10 0 14 -1l-238 -190q53 9 92 14t66 5q22 0 36.5 -11.5t23 -28.5t11.5 -38.5t3 -40.5
q0 -37 -4 -73.5t-15.5 -71.5t-31.5 -70t-51 -69z" />
    <glyph glyph-name="FL00E8h" 
d="M236 116q81 72 128 72q20 0 20 -20v-156h-8v-12h214v12h-58v708h58v12h-214v-12h8v-486q-28 -6 -68 -27q-55 -29 -80 -73v586h8v12h-214v-12h58v-708h-58v-12h214v12h-8v104z" />
    <glyph glyph-name="FL00E9h" 
d="M384 12h-8v-12h214v12h-58v610h58v12h-214v-12h8v-388q-28 -6 -68 -27q-55 -29 -80 -73v488h8v12h-214v-12h58v-610h-58v-12h214v12h-8v104q81 72 128 72q20 0 20 -20v-156zM312 664q54 2 101 2t81.5 2t54 7t19.5 16q0 13 -19.5 30t-50.5 25q-5 0 -5 -2t2.5 -5t2.5 -6
q0 -17 -24 -28.5t-55.5 -18t-62 -9t-44.5 -2.5t-45 2.5t-62.5 8.5t-55 17t-23.5 28q0 7 6 13q-1 1 -6 1q-15 0 -27.5 -7.5t-21.5 -17t-14 -18t-5 -11.5q0 -12 18.5 -17t51.5 -6.5t80 -1.5t104 -2z" />
    <glyph glyph-name="FL00EAh" 
d="M236 538q39 -41 70.5 -73t54 -66t35 -76.5t12.5 -104.5q0 -57 -11.5 -108t-34.5 -98h-8v-12h236v12h-54q18 58 18 115t-24.5 114.5t-64.5 110.5t-91.5 98t-105.5 77q38 -13 82 -13q51 0 84 9.5t52.5 32.5t27.5 63t8 101h50v12h-190q5 -14 7.5 -30.5t2.5 -33.5
q0 -62 -30.5 -92t-81.5 -30q-18 0 -31 9t-13 27v138h8v12h-214v-12h58v-708h-58v-12h214v12h-8v526z" />
    <glyph glyph-name="FL00EBh" horiz-adv-x="622" 
d="M260 12q-48 93 -48 205q0 130 66 204q87 94 108 132v-541h-8v-12h214v12h-60v708h60v12h-380q0 -6 5.5 -18t16 -24t25.5 -21t33 -9q2 0 6 2q-2 1 -2 5q0 6 7 14t19 15.5t28.5 14t34.5 9.5h1v-70q0 -104 -142 -213q-178 -137 -178 -310q0 -28 4.5 -57t15.5 -58h-56v-12
h238v12h-8z" />
    <glyph glyph-name="FL00ECh" horiz-adv-x="916" 
d="M678 12h-8v-12h216v12h-60v708h60v12h-216v-12h8v-106q0 -1 -13 -16.5t-34 -42.5t-46 -63.5t-49 -79.5t-44 -90.5t-30 -96.5q-5 50 -23 98t-43.5 90.5t-53.5 79t-51.5 63.5t-39 43t-15.5 17v104h8v12h-214v-12h58v-708h-58v-12h214v12h-8v569q49 -74 78 -132t44 -109
t19.5 -98t4.5 -99v-131h-8v-12h168v12h-8v45q0 65 1 114.5t5 89.5t13 74.5t25 71t40.5 77.5t59.5 94v-566z" />
    <glyph glyph-name="FL00EDh" 
d="M236 522q27 -8 64 -12t84 -4v-494h-8v-12h214v12h-58v708h58v12h-214v-12h8v-196q-101 8 -148 49v147h8v12h-214v-12h58v-708h-58v-12h214v12h-8v510z" />
    <glyph glyph-name="FL00EEh" horiz-adv-x="582" 
d="M230 158q34 -34 34 -87q0 -31 -13.5 -44t-37.5 -13q-27 0 -27 19v22q0 16 -20 16q-9 0 -28 -3t-38 -8.5t-33.5 -13t-14.5 -16.5q0 -12 13.5 -19t32 -11t38 -5t32.5 -1q111 0 185 30t118 81.5t62.5 122t18.5 151.5q0 73 -14.5 137.5t-48 113.5t-87.5 77.5t-132 28.5
q-58 0 -102.5 -19t-75 -53t-46.5 -81.5t-16 -103.5q0 -53 19 -99t67 -104q20 -23 48 -53t66 -65zM220 718q8 1 12 1h10q37 0 67 -20.5t51.5 -61t33.5 -102t12 -142.5q0 -175 -33.5 -270.5t-118.5 -108.5q58 37 58 110q0 87 -78 204q-88 134 -88 264q0 113 74 126z" />
    <glyph glyph-name="FL00EFh" 
d="M384 700v-688h-8v-12h214v12h-58v708h58v12h-560v-12h58v-708h-58v-12h214v12h-8v697q16 1 27.5 4t37.5 3q45 0 64 -5.5t19 -10.5z" />
    <glyph glyph-name="FL00F1h" horiz-adv-x="578" 
d="M197 13q-21 0 -21 13l8 34q0 11 -20 11q-55 -13 -94 -25q-22 -6 -22 -19q0 -31 122 -31q55 0 98 8.5t79 28t67.5 52t62.5 81.5q37 56 54 111t17 125l-154 -15v-71q0 -278 -140 -302q58 37 58 110q0 87 -78 204q-88 134 -88 264q0 128 98 128q93 0 132 -138h150
q-9 34 -32 62.5t-57 48.5t-76.5 31.5t-90.5 11.5q-60 0 -105 -18.5t-75 -52t-45 -81t-15 -105.5q0 -52 19.5 -99.5t66.5 -103.5q12 -15 36 -36.5t48 -47.5t42 -54.5t18 -57.5q0 -31 -15 -48t-41 -19h-7z" />
    <glyph glyph-name="FL00F2h" horiz-adv-x="706" 
d="M282 720v-708h-218v-12h582v12h-218v708h82v-159q0 -10 22.5 -27t51.5 -33t56 -27.5t36 -11.5q-17 23 -23.5 44t-6.5 55v171h-582v-171q0 -34 -8 -54.5t-26 -40.5q7 0 22.5 5t34.5 13t39 18.5t36.5 21t27 20.5t10.5 17v159h82z" />
    <glyph glyph-name="FL00F3h" horiz-adv-x="634" 
d="M196 720h8v12h-174v-12h18l204 -536q-95 -15 -95 -36q0 -14 20 -23.5t47 -22.5q27 74 192 80q-21 -76 -48 -112q-21 -24 -53 -39t-70 -15q-25 0 -25 16l6 26q0 13 -22 13q-9 0 -27.5 -2t-37.5 -6.5t-33 -12.5t-14 -20q0 -13 12.5 -20t30.5 -10.5t37.5 -4.5t33.5 -1
q74 0 144 32q101 46 152 352q45 267 102 354h-190v-12h8q-1 -5 -1 -30q0 -37 2.5 -113t7.5 -191q1 -12 1 -23v-21q0 -39 -3 -76t-11 -72h-22z" />
    <glyph glyph-name="FL00F4h" horiz-adv-x="860" 
d="M178 0h506v12h-180v111q41 -22 164 -22q104 0 130 29q32 33 32 84q0 136 -209 345q-79 79 -107 159q11 0 26 -5.5t28.5 -13t23 -15t9.5 -10.5l-3 -7q0 -1 5 -1q39 14 60 33.5t21 32.5h-506q0 -2 5 -12.5t15 -22.5t24.5 -21.5t34.5 -9.5q4 0 6 2q-2 2 -2 6q0 5 9 12.5
t22 14.5t28 12t26 5q-21 -64 -107 -157q-209 -221 -209 -350q0 -48 30 -81q27 -28 128 -28q117 0 168 21v-111h-178v-12zM356 139q-22 -20 -76 -20q-27 0 -46.5 11.5t-31.5 31.5t-18 46.5t-6 55.5q0 155 94 281q65 100 84 137v-543zM624 130q-19 -11 -48 -11q-47 0 -72 20
v543q51 -95 83 -140q97 -134 97 -284q0 -95 -60 -128z" />
    <glyph glyph-name="FL00F5h" horiz-adv-x="622" 
d="M250 452l152 -440h-8v-12h198v12h-38l-202 521q65 62 106 108.5t58 78.5h76v12h-202v-12h8q2 -6 3 -12.5t1 -14.5q0 -77 -58 -141l-62 168h8v12h-260v-12h106l104 -247q-88 -132 -120 -199q-32 -66 -50.5 -131t-23.5 -131h-16v-12h216v12h-8q-58 89 -58 190q0 110 70 250
z" />
    <glyph glyph-name="FL00F6h" horiz-adv-x="662" 
d="M384 52q-36 -2 -73 -5.5t-75 -10.5v684h8v12h-214v-12h58v-709l-58 -9v-20q49 9 94.5 17t90.5 15t90.5 11t94.5 4q151 0 151 -35q0 -3 -2 -5.5t-4 -6.5l1.5 -0.5t3.5 -0.5q37 12 59.5 29.5t22.5 28.5q0 4 -14.5 7t-32.5 5t-34 2.5t-19 0.5v666h58v12h-214v-12h8v-668z
" />
    <glyph glyph-name="FL00F7h" horiz-adv-x="622" 
d="M386 179q-21 37 -108 132q-66 73 -66 204q0 112 48 205h8v12h-238v-12h56q-11 -29 -15.5 -58t-4.5 -57q0 -173 178 -310q142 -109 142 -213v-70h-174v-12h380v12h-60v708h60v12h-214v-12h8v-541z" />
    <glyph glyph-name="FL00F8h" horiz-adv-x="916" 
d="M678 720v-696q-20 -10 -90 -10q-56 0 -56 10v696h8v12h-164v-12h8v-696q-23 -10 -92 -10q-56 0 -56 10v696h8v12h-214v-12h58v-708h-58v-12h856v12h-60v708h60v12h-216v-12h8z" />
    <glyph glyph-name="FL00F9h" horiz-adv-x="916" 
d="M532 44v676h8v12h-164v-12h8v-676q-51 -2 -88 -4.5t-60 -5.5v686h8v12h-214v-12h58v-707q-24 -5 -38.5 -8t-19.5 -5v-14q32 3 65.5 5t66.5 2q41 0 80 -8.5t76 -18.5t71.5 -18.5t66.5 -8.5q34 0 68 8.5t69 18t72 18t76 8.5q65 0 143 -6v14q-12 3 -26.5 6t-31.5 7v707h60
v12h-216v-12h8v-685q-54 6 -146 9z" />
    <glyph glyph-name="FL00FAh" horiz-adv-x="586" 
d="M371 718q-71 -51 -126 -111t-95 -135q-37 -69 -48.5 -184t-11.5 -276h-60v-12h502q24 64 24 127q0 55 -23.5 106.5t-59 100.5t-78 96t-79.5 95q23 36 56 72.5t80 74.5q20 16 41.5 31t44.5 29h-378q0 -5 5.5 -17t15.5 -24t25 -21.5t35 -9.5q2 0 4 2q-3 3 -3 8q0 8 12 16
t31 14.5t42 12t44 7.5v-2zM362 12h-124q-2 26 -3 54t-1 59q0 278 64 363q24 -35 44.5 -63t36 -57t24.5 -64t9 -84q0 -115 -50 -208z" />
    <glyph glyph-name="FL00FCh" horiz-adv-x="584" 
d="M236 720h57v12h-263v-12h58v-708h-58v-12h502q11 33 16.5 64.5t5.5 62.5q0 173 -179 310q-139 108 -139 213v70zM362 12h-126v541q11 -19 36.5 -51.5t69.5 -80.5q66 -74 66 -204q0 -110 -46 -205z" />
    <glyph glyph-name="FL00FFh" horiz-adv-x="586" 
d="M340 -65h-8v-12h224v12h-68v634q0 31 -9 49t-26.5 27.5t-44 12.5t-62.5 3q-38 0 -80 -3t-77.5 -15t-59 -36t-23.5 -67q0 -54 32.5 -80t81.5 -26q23 0 45 3.5t45 11.5q-18 -20 -43.5 -41.5t-57.5 -46.5q-179 -137 -179 -311q0 -61 24 -127h178v12h-8q-48 93 -48 205
q0 132 68 204q76 83 96 121v-530zM340 525q0 -32 -9 -45.5t-35 -13.5q-16 0 -33 6t-31.5 17.5t-24 28t-9.5 38.5q0 20 8.5 36t22.5 27t32.5 17t38.5 6q37 0 40 -24v-93z" />
    <glyph glyph-name="FL0041h" horiz-adv-x="622" 
d="M386 12h-8v-12h214v12h-60v708h60v12h-379q-1 -1 -1 -4q0 -6 5.5 -17.5t16 -23t25.5 -19.5t33 -8q3 0 5 2q-2 1 -2 5q0 10 20.5 27.5t60.5 23.5h10v-68q0 -103 -142 -213q-178 -137 -178 -310q0 -28 4.5 -57t15.5 -58h-56v-12h238v12h-8q-24 43 -36 98q12 46 162 69v-167
zM386 196q-57 -3 -100 -7.5t-72 -11.5q-2 10 -2 19v19q0 132 66 206q87 94 108 132v-357z" />
    <glyph glyph-name="FL0042h" horiz-adv-x="586" 
d="M276 526q9 -4 17.5 -8t28.5 -4q41 0 71 9t55 27q17 12 24.5 27t7.5 33q0 37 -24 62t-60 39.5t-78 20.5t-78 6q-66 0 -104 -19.5t-38 -72.5v-634h-68v-12h502q24 66 24 127q0 173 -179 310q-65 50 -101 89zM246 12v530q12 -20 36 -49.5t62 -71.5q66 -74 66 -204
q0 -112 -48 -205h-116zM246 689q0 12 10 21t30 9q31 0 42.5 -21t11.5 -61q0 -45 -9 -70t-39 -25q-17 0 -30 8q-16 11 -16 52v87z" />
    <glyph glyph-name="FL0043h" horiz-adv-x="578" 
d="M197 13q-21 0 -21 13l8 34q0 11 -20 11q-55 -13 -94 -25q-22 -6 -22 -19q0 -31 122 -31q55 0 98 8.5t79 28t67.5 52t62.5 81.5q37 56 54 111t17 125l-154 -15v-71q0 -278 -140 -302q58 37 58 110q0 87 -78 204q-88 134 -88 264q0 128 98 128q93 0 132 -138h150
q-9 34 -32 62.5t-57 48.5t-76.5 31.5t-90.5 11.5q-60 0 -105 -18.5t-75 -52t-45 -81t-15 -105.5q0 -52 19.5 -99.5t66.5 -103.5q12 -15 36 -36.5t48 -47.5t42 -54.5t18 -57.5q0 -31 -15 -48t-41 -19h-7z" />
    <glyph glyph-name="FL0045h" horiz-adv-x="586" 
d="M152 497q-8 25 -12 48t-4 45q0 128 106 128q96 0 126 -114h148q-36 130 -246 130q-58 0 -103 -18.5t-75.5 -52.5t-46 -80.5t-15.5 -103.5q0 -28 4 -52t14 -47.5t26.5 -48.5t41.5 -55q20 -23 48 -53t65 -65q37 -36 37 -89q0 -50 -42 -54q-4 -1 -12 -1q-11 0 -17.5 4.5
t-6.5 11.5q0 5 5 14.5t5 16.5q0 10 -18 10q-27 -7 -50 -13t-42 -11q-11 0 -18.5 -7.5t-7.5 -12.5q0 -31 122 -31q55 0 99.5 8.5t80.5 28.5t66 53t57 82q29 54 46.5 117t22.5 137l-142 -11v-46q0 -70 -3.5 -121.5t-11.5 -86.5q-31 -133 -131 -142q60 33 60 97q0 70 -70 186
q-87 143 -102 184q303 11 303 49q0 19 -27.5 29.5t-65.5 16.5l1 -4q0 -23 -63 -44q-32 -11 -69.5 -19t-82.5 -13z" />
    <glyph glyph-name="FL0048h" 
d="M236 522q27 -8 64 -12t84 -4v-494h-8v-12h214v12h-58v708h58v12h-214v-12h8v-196q-101 8 -148 49v147h8v12h-214v-12h58v-708h-58v-12h214v12h-8v510z" />
    <glyph glyph-name="FL004Bh" 
d="M236 538q39 -41 70.5 -73t54 -66t35 -76.5t12.5 -104.5q0 -57 -11.5 -108t-34.5 -98h-8v-12h236v12h-54q18 58 18 115t-24.5 114.5t-64.5 110.5t-91.5 98t-105.5 77q38 -13 82 -13q51 0 84 9.5t52.5 32.5t27.5 63t8 101h50v12h-190q5 -14 7.5 -30.5t2.5 -33.5
q0 -62 -30.5 -92t-81.5 -30q-18 0 -31 9t-13 27v138h8v12h-214v-12h58v-708h-58v-12h214v12h-8v526z" />
    <glyph glyph-name="FL004Dh" horiz-adv-x="916" 
d="M678 12h-8v-12h216v12h-60v708h60v12h-216v-12h8v-106q0 -1 -13 -16.5t-34 -42.5t-46 -63.5t-49 -79.5t-44 -90.5t-30 -96.5q-5 50 -23 98t-43.5 90.5t-53.5 79t-51.5 63.5t-39 43t-15.5 17v104h8v12h-214v-12h58v-708h-58v-12h214v12h-8v569q49 -74 78 -132t44 -109
t19.5 -98t4.5 -99v-131h-8v-12h168v12h-8v45q0 65 1 114.5t5 89.5t13 74.5t25 71t40.5 77.5t59.5 94v-566z" />
    <glyph glyph-name="FL004Fh" horiz-adv-x="582" 
d="M230 158q34 -34 34 -87q0 -31 -13.5 -44t-37.5 -13q-27 0 -27 19v22q0 16 -20 16q-9 0 -28 -3t-38 -8.5t-33.5 -13t-14.5 -16.5q0 -12 13.5 -19t32 -11t38 -5t32.5 -1q111 0 185 30t118 81.5t62.5 122t18.5 151.5q0 73 -14.5 137.5t-48 113.5t-87.5 77.5t-132 28.5
q-58 0 -102.5 -19t-75 -53t-46.5 -81.5t-16 -103.5q0 -53 19 -99t67 -104q20 -23 48 -53t66 -65zM220 718q8 1 12 1h10q37 0 67 -20.5t51.5 -61t33.5 -102t12 -142.5q0 -175 -33.5 -270.5t-118.5 -108.5q58 37 58 110q0 87 -78 204q-88 134 -88 264q0 113 74 126z" />
    <glyph glyph-name="FL0050h" horiz-adv-x="598" 
d="M258 132q0 28 104 129q40 39 77 74.5t65.5 70.5t46 72.5t17.5 79.5q0 34 -16 60t-42.5 45.5t-61.5 33t-72.5 22t-75.5 12t-70 3.5q-37 0 -63.5 -2.5t-43.5 -12.5t-25 -28.5t-8 -51.5v-627h-60v-12h380v12h-174v97q35 -19 84 -19q29 0 47 3t27.5 7.5t12.5 11t3 12.5
q0 11 -10.5 19t-25 13t-29 7.5t-21.5 2.5q-18 0 -18 -11q0 -2 2 -7t4 -11t4 -11t2 -8q0 -9 -14 -9q-5 0 -12.5 1t-15 3.5t-13 6.5t-5.5 10v2zM326 702q84 -36 84 -164q0 -145 -82 -260q-43 -59 -66.5 -96.5t-25.5 -54.5v562q0 25 38 25q25 0 52 -12z" />
    <glyph glyph-name="FL0054h" horiz-adv-x="706" 
d="M282 720v-708h-218v-12h582v12h-218v708h82v-159q0 -10 22.5 -27t51.5 -33t56 -27.5t36 -11.5q-17 23 -23.5 44t-6.5 55v171h-582v-171q0 -34 -8 -54.5t-26 -40.5q7 0 22.5 5t34.5 13t39 18.5t36.5 21t27 20.5t10.5 17v159h82z" />
    <glyph glyph-name="FL0058h" horiz-adv-x="622" 
d="M250 452l152 -440h-8v-12h198v12h-38l-202 521q65 62 106 108.5t58 78.5h76v12h-202v-12h8q2 -6 3 -12.5t1 -14.5q0 -77 -58 -141l-62 168h8v12h-260v-12h106l104 -247q-88 -132 -120 -199q-32 -66 -50.5 -131t-23.5 -131h-16v-12h216v12h-8q-58 89 -58 190q0 110 70 250
z" />
    <glyph glyph-name="FL0046h" horiz-adv-x="544" 
d="M381 457l-145 48v215h90v-118q0 -5 5.5 -14.5t16 -22t25 -26.5t32.5 -27q35 -25 61.5 -39.5t47.5 -19.5q-12 15 -20 27.5t-13 25t-7 25.5t-2 30v171h-442v-12h58v-708h-58v-12h442v12h-236v442q26 -8 64.5 -12.5t83.5 -4.5z" />
    <glyph glyph-name="FL0047h" horiz-adv-x="578" 
d="M394 -4h154v406l-154 -15v-71q0 -278 -140 -302q58 37 58 110q0 87 -78 204q-88 134 -88 264q0 128 98 128q93 0 132 -138h150q-9 34 -32 62.5t-57 48.5t-76.5 31.5t-90.5 11.5q-60 0 -105 -18.5t-75 -52t-45 -81t-15 -105.5q0 -52 19.5 -99.5t66.5 -103.5
q12 -15 36 -36.5t48 -47.5t42 -54.5t18 -57.5q0 -31 -15 -48t-41 -19h-7q-21 0 -21 13l8 34q0 11 -20 11q-55 -13 -94 -25q-22 -6 -22 -19q0 -31 122 -31q46 0 84 5.5t70 19t60 35.5t54 55z" />
    <glyph glyph-name="FL0049h" horiz-adv-x="332" 
d="M302 0v12h-58v708h58v12h-272v-12h66v-708h-66v-12h272z" />
    <glyph glyph-name="FL004Ah" horiz-adv-x="614" 
d="M179 13q-21 0 -21 13l8 34q0 11 -20 11q-55 -13 -94 -25q-22 -6 -22 -19q0 -31 122 -31q55 0 98 8.5t79 28t67.5 52t62.5 81.5q37 56 54 111t17 125v322h54v12h-272v-12h64v-408q0 -278 -140 -302z" />
    <glyph glyph-name="FL004Eh" 
d="M384 116v-104h-8v-12h214v12h-58v708h58v12h-214v-12h8v-586q-25 44 -80 73q-40 21 -68 27v486h8v12h-214v-12h58v-708h-58v-12h214v12h-8v156q0 20 20 20q47 0 128 -72z" />
    <glyph glyph-name="FL004Ch" horiz-adv-x="544" 
d="M326 12h-90v708h90v12h-296v-12h58v-708h-58v-12h442v171q0 17 2 30t7 25.5t13 25t20 27.5q-21 -5 -47.5 -19.5t-61.5 -39.5q-18 -13 -32.5 -27t-25 -26.5t-16 -22.5t-5.5 -14v-118z" />
    <glyph glyph-name="FL0052h" horiz-adv-x="586" 
d="M246 -65v530q20 -38 96 -121q68 -72 68 -204q0 -112 -48 -205h-8v-12h178q24 66 24 127q0 174 -179 311q-32 25 -57.5 46.5t-43.5 41.5q23 -8 45 -11.5t45 -3.5q49 0 81.5 26t32.5 80q0 43 -23.5 67t-59 36t-78 15t-79.5 3q-36 0 -62.5 -3t-44 -12.5t-26.5 -27.5t-9 -49
v-634h-68v-12h224v12h-8zM246 525v93q3 24 40 24q20 0 38.5 -6t32.5 -17t22.5 -27t8.5 -36q0 -22 -9.5 -38.5t-24 -28t-31.5 -17.5t-33 -6q-26 0 -35 13.5t-9 45.5z" />
    <glyph glyph-name="FL0044h" horiz-adv-x="598" 
d="M258 682v2q0 6 5.5 10t13 6.5t15 3.5t12.5 1q14 0 14 -9q0 -3 -2 -8t-4 -11t-4 -11t-2 -7q0 -11 18 -11q7 0 21.5 2.5t29 7.5t25 13t10.5 19q0 10 -9.5 19t-41.5 13h51v12h-380v-12h60v-701h-60v-21h200q84 0 147 11t105.5 43t64 90t21.5 153q0 42 -13.5 78t-38.5 69.5
t-59 66.5t-76 71q-27 24 -50 40.5t-39 27.5t-25 18t-9 14zM326 32q-27 -12 -52 -12q-38 0 -38 25v642q1 -9 9.5 -20t22.5 -27t32.5 -37.5t39.5 -50.5q41 -57 55.5 -116.5t14.5 -133.5q0 -32 -5.5 -74.5t-16 -83t-26 -72t-36.5 -40.5zM236 705v17h49q-29 -5 -49 -17z" />
    <glyph glyph-name="FL0053h" horiz-adv-x="556" 
d="M359 719q21 0 21 -13l-8 -34q0 -11 20 -11q55 13 94 25q22 6 22 19q0 31 -122 31q-82 0 -133.5 -5t-80 -20t-38.5 -42t-10 -70q0 -25 21 -56t53 -67t69 -76t69 -83t53 -87.5t21 -89.5q0 -128 -98 -128q-93 0 -132 138h-150q9 -34 32 -62.5t57 -48.5t76.5 -31.5
t90.5 -11.5q60 0 105 18.5t75 52t45 81t15 105.5q0 45 -21.5 80.5t-53.5 65.5t-69 55.5t-69 50.5t-53.5 50t-21.5 54q0 15 3 34.5t14.5 36t34 28t62.5 11.5h7z" />
    <glyph glyph-name="FL0059h" horiz-adv-x="495" 
d="M411 13h-67v168h42l67 539h12v12h-155v-12h8l-48 -513h-1l-73 513h8v12h-174v-12h18l100 -538h50v-169h-59v-13h272v13z" />
    <glyph glyph-name="FL005Ah" horiz-adv-x="622" 
d="M532 720h60v12h-458q0 -8 5.5 -20t15.5 -23.5t25 -19.5t33 -8q3 0 5 2q-2 1 -2 5q0 5 17.5 12t42.5 14.5t52.5 14t47.5 9.5h10v-68q0 -103 -142 -213q-178 -137 -178 -310q0 -28 4.5 -57t15.5 -58h-56v-12h562q0 8 -5.5 20t-15.5 23.5t-25 19.5t-33 8q-3 0 -5 -2
q2 -1 2 -5q0 -6 -13 -14.5t-35 -16.5t-51 -14t-61 -6h-91q-47 91 -47 202q0 67 22 112t55 82q14 16 38 34.5t51 40.5t54.5 46.5t49.5 53t36 60.5t14 68v8z" />
    <glyph glyph-name="FL0056h" horiz-adv-x="657" 
d="M220 722h8v12h-198v-12h60v-301q0 -75 18 -138t45 -117q25 -49 52 -82t60 -53.5t73.5 -29t90.5 -8.5q111 0 111 31q0 5 -7 13t-15 8q-18 5 -39.5 11t-45.5 13q-17 0 -17 -10q0 -7 5 -17t5 -15q0 -7 -6.5 -11.5t-16.5 -4.5q-7 0 -11 1q-37 5 -37 55q0 24 16.5 57t38 65.5
t42.5 60.5t30 42q21 31 37 70t27.5 80t17.5 83t6 79v118h57v12h-194v-12h9v-118q0 -56 -5 -98t-15.5 -76.5t-25.5 -66t-35 -67.5q-64 -116 -64 -187q0 -64 56 -97q-90 9 -120 143q-8 35 -10.5 86.5t-2.5 122.5v358z" />
    <glyph glyph-name="FL0057h" horiz-adv-x="959" 
d="M543 722h10v12h-148v-12h10v-63q0 -41 -0.5 -77t-3 -71t-7.5 -70.5t-14 -75.5q-7 -32 -22.5 -69t-31 -72.5t-27.5 -66t-12 -48.5q0 -64 56 -97q-90 9 -120 143q-8 35 -10.5 86.5t-2.5 122.5v358h8v12h-198v-12h60v-301q0 -75 18 -138t45 -117q25 -49 52 -82t60 -53.5
t73.5 -29t90.5 -8.5q111 0 111 31q0 5 -7 13t-15 8q-18 5 -39.5 11t-45.5 13q-17 0 -17 -10q0 -7 5 -17t5 -15q0 -7 -6.5 -11.5t-16.5 -4.5q-7 0 -11 1q-37 5 -37 55q0 16 7.5 36t19 41.5t26 43t28.5 41.5q4 -33 19 -62q25 -49 52 -82t60 -53.5t73.5 -29t90.5 -8.5
q111 0 111 31q0 5 -7 13t-15 8q-18 5 -39.5 11t-45.5 13q-17 0 -17 -10q0 -7 5 -17t5 -15q0 -7 -6.5 -11.5t-16.5 -4.5q-7 0 -11 1q-37 5 -37 55q0 24 16.5 57t38 65.5t42.5 60.5t30 42q21 31 37 70t27.5 80t17.5 83t6 79v117h57v12h-194v-12h9v-117q0 -56 -5 -98
t-15.5 -76.5t-25.5 -66t-35 -67.5q-64 -116 -64 -187q0 -64 56 -97q-90 9 -120 143q-4 17 -7.5 26t-6 18.5t-4 23.5t-1.5 43q0 44 4 81t9.5 75t9.5 81.5t4 99.5v118z" />
    <glyph glyph-name="FL0055h" horiz-adv-x="673" 
d="M353 0q67 0 114 47t76 138t42 224.5t13 306.5h45v16h-196v-16h7v-264q0 -74 -4 -150t-16 -137.5t-33 -100t-55 -38.5q-37 0 -61 38.5t-38 100t-19.5 137.5t-5.5 150v264h6v16h-198v-16l36 -4q0 -172 15.5 -304.5t48.5 -223t85 -137.5t124 -47h14z" />
    <glyph glyph-name="FL0061h" horiz-adv-x="622" 
d="M386 12h-8v-12h214v12h-60v708h60v12h-379q-1 -1 -1 -4q0 -6 5.5 -17.5t16 -23t25.5 -19.5t33 -8q3 0 5 2q-2 1 -2 5q0 10 20.5 27.5t60.5 23.5h10v-68q0 -103 -142 -213q-178 -137 -178 -310q0 -28 4.5 -57t15.5 -58h-56v-12h238v12h-8q-24 43 -36 98q12 46 162 69v-167
zM386 196q-57 -3 -100 -7.5t-72 -11.5q-2 10 -2 19v19q0 132 66 206q87 94 108 132v-357z" />
    <glyph glyph-name="FL0062h" horiz-adv-x="586" 
d="M276 526q9 -4 17.5 -8t28.5 -4q41 0 71 9t55 27q17 12 24.5 27t7.5 33q0 37 -24 62t-60 39.5t-78 20.5t-78 6q-66 0 -104 -19.5t-38 -72.5v-634h-68v-12h502q24 66 24 127q0 173 -179 310q-65 50 -101 89zM246 12v530q12 -20 36 -49.5t62 -71.5q66 -74 66 -204
q0 -112 -48 -205h-116zM246 689q0 12 10 21t30 9q31 0 42.5 -21t11.5 -61q0 -45 -9 -70t-39 -25q-17 0 -30 8q-16 11 -16 52v87z" />
    <glyph glyph-name="FL0063h" horiz-adv-x="578" 
d="M197 13q-21 0 -21 13l8 34q0 11 -20 11q-55 -13 -94 -25q-22 -6 -22 -19q0 -31 122 -31q55 0 98 8.5t79 28t67.5 52t62.5 81.5q37 56 54 111t17 125l-154 -15v-71q0 -278 -140 -302q58 37 58 110q0 87 -78 204q-88 134 -88 264q0 128 98 128q93 0 132 -138h150
q-9 34 -32 62.5t-57 48.5t-76.5 31.5t-90.5 11.5q-60 0 -105 -18.5t-75 -52t-45 -81t-15 -105.5q0 -52 19.5 -99.5t66.5 -103.5q12 -15 36 -36.5t48 -47.5t42 -54.5t18 -57.5q0 -31 -15 -48t-41 -19h-7z" />
    <glyph glyph-name="FL0064h" horiz-adv-x="598" 
d="M258 682v2q0 6 5.5 10t13 6.5t15 3.5t12.5 1q14 0 14 -9q0 -3 -2 -8t-4 -11t-4 -11t-2 -7q0 -11 18 -11q7 0 21.5 2.5t29 7.5t25 13t10.5 19q0 10 -9.5 19t-41.5 13h51v12h-380v-12h60v-701h-60v-21h200q84 0 147 11t105.5 43t64 90t21.5 153q0 42 -13.5 78t-38.5 69.5
t-59 66.5t-76 71q-27 24 -50 40.5t-39 27.5t-25 18t-9 14zM326 32q-27 -12 -52 -12q-38 0 -38 25v642q1 -9 9.5 -20t22.5 -27t32.5 -37.5t39.5 -50.5q41 -57 55.5 -116.5t14.5 -133.5q0 -32 -5.5 -74.5t-16 -83t-26 -72t-36.5 -40.5zM236 705v17h49q-29 -5 -49 -17z" />
    <glyph glyph-name="FL0065h" horiz-adv-x="586" 
d="M152 497q-8 25 -12 48t-4 45q0 128 106 128q96 0 126 -114h148q-36 130 -246 130q-58 0 -103 -18.5t-75.5 -52.5t-46 -80.5t-15.5 -103.5q0 -28 4 -52t14 -47.5t26.5 -48.5t41.5 -55q20 -23 48 -53t65 -65q37 -36 37 -89q0 -50 -42 -54q-4 -1 -12 -1q-11 0 -17.5 4.5
t-6.5 11.5q0 5 5 14.5t5 16.5q0 10 -18 10q-27 -7 -50 -13t-42 -11q-11 0 -18.5 -7.5t-7.5 -12.5q0 -31 122 -31q55 0 99.5 8.5t80.5 28.5t66 53t57 82q29 54 46.5 117t22.5 137l-142 -11v-46q0 -70 -3.5 -121.5t-11.5 -86.5q-31 -133 -131 -142q60 33 60 97q0 70 -70 186
q-87 143 -102 184q303 11 303 49q0 19 -27.5 29.5t-65.5 16.5l1 -4q0 -23 -63 -44q-32 -11 -69.5 -19t-82.5 -13z" />
    <glyph glyph-name="FL0066h" horiz-adv-x="544" 
d="M381 457l-145 48v215h90v-118q0 -5 5.5 -14.5t16 -22t25 -26.5t32.5 -27q35 -25 61.5 -39.5t47.5 -19.5q-12 15 -20 27.5t-13 25t-7 25.5t-2 30v171h-442v-12h58v-708h-58v-12h442v12h-236v442q26 -8 64.5 -12.5t83.5 -4.5z" />
    <glyph glyph-name="FL0067h" horiz-adv-x="578" 
d="M394 -4h154v406l-154 -15v-71q0 -278 -140 -302q58 37 58 110q0 87 -78 204q-88 134 -88 264q0 128 98 128q93 0 132 -138h150q-9 34 -32 62.5t-57 48.5t-76.5 31.5t-90.5 11.5q-60 0 -105 -18.5t-75 -52t-45 -81t-15 -105.5q0 -52 19.5 -99.5t66.5 -103.5
q12 -15 36 -36.5t48 -47.5t42 -54.5t18 -57.5q0 -31 -15 -48t-41 -19h-7q-21 0 -21 13l8 34q0 11 -20 11q-55 -13 -94 -25q-22 -6 -22 -19q0 -31 122 -31q46 0 84 5.5t70 19t60 35.5t54 55z" />
    <glyph glyph-name="FL0068h" 
d="M236 522q27 -8 64 -12t84 -4v-494h-8v-12h214v12h-58v708h58v12h-214v-12h8v-196q-101 8 -148 49v147h8v12h-214v-12h58v-708h-58v-12h214v12h-8v510z" />
    <glyph glyph-name="FL0069h" horiz-adv-x="332" 
d="M302 0v12h-58v708h58v12h-272v-12h66v-708h-66v-12h272z" />
    <glyph glyph-name="FL006Ah" horiz-adv-x="614" 
d="M179 13q-21 0 -21 13l8 34q0 11 -20 11q-55 -13 -94 -25q-22 -6 -22 -19q0 -31 122 -31q55 0 98 8.5t79 28t67.5 52t62.5 81.5q37 56 54 111t17 125v322h54v12h-272v-12h64v-408q0 -278 -140 -302z" />
    <glyph glyph-name="FL006Bh" 
d="M236 538q39 -41 70.5 -73t54 -66t35 -76.5t12.5 -104.5q0 -57 -11.5 -108t-34.5 -98h-8v-12h236v12h-54q18 58 18 115t-24.5 114.5t-64.5 110.5t-91.5 98t-105.5 77q38 -13 82 -13q51 0 84 9.5t52.5 32.5t27.5 63t8 101h50v12h-190q5 -14 7.5 -30.5t2.5 -33.5
q0 -62 -30.5 -92t-81.5 -30q-18 0 -31 9t-13 27v138h8v12h-214v-12h58v-708h-58v-12h214v12h-8v526z" />
    <glyph glyph-name="FL006Ch" horiz-adv-x="544" 
d="M326 12h-90v708h90v12h-296v-12h58v-708h-58v-12h442v171q0 17 2 30t7 25.5t13 25t20 27.5q-21 -5 -47.5 -19.5t-61.5 -39.5q-18 -13 -32.5 -27t-25 -26.5t-16 -22.5t-5.5 -14v-118z" />
    <glyph glyph-name="FL006Dh" horiz-adv-x="916" 
d="M678 12h-8v-12h216v12h-60v708h60v12h-216v-12h8v-106q0 -1 -13 -16.5t-34 -42.5t-46 -63.5t-49 -79.5t-44 -90.5t-30 -96.5q-5 50 -23 98t-43.5 90.5t-53.5 79t-51.5 63.5t-39 43t-15.5 17v104h8v12h-214v-12h58v-708h-58v-12h214v12h-8v569q49 -74 78 -132t44 -109
t19.5 -98t4.5 -99v-131h-8v-12h168v12h-8v45q0 65 1 114.5t5 89.5t13 74.5t25 71t40.5 77.5t59.5 94v-566z" />
    <glyph glyph-name="FL006Eh" 
d="M384 116v-104h-8v-12h214v12h-58v708h58v12h-214v-12h8v-586q-25 44 -80 73q-40 21 -68 27v486h8v12h-214v-12h58v-708h-58v-12h214v12h-8v156q0 20 20 20q47 0 128 -72z" />
    <glyph glyph-name="FL006Fh" horiz-adv-x="582" 
d="M230 158q34 -34 34 -87q0 -31 -13.5 -44t-37.5 -13q-27 0 -27 19v22q0 16 -20 16q-9 0 -28 -3t-38 -8.5t-33.5 -13t-14.5 -16.5q0 -12 13.5 -19t32 -11t38 -5t32.5 -1q111 0 185 30t118 81.5t62.5 122t18.5 151.5q0 73 -14.5 137.5t-48 113.5t-87.5 77.5t-132 28.5
q-58 0 -102.5 -19t-75 -53t-46.5 -81.5t-16 -103.5q0 -53 19 -99t67 -104q20 -23 48 -53t66 -65zM220 718q8 1 12 1h10q37 0 67 -20.5t51.5 -61t33.5 -102t12 -142.5q0 -175 -33.5 -270.5t-118.5 -108.5q58 37 58 110q0 87 -78 204q-88 134 -88 264q0 113 74 126z" />
    <glyph glyph-name="FL0070h" horiz-adv-x="598" 
d="M258 132q0 28 104 129q40 39 77 74.5t65.5 70.5t46 72.5t17.5 79.5q0 34 -16 60t-42.5 45.5t-61.5 33t-72.5 22t-75.5 12t-70 3.5q-37 0 -63.5 -2.5t-43.5 -12.5t-25 -28.5t-8 -51.5v-627h-60v-12h380v12h-174v97q35 -19 84 -19q29 0 47 3t27.5 7.5t12.5 11t3 12.5
q0 11 -10.5 19t-25 13t-29 7.5t-21.5 2.5q-18 0 -18 -11q0 -2 2 -7t4 -11t4 -11t2 -8q0 -9 -14 -9q-5 0 -12.5 1t-15 3.5t-13 6.5t-5.5 10v2zM326 702q84 -36 84 -164q0 -145 -82 -260q-43 -59 -66.5 -96.5t-25.5 -54.5v562q0 25 38 25q25 0 52 -12z" />
    <glyph glyph-name="FL0072h" horiz-adv-x="586" 
d="M246 -65v530q20 -38 96 -121q68 -72 68 -204q0 -112 -48 -205h-8v-12h178q24 66 24 127q0 174 -179 311q-32 25 -57.5 46.5t-43.5 41.5q23 -8 45 -11.5t45 -3.5q49 0 81.5 26t32.5 80q0 43 -23.5 67t-59 36t-78 15t-79.5 3q-36 0 -62.5 -3t-44 -12.5t-26.5 -27.5t-9 -49
v-634h-68v-12h224v12h-8zM246 525v93q3 24 40 24q20 0 38.5 -6t32.5 -17t22.5 -27t8.5 -36q0 -22 -9.5 -38.5t-24 -28t-31.5 -17.5t-33 -6q-26 0 -35 13.5t-9 45.5z" />
    <glyph glyph-name="FL0073h" horiz-adv-x="556" 
d="M359 719q21 0 21 -13l-8 -34q0 -11 20 -11q55 13 94 25q22 6 22 19q0 31 -122 31q-82 0 -133.5 -5t-80 -20t-38.5 -42t-10 -70q0 -25 21 -56t53 -67t69 -76t69 -83t53 -87.5t21 -89.5q0 -128 -98 -128q-93 0 -132 138h-150q9 -34 32 -62.5t57 -48.5t76.5 -31.5
t90.5 -11.5q60 0 105 18.5t75 52t45 81t15 105.5q0 45 -21.5 80.5t-53.5 65.5t-69 55.5t-69 50.5t-53.5 50t-21.5 54q0 15 3 34.5t14.5 36t34 28t62.5 11.5h7z" />
    <glyph glyph-name="FL0074h" horiz-adv-x="706" 
d="M282 720v-708h-218v-12h582v12h-218v708h82v-159q0 -10 22.5 -27t51.5 -33t56 -27.5t36 -11.5q-17 23 -23.5 44t-6.5 55v171h-582v-171q0 -34 -8 -54.5t-26 -40.5q7 0 22.5 5t34.5 13t39 18.5t36.5 21t27 20.5t10.5 17v159h82z" />
    <glyph glyph-name="FL0075h" horiz-adv-x="673" 
d="M353 0q67 0 114 47t76 138t42 224.5t13 306.5h45v16h-196v-16h7v-264q0 -74 -4 -150t-16 -137.5t-33 -100t-55 -38.5q-37 0 -61 38.5t-38 100t-19.5 137.5t-5.5 150v264h6v16h-198v-16l36 -4q0 -172 15.5 -304.5t48.5 -223t85 -137.5t124 -47h14z" />
    <glyph glyph-name="FL0076h" horiz-adv-x="657" 
d="M220 722h8v12h-198v-12h60v-301q0 -75 18 -138t45 -117q25 -49 52 -82t60 -53.5t73.5 -29t90.5 -8.5q111 0 111 31q0 5 -7 13t-15 8q-18 5 -39.5 11t-45.5 13q-17 0 -17 -10q0 -7 5 -17t5 -15q0 -7 -6.5 -11.5t-16.5 -4.5q-7 0 -11 1q-37 5 -37 55q0 24 16.5 57t38 65.5
t42.5 60.5t30 42q21 31 37 70t27.5 80t17.5 83t6 79v118h57v12h-194v-12h9v-118q0 -56 -5 -98t-15.5 -76.5t-25.5 -66t-35 -67.5q-64 -116 -64 -187q0 -64 56 -97q-90 9 -120 143q-8 35 -10.5 86.5t-2.5 122.5v358z" />
    <glyph glyph-name="FL0077h" horiz-adv-x="959" 
d="M543 722h10v12h-148v-12h10v-63q0 -41 -0.5 -77t-3 -71t-7.5 -70.5t-14 -75.5q-7 -32 -22.5 -69t-31 -72.5t-27.5 -66t-12 -48.5q0 -64 56 -97q-90 9 -120 143q-8 35 -10.5 86.5t-2.5 122.5v358h8v12h-198v-12h60v-301q0 -75 18 -138t45 -117q25 -49 52 -82t60 -53.5
t73.5 -29t90.5 -8.5q111 0 111 31q0 5 -7 13t-15 8q-18 5 -39.5 11t-45.5 13q-17 0 -17 -10q0 -7 5 -17t5 -15q0 -7 -6.5 -11.5t-16.5 -4.5q-7 0 -11 1q-37 5 -37 55q0 16 7.5 36t19 41.5t26 43t28.5 41.5q4 -33 19 -62q25 -49 52 -82t60 -53.5t73.5 -29t90.5 -8.5
q111 0 111 31q0 5 -7 13t-15 8q-18 5 -39.5 11t-45.5 13q-17 0 -17 -10q0 -7 5 -17t5 -15q0 -7 -6.5 -11.5t-16.5 -4.5q-7 0 -11 1q-37 5 -37 55q0 24 16.5 57t38 65.5t42.5 60.5t30 42q21 31 37 70t27.5 80t17.5 83t6 79v117h57v12h-194v-12h9v-117q0 -56 -5 -98
t-15.5 -76.5t-25.5 -66t-35 -67.5q-64 -116 -64 -187q0 -64 56 -97q-90 9 -120 143q-4 17 -7.5 26t-6 18.5t-4 23.5t-1.5 43q0 44 4 81t9.5 75t9.5 81.5t4 99.5v118z" />
    <glyph glyph-name="FL0078h" horiz-adv-x="622" 
d="M250 452l152 -440h-8v-12h198v12h-38l-202 521q65 62 106 108.5t58 78.5h76v12h-202v-12h8q2 -6 3 -12.5t1 -14.5q0 -77 -58 -141l-62 168h8v12h-260v-12h106l104 -247q-88 -132 -120 -199q-32 -66 -50.5 -131t-23.5 -131h-16v-12h216v12h-8q-58 89 -58 190q0 110 70 250
z" />
    <glyph glyph-name="FL0079h" horiz-adv-x="495" 
d="M411 13h-67v168h42l67 539h12v12h-155v-12h8l-48 -513h-1l-73 513h8v12h-174v-12h18l100 -538h50v-169h-59v-13h272v13z" />
    <glyph glyph-name="FL007Ah" horiz-adv-x="622" 
d="M532 720h60v12h-458q0 -8 5.5 -20t15.5 -23.5t25 -19.5t33 -8q3 0 5 2q-2 1 -2 5q0 5 17.5 12t42.5 14.5t52.5 14t47.5 9.5h10v-68q0 -103 -142 -213q-178 -137 -178 -310q0 -28 4.5 -57t15.5 -58h-56v-12h562q0 8 -5.5 20t-15.5 23.5t-25 19.5t-33 8q-3 0 -5 -2
q2 -1 2 -5q0 -6 -13 -14.5t-35 -16.5t-51 -14t-61 -6h-91q-47 91 -47 202q0 67 22 112t55 82q14 16 38 34.5t51 40.5t54.5 46.5t49.5 53t36 60.5t14 68v8z" />
    <glyph glyph-name="FL007Bh" horiz-adv-x="611" 
d="M179 -84q-21 0 -21 13l8 34q0 11 -20 11q-55 -13 -94 -25q-22 -6 -22 -19q0 -31 122 -31q55 0 98 8.5t79 28t67.5 52t62.5 81.5q18 28 31 70.5t21.5 89t12 92.5t3.5 81v322h54v12h-272v-12h64v-408q0 -70 -8 -138.5t-25 -124.5t-43 -93t-61 -43z" />
    <glyph glyph-name="FL0410h" horiz-adv-x="622" 
d="M386 12h-8v-12h214v12h-60v708h60v12h-379q-1 -1 -1 -4q0 -6 5.5 -17.5t16 -23t25.5 -19.5t33 -8q3 0 5 2q-2 1 -2 5q0 10 20.5 27.5t60.5 23.5h10v-68q0 -103 -142 -213q-178 -137 -178 -310q0 -28 4.5 -57t15.5 -58h-56v-12h238v12h-8q-24 43 -36 98q12 46 162 69v-167
zM386 196q-57 -3 -100 -7.5t-72 -11.5q-2 10 -2 19v19q0 132 66 206q87 94 108 132v-357z" />
    <glyph glyph-name="FL0411h" horiz-adv-x="584" 
d="M236 650v70h88v-70q0 -3 5.5 -13.5t15 -23t22 -26.5t26.5 -24q39 -28 67 -43t48 -18q-43 38 -43 100v130h-435v-12h58v-708h-58v-12h502q11 33 16.5 64.5t5.5 62.5q0 173 -179 310q-139 108 -139 213zM362 12h-126v541q11 -19 36.5 -51.5t69.5 -80.5q66 -74 66 -204
q0 -110 -46 -205z" />
    <glyph glyph-name="FL0412h" horiz-adv-x="586" 
d="M276 526q9 -4 17.5 -8t28.5 -4q41 0 71 9t55 27q17 12 24.5 27t7.5 33q0 37 -24 62t-60 39.5t-78 20.5t-78 6q-66 0 -104 -19.5t-38 -72.5v-634h-68v-12h502q24 66 24 127q0 173 -179 310q-65 50 -101 89zM246 12v530q12 -20 36 -49.5t62 -71.5q66 -74 66 -204
q0 -112 -48 -205h-116zM246 689q0 12 10 21t30 9q31 0 42.5 -21t11.5 -61q0 -45 -9 -70t-39 -25q-17 0 -30 8q-16 11 -16 52v87z" />
    <glyph glyph-name="FL0413h" horiz-adv-x="544" 
d="M326 720v-118q0 -5 5.5 -14.5t16 -22t25 -26.5t32.5 -27q35 -25 61.5 -39.5t47.5 -19.5q-12 15 -20 27.5t-13 25t-7 25.5t-2 30v171h-442v-12h58v-708h-58v-12h442v12h-236v708h90z" />
    <glyph glyph-name="FL0414h" horiz-adv-x="712" 
d="M567 54v666h60v12h-379q-2 -2 -2 -4q0 -6 6 -17.5t16.5 -23t25 -19.5t32.5 -8q2 0 6 2q-3 2 -3 6q0 6 7 13.5t18 15.5t26 14t32 9h9v-70q0 -104 -141 -213q-179 -137 -179 -278q0 -50 18 -108q-17 -3 -32.5 -4t-28.5 -2.5t-20.5 -3t-7.5 -5.5l6 -9t16.5 -19.5t25.5 -19.5
t33 -9q2 0 4 2q-2 4 -2 10q0 25 82 43q36 8 76 12t84 4t84 -4t78 -12q84 -18 84 -43q0 -6 -5 -11l5 -2q18 0 33 9t25.5 19.5t16.5 19.5l6 9q0 3 -1 5q-23 5 -51 8t-63 6zM291 62q-44 85 -44 176q0 109 66 183q87 94 108 132v-491h-130z" />
    <glyph glyph-name="FL0415h" horiz-adv-x="586" 
d="M152 497q-8 25 -12 48t-4 45q0 128 106 128q96 0 126 -114h148q-36 130 -246 130q-58 0 -103 -18.5t-75.5 -52.5t-46 -80.5t-15.5 -103.5q0 -28 4 -52t14 -47.5t26.5 -48.5t41.5 -55q20 -23 48 -53t65 -65q37 -36 37 -89q0 -50 -42 -54q-4 -1 -12 -1q-11 0 -17.5 4.5
t-6.5 11.5q0 5 5 14.5t5 16.5q0 10 -18 10q-27 -7 -50 -13t-42 -11q-11 0 -18.5 -7.5t-7.5 -12.5q0 -31 122 -31q55 0 99.5 8.5t80.5 28.5t66 53t57 82q29 54 46.5 117t22.5 137l-142 -11v-46q0 -70 -3.5 -121.5t-11.5 -86.5q-31 -133 -131 -142q60 33 60 97q0 70 -70 186
q-87 143 -102 184q303 11 303 49q0 19 -27.5 29.5t-65.5 16.5l1 -4q0 -23 -63 -44q-32 -11 -69.5 -19t-82.5 -13z" />
    <glyph glyph-name="FL0416h" horiz-adv-x="916" 
d="M678 720q5 -14 6.5 -29t1.5 -31q0 -65 -38 -87t-72 -22q-16 0 -30 7q-14 11 -14 30v132h8v12h-162v-12h8v-132q0 -19 -14 -30q-6 -3 -13.5 -5t-18.5 -2q-35 0 -72 23q-38 22 -38 89q0 15 1.5 29t6.5 28h8v12h-138q-5 -17 -7.5 -34t-2.5 -34q0 -84 46 -113
q26 -16 58 -23.5t70 -7.5q39 0 74 11q-35 -31 -60 -53t-42 -37q-178 -139 -178 -314q0 -28 4.5 -57t15.5 -58h-56v-12h238v12h-8q-48 93 -48 206q0 132 66 206q48 53 75 82.5t33 35.5v-530h-8v-12h162v12h-8v531q32 -36 57.5 -66t48.5 -53q68 -72 68 -206q0 -113 -48 -206
h-8v-12h236v12h-54q11 29 15.5 58t4.5 57q0 175 -180 315q-41 32 -67.5 55t-40.5 36q38 -13 82 -13q38 0 70 7.5t58 23.5q44 28 44 113q0 18 -1.5 34.5t-6.5 33.5h-140v-12h8z" />
    <glyph glyph-name="FL0417h" horiz-adv-x="471" 
d="M161 146q-14 -12 -36.5 -33.5t-57.5 -50.5q-37 -33 -37 -44q0 -12 42 -17t107 -5q34 0 70 15q38 16 38 27q0 6 -10 8q-41 11 -64.5 17t-29.5 8q-20 0 -20 -9q0 -5 5 -16t5 -16q0 -16 -34 -16q-50 0 -50 19q0 18 102 101q38 30 78.5 73t73.5 91t54.5 98t21.5 95
q0 20 -3.5 37t-13.5 29t-27.5 18.5t-44.5 6.5q-23 0 -47.5 -7.5t-51.5 -10.5l210 168h-410q0 -6 5.5 -18t16 -24t25.5 -21t34 -9q2 0 4 2q-2 3 -2 8q0 7 14.5 16t35.5 17t45.5 13t45.5 5q10 0 14 -1l-238 -190q53 9 92 14t66 5q22 0 36.5 -11.5t23 -28.5t11.5 -38.5t3 -40.5
q0 -37 -4 -73.5t-15.5 -71.5t-31.5 -70t-51 -69z" />
    <glyph glyph-name="FL0418h" 
d="M236 116q81 72 128 72q20 0 20 -20v-156h-8v-12h214v12h-58v708h58v12h-214v-12h8v-486q-28 -6 -68 -27q-55 -29 -80 -73v586h8v12h-214v-12h58v-708h-58v-12h214v12h-8v104z" />
    <glyph glyph-name="FL0419h" 
d="M384 12h-8v-12h214v12h-58v610h58v12h-214v-12h8v-388q-28 -6 -68 -27q-55 -29 -80 -73v488h8v12h-214v-12h58v-610h-58v-12h214v12h-8v104q81 72 128 72q20 0 20 -20v-156zM312 664q54 2 101 2t81.5 2t54 7t19.5 16q0 13 -19.5 30t-50.5 25q-5 0 -5 -2t2.5 -5t2.5 -6
q0 -17 -24 -28.5t-55.5 -18t-62 -9t-44.5 -2.5t-45 2.5t-62.5 8.5t-55 17t-23.5 28q0 7 6 13q-1 1 -6 1q-15 0 -27.5 -7.5t-21.5 -17t-14 -18t-5 -11.5q0 -12 18.5 -17t51.5 -6.5t80 -1.5t104 -2z" />
    <glyph glyph-name="FL041Ah" 
d="M236 538q39 -41 70.5 -73t54 -66t35 -76.5t12.5 -104.5q0 -57 -11.5 -108t-34.5 -98h-8v-12h236v12h-54q18 58 18 115t-24.5 114.5t-64.5 110.5t-91.5 98t-105.5 77q38 -13 82 -13q51 0 84 9.5t52.5 32.5t27.5 63t8 101h50v12h-190q5 -14 7.5 -30.5t2.5 -33.5
q0 -62 -30.5 -92t-81.5 -30q-18 0 -31 9t-13 27v138h8v12h-214v-12h58v-708h-58v-12h214v12h-8v526z" />
    <glyph glyph-name="FL041Bh" horiz-adv-x="622" 
d="M260 12q-48 93 -48 205q0 130 66 204q87 94 108 132v-541h-8v-12h214v12h-60v708h60v12h-380q0 -6 5.5 -18t16 -24t25.5 -21t33 -9q2 0 6 2q-2 1 -2 5q0 6 7 14t19 15.5t28.5 14t34.5 9.5h1v-70q0 -104 -142 -213q-178 -137 -178 -310q0 -28 4.5 -57t15.5 -58h-56v-12
h238v12h-8z" />
    <glyph glyph-name="FL041Ch" horiz-adv-x="916" 
d="M678 12h-8v-12h216v12h-60v708h60v12h-216v-12h8v-106q0 -1 -13 -16.5t-34 -42.5t-46 -63.5t-49 -79.5t-44 -90.5t-30 -96.5q-5 50 -23 98t-43.5 90.5t-53.5 79t-51.5 63.5t-39 43t-15.5 17v104h8v12h-214v-12h58v-708h-58v-12h214v12h-8v569q49 -74 78 -132t44 -109
t19.5 -98t4.5 -99v-131h-8v-12h168v12h-8v45q0 65 1 114.5t5 89.5t13 74.5t25 71t40.5 77.5t59.5 94v-566z" />
    <glyph glyph-name="FL041Dh" 
d="M236 522q27 -8 64 -12t84 -4v-494h-8v-12h214v12h-58v708h58v12h-214v-12h8v-196q-101 8 -148 49v147h8v12h-214v-12h58v-708h-58v-12h214v12h-8v510z" />
    <glyph glyph-name="FL041Eh" horiz-adv-x="582" 
d="M230 158q34 -34 34 -87q0 -31 -13.5 -44t-37.5 -13q-27 0 -27 19v22q0 16 -20 16q-9 0 -28 -3t-38 -8.5t-33.5 -13t-14.5 -16.5q0 -12 13.5 -19t32 -11t38 -5t32.5 -1q111 0 185 30t118 81.5t62.5 122t18.5 151.5q0 73 -14.5 137.5t-48 113.5t-87.5 77.5t-132 28.5
q-58 0 -102.5 -19t-75 -53t-46.5 -81.5t-16 -103.5q0 -53 19 -99t67 -104q20 -23 48 -53t66 -65zM220 718q8 1 12 1h10q37 0 67 -20.5t51.5 -61t33.5 -102t12 -142.5q0 -175 -33.5 -270.5t-118.5 -108.5q58 37 58 110q0 87 -78 204q-88 134 -88 264q0 113 74 126z" />
    <glyph glyph-name="FL041Fh" 
d="M384 700v-688h-8v-12h214v12h-58v708h58v12h-560v-12h58v-708h-58v-12h214v12h-8v697q16 1 27.5 4t37.5 3q45 0 64 -5.5t19 -10.5z" />
    <glyph glyph-name="FL0420h" horiz-adv-x="598" 
d="M258 132q0 28 104 129q40 39 77 74.5t65.5 70.5t46 72.5t17.5 79.5q0 34 -16 60t-42.5 45.5t-61.5 33t-72.5 22t-75.5 12t-70 3.5q-37 0 -63.5 -2.5t-43.5 -12.5t-25 -28.5t-8 -51.5v-627h-60v-12h380v12h-174v97q35 -19 84 -19q29 0 47 3t27.5 7.5t12.5 11t3 12.5
q0 11 -10.5 19t-25 13t-29 7.5t-21.5 2.5q-18 0 -18 -11q0 -2 2 -7t4 -11t4 -11t2 -8q0 -9 -14 -9q-5 0 -12.5 1t-15 3.5t-13 6.5t-5.5 10v2zM326 702q84 -36 84 -164q0 -145 -82 -260q-43 -59 -66.5 -96.5t-25.5 -54.5v562q0 25 38 25q25 0 52 -12z" />
    <glyph glyph-name="FL0421h" horiz-adv-x="578" 
d="M197 13q-21 0 -21 13l8 34q0 11 -20 11q-55 -13 -94 -25q-22 -6 -22 -19q0 -31 122 -31q55 0 98 8.5t79 28t67.5 52t62.5 81.5q37 56 54 111t17 125l-154 -15v-71q0 -278 -140 -302q58 37 58 110q0 87 -78 204q-88 134 -88 264q0 128 98 128q93 0 132 -138h150
q-9 34 -32 62.5t-57 48.5t-76.5 31.5t-90.5 11.5q-60 0 -105 -18.5t-75 -52t-45 -81t-15 -105.5q0 -52 19.5 -99.5t66.5 -103.5q12 -15 36 -36.5t48 -47.5t42 -54.5t18 -57.5q0 -31 -15 -48t-41 -19h-7z" />
    <glyph glyph-name="FL0422h" horiz-adv-x="706" 
d="M282 720v-708h-218v-12h582v12h-218v708h82v-159q0 -10 22.5 -27t51.5 -33t56 -27.5t36 -11.5q-17 23 -23.5 44t-6.5 55v171h-582v-171q0 -34 -8 -54.5t-26 -40.5q7 0 22.5 5t34.5 13t39 18.5t36.5 21t27 20.5t10.5 17v159h82z" />
    <glyph glyph-name="FL0423h" horiz-adv-x="634" 
d="M196 720h8v12h-174v-12h18l204 -536q-95 -15 -95 -36q0 -14 20 -23.5t47 -22.5q27 74 192 80q-21 -76 -48 -112q-21 -24 -53 -39t-70 -15q-25 0 -25 16l6 26q0 13 -22 13q-9 0 -27.5 -2t-37.5 -6.5t-33 -12.5t-14 -20q0 -13 12.5 -20t30.5 -10.5t37.5 -4.5t33.5 -1
q74 0 144 32q101 46 152 352q45 267 102 354h-190v-12h8q-1 -5 -1 -30q0 -37 2.5 -113t7.5 -191q1 -12 1 -23v-21q0 -39 -3 -76t-11 -72h-22z" />
    <glyph glyph-name="FL0424h" horiz-adv-x="860" 
d="M178 0h506v12h-180v111q41 -22 164 -22q104 0 130 29q32 33 32 84q0 136 -209 345q-79 79 -107 159q11 0 26 -5.5t28.5 -13t23 -15t9.5 -10.5l-3 -7q0 -1 5 -1q39 14 60 33.5t21 32.5h-506q0 -2 5 -12.5t15 -22.5t24.5 -21.5t34.5 -9.5q4 0 6 2q-2 2 -2 6q0 5 9 12.5
t22 14.5t28 12t26 5q-21 -64 -107 -157q-209 -221 -209 -350q0 -48 30 -81q27 -28 128 -28q117 0 168 21v-111h-178v-12zM356 139q-22 -20 -76 -20q-27 0 -46.5 11.5t-31.5 31.5t-18 46.5t-6 55.5q0 155 94 281q65 100 84 137v-543zM624 130q-19 -11 -48 -11q-47 0 -72 20
v543q51 -95 83 -140q97 -134 97 -284q0 -95 -60 -128z" />
    <glyph glyph-name="FL0425h" horiz-adv-x="622" 
d="M250 452l152 -440h-8v-12h198v12h-38l-202 521q65 62 106 108.5t58 78.5h76v12h-202v-12h8q2 -6 3 -12.5t1 -14.5q0 -77 -58 -141l-62 168h8v12h-260v-12h106l104 -247q-88 -132 -120 -199q-32 -66 -50.5 -131t-23.5 -131h-16v-12h216v12h-8q-58 89 -58 190q0 110 70 250
z" />
    <glyph glyph-name="FL0426h" horiz-adv-x="662" 
d="M384 52q-36 -2 -73 -5.5t-75 -10.5v684h8v12h-214v-12h58v-709l-58 -9v-20q49 9 94.5 17t90.5 15t90.5 11t94.5 4q151 0 151 -35q0 -3 -2 -5.5t-4 -6.5l1.5 -0.5t3.5 -0.5q37 12 59.5 29.5t22.5 28.5q0 4 -14.5 7t-32.5 5t-34 2.5t-19 0.5v666h58v12h-214v-12h8v-668z
" />
    <glyph glyph-name="FL0427h" horiz-adv-x="622" 
d="M386 179q-21 37 -108 132q-66 73 -66 204q0 112 48 205h8v12h-238v-12h56q-11 -29 -15.5 -58t-4.5 -57q0 -173 178 -310q142 -109 142 -213v-70h-174v-12h380v12h-60v708h60v12h-214v-12h8v-541z" />
    <glyph glyph-name="FL0428h" horiz-adv-x="916" 
d="M678 720v-696q-20 -10 -90 -10q-56 0 -56 10v696h8v12h-164v-12h8v-696q-23 -10 -92 -10q-56 0 -56 10v696h8v12h-214v-12h58v-708h-58v-12h856v12h-60v708h60v12h-216v-12h8z" />
    <glyph glyph-name="FL0429h" horiz-adv-x="916" 
d="M532 44v676h8v12h-164v-12h8v-676q-51 -2 -88 -4.5t-60 -5.5v686h8v12h-214v-12h58v-707q-24 -5 -38.5 -8t-19.5 -5v-14q32 3 65.5 5t66.5 2q41 0 80 -8.5t76 -18.5t71.5 -18.5t66.5 -8.5q34 0 68 8.5t69 18t72 18t76 8.5q65 0 143 -6v14q-12 3 -26.5 6t-31.5 7v707h60
v12h-216v-12h8v-685q-54 6 -146 9z" />
    <glyph glyph-name="FL042Ah" horiz-adv-x="586" 
d="M371 718q-71 -51 -126 -111t-95 -135q-37 -69 -48.5 -184t-11.5 -276h-60v-12h502q24 64 24 127q0 55 -23.5 106.5t-59 100.5t-78 96t-79.5 95q23 36 56 72.5t80 74.5q20 16 41.5 31t44.5 29h-378q0 -5 5.5 -17t15.5 -24t25 -21.5t35 -9.5q2 0 4 2q-3 3 -3 8q0 8 12 16
t31 14.5t42 12t44 7.5v-2zM362 12h-124q-2 26 -3 54t-1 59q0 278 64 363q24 -35 44.5 -63t36 -57t24.5 -64t9 -84q0 -115 -50 -208z" />
    <glyph glyph-name="FL042Ch" horiz-adv-x="584" 
d="M236 720h57v12h-263v-12h58v-708h-58v-12h502q11 33 16.5 64.5t5.5 62.5q0 173 -179 310q-139 108 -139 213v70zM362 12h-126v541q11 -19 36.5 -51.5t69.5 -80.5q66 -74 66 -204q0 -110 -46 -205z" />
    <glyph glyph-name="FL042Dh" horiz-adv-x="574" 
d="M386 513q3 -15 5.5 -37t4 -46t2.5 -48t1 -44q0 -300 -155 -324q60 36 60 111q0 46 -24 104.5t-66 116.5l-140 -17q4 -19 19 -38t35 -39t42.5 -40.5t41 -43t30.5 -47t12 -50.5t-11.5 -40.5t-39.5 -16.5q-27 0 -27 19v6t2 16q0 16 -17 16q-12 0 -32 -3.5t-38.5 -9
t-32.5 -13t-14 -15.5q0 -12 13 -19.5t31 -11t37.5 -4.5t32.5 -1q107 0 164 30q43 22 83 62.5t71 90t49.5 102.5t18.5 100q0 72 -15 137t-49 114t-87.5 77.5t-130.5 28.5q-208 0 -232 -210h112q-6 34 -6 65q0 69 23.5 98.5t74.5 29.5q111 0 150 -192q-275 -13 -275 -53
q0 -14 19.5 -23t47.5 -22l-1 4q0 22 59 45q33 12 70.5 21t81.5 14z" />
    <glyph glyph-name="FL042Eh" horiz-adv-x="886" 
d="M334 486v-31t2 -25q5 -34 25 -69.5t48 -71t60.5 -69t62.5 -62.5q34 -34 34 -87q0 -37 -17.5 -47t-44.5 -10q-16 0 -16 5q7 14 7 18q0 11 -20 11q-4 0 -15.5 -1.5t-23.5 -4.5t-21.5 -8.5t-9.5 -14.5q0 -6 1.5 -10.5t8 -7.5t19.5 -5t36 -2q107 0 164 30q43 22 83 62.5
t71 90t49.5 102.5t18.5 100q0 72 -15 137t-49 113.5t-87.5 77.5t-130.5 29q-111 0 -174 -67q-55 -58 -64 -159q-73 15 -100 39v171h100v12h-306v-12h58v-708h-58v-12h306v11h-100v487q20 -4 44.5 -7t53.5 -5zM522 718q7 1 12 1h12q43 0 74 -29.5t51 -80.5t30 -120.5
t10 -150.5q0 -300 -155 -324q60 36 60 110q0 87 -78 204q-90 132 -90 264q0 113 74 126z" />
    <glyph glyph-name="FL042Fh" horiz-adv-x="586" 
d="M340 -65h-8v-12h224v12h-68v634q0 31 -9 49t-26.5 27.5t-44 12.5t-62.5 3q-38 0 -80 -3t-77.5 -15t-59 -36t-23.5 -67q0 -54 32.5 -80t81.5 -26q23 0 45 3.5t45 11.5q-18 -20 -43.5 -41.5t-57.5 -46.5q-179 -137 -179 -311q0 -61 24 -127h178v12h-8q-48 93 -48 205
q0 132 68 204q76 83 96 121v-530zM340 525q0 -32 -9 -45.5t-35 -13.5q-16 0 -33 6t-31.5 17.5t-24 28t-9.5 38.5q0 20 8.5 36t22.5 27t32.5 17t38.5 6q37 0 40 -24v-93z" />
    <glyph glyph-name="FL0430h" horiz-adv-x="622" 
d="M386 12h-8v-12h214v12h-60v708h60v12h-379q-1 -1 -1 -4q0 -6 5.5 -17.5t16 -23t25.5 -19.5t33 -8q3 0 5 2q-2 1 -2 5q0 10 20.5 27.5t60.5 23.5h10v-68q0 -103 -142 -213q-178 -137 -178 -310q0 -28 4.5 -57t15.5 -58h-56v-12h238v12h-8q-24 43 -36 98q12 46 162 69v-167
zM386 196q-57 -3 -100 -7.5t-72 -11.5q-2 10 -2 19v19q0 132 66 206q87 94 108 132v-357z" />
    <glyph glyph-name="FL0431h" horiz-adv-x="584" 
d="M236 650v70h88v-70q0 -3 5.5 -13.5t15 -23t22 -26.5t26.5 -24q39 -28 67 -43t48 -18q-43 38 -43 100v130h-435v-12h58v-708h-58v-12h502q11 33 16.5 64.5t5.5 62.5q0 173 -179 310q-139 108 -139 213zM362 12h-126v541q11 -19 36.5 -51.5t69.5 -80.5q66 -74 66 -204
q0 -110 -46 -205z" />
    <glyph glyph-name="FL0432h" horiz-adv-x="586" 
d="M276 526q9 -4 17.5 -8t28.5 -4q41 0 71 9t55 27q17 12 24.5 27t7.5 33q0 37 -24 62t-60 39.5t-78 20.5t-78 6q-66 0 -104 -19.5t-38 -72.5v-634h-68v-12h502q24 66 24 127q0 173 -179 310q-65 50 -101 89zM246 12v530q12 -20 36 -49.5t62 -71.5q66 -74 66 -204
q0 -112 -48 -205h-116zM246 689q0 12 10 21t30 9q31 0 42.5 -21t11.5 -61q0 -45 -9 -70t-39 -25q-17 0 -30 8q-16 11 -16 52v87z" />
    <glyph glyph-name="FL0433h" horiz-adv-x="544" 
d="M326 720v-118q0 -5 5.5 -14.5t16 -22t25 -26.5t32.5 -27q35 -25 61.5 -39.5t47.5 -19.5q-12 15 -20 27.5t-13 25t-7 25.5t-2 30v171h-442v-12h58v-708h-58v-12h442v12h-236v708h90z" />
    <glyph glyph-name="FL0434h" horiz-adv-x="712" 
d="M567 54v666h60v12h-379q-2 -2 -2 -4q0 -6 6 -17.5t16.5 -23t25 -19.5t32.5 -8q2 0 6 2q-3 2 -3 6q0 6 7 13.5t18 15.5t26 14t32 9h9v-70q0 -104 -141 -213q-179 -137 -179 -278q0 -50 18 -108q-17 -3 -32.5 -4t-28.5 -2.5t-20.5 -3t-7.5 -5.5l6 -9t16.5 -19.5t25.5 -19.5
t33 -9q2 0 4 2q-2 4 -2 10q0 25 82 43q36 8 76 12t84 4t84 -4t78 -12q84 -18 84 -43q0 -6 -5 -11l5 -2q18 0 33 9t25.5 19.5t16.5 19.5l6 9q0 3 -1 5q-23 5 -51 8t-63 6zM291 62q-44 85 -44 176q0 109 66 183q87 94 108 132v-491h-130z" />
    <glyph glyph-name="FL0435h" horiz-adv-x="586" 
d="M152 497q-8 25 -12 48t-4 45q0 128 106 128q96 0 126 -114h148q-36 130 -246 130q-58 0 -103 -18.5t-75.5 -52.5t-46 -80.5t-15.5 -103.5q0 -28 4 -52t14 -47.5t26.5 -48.5t41.5 -55q20 -23 48 -53t65 -65q37 -36 37 -89q0 -50 -42 -54q-4 -1 -12 -1q-11 0 -17.5 4.5
t-6.5 11.5q0 5 5 14.5t5 16.5q0 10 -18 10q-27 -7 -50 -13t-42 -11q-11 0 -18.5 -7.5t-7.5 -12.5q0 -31 122 -31q55 0 99.5 8.5t80.5 28.5t66 53t57 82q29 54 46.5 117t22.5 137l-142 -11v-46q0 -70 -3.5 -121.5t-11.5 -86.5q-31 -133 -131 -142q60 33 60 97q0 70 -70 186
q-87 143 -102 184q303 11 303 49q0 19 -27.5 29.5t-65.5 16.5l1 -4q0 -23 -63 -44q-32 -11 -69.5 -19t-82.5 -13z" />
    <glyph glyph-name="FL0436h" horiz-adv-x="916" 
d="M678 720q5 -14 6.5 -29t1.5 -31q0 -65 -38 -87t-72 -22q-16 0 -30 7q-14 11 -14 30v132h8v12h-162v-12h8v-132q0 -19 -14 -30q-6 -3 -13.5 -5t-18.5 -2q-35 0 -72 23q-38 22 -38 89q0 15 1.5 29t6.5 28h8v12h-138q-5 -17 -7.5 -34t-2.5 -34q0 -84 46 -113
q26 -16 58 -23.5t70 -7.5q39 0 74 11q-35 -31 -60 -53t-42 -37q-178 -139 -178 -314q0 -28 4.5 -57t15.5 -58h-56v-12h238v12h-8q-48 93 -48 206q0 132 66 206q48 53 75 82.5t33 35.5v-530h-8v-12h162v12h-8v531q32 -36 57.5 -66t48.5 -53q68 -72 68 -206q0 -113 -48 -206
h-8v-12h236v12h-54q11 29 15.5 58t4.5 57q0 175 -180 315q-41 32 -67.5 55t-40.5 36q38 -13 82 -13q38 0 70 7.5t58 23.5q44 28 44 113q0 18 -1.5 34.5t-6.5 33.5h-140v-12h8z" />
    <glyph glyph-name="FL0437h" horiz-adv-x="471" 
d="M161 146q-14 -12 -36.5 -33.5t-57.5 -50.5q-37 -33 -37 -44q0 -12 42 -17t107 -5q34 0 70 15q38 16 38 27q0 6 -10 8q-41 11 -64.5 17t-29.5 8q-20 0 -20 -9q0 -5 5 -16t5 -16q0 -16 -34 -16q-50 0 -50 19q0 18 102 101q38 30 78.5 73t73.5 91t54.5 98t21.5 95
q0 20 -3.5 37t-13.5 29t-27.5 18.5t-44.5 6.5q-23 0 -47.5 -7.5t-51.5 -10.5l210 168h-410q0 -6 5.5 -18t16 -24t25.5 -21t34 -9q2 0 4 2q-2 3 -2 8q0 7 14.5 16t35.5 17t45.5 13t45.5 5q10 0 14 -1l-238 -190q53 9 92 14t66 5q22 0 36.5 -11.5t23 -28.5t11.5 -38.5t3 -40.5
q0 -37 -4 -73.5t-15.5 -71.5t-31.5 -70t-51 -69z" />
    <glyph glyph-name="FL0438h" 
d="M236 116q81 72 128 72q20 0 20 -20v-156h-8v-12h214v12h-58v708h58v12h-214v-12h8v-486q-28 -6 -68 -27q-55 -29 -80 -73v586h8v12h-214v-12h58v-708h-58v-12h214v12h-8v104z" />
    <glyph glyph-name="FL0439h" 
d="M384 12h-8v-12h214v12h-58v610h58v12h-214v-12h8v-388q-28 -6 -68 -27q-55 -29 -80 -73v488h8v12h-214v-12h58v-610h-58v-12h214v12h-8v104q81 72 128 72q20 0 20 -20v-156zM312 664q54 2 101 2t81.5 2t54 7t19.5 16q0 13 -19.5 30t-50.5 25q-5 0 -5 -2t2.5 -5t2.5 -6
q0 -17 -24 -28.5t-55.5 -18t-62 -9t-44.5 -2.5t-45 2.5t-62.5 8.5t-55 17t-23.5 28q0 7 6 13q-1 1 -6 1q-15 0 -27.5 -7.5t-21.5 -17t-14 -18t-5 -11.5q0 -12 18.5 -17t51.5 -6.5t80 -1.5t104 -2z" />
    <glyph glyph-name="FL043Ah" 
d="M236 538q39 -41 70.5 -73t54 -66t35 -76.5t12.5 -104.5q0 -57 -11.5 -108t-34.5 -98h-8v-12h236v12h-54q18 58 18 115t-24.5 114.5t-64.5 110.5t-91.5 98t-105.5 77q38 -13 82 -13q51 0 84 9.5t52.5 32.5t27.5 63t8 101h50v12h-190q5 -14 7.5 -30.5t2.5 -33.5
q0 -62 -30.5 -92t-81.5 -30q-18 0 -31 9t-13 27v138h8v12h-214v-12h58v-708h-58v-12h214v12h-8v526z" />
    <glyph glyph-name="FL043Bh" horiz-adv-x="622" 
d="M260 12q-48 93 -48 205q0 130 66 204q87 94 108 132v-541h-8v-12h214v12h-60v708h60v12h-380q0 -6 5.5 -18t16 -24t25.5 -21t33 -9q2 0 6 2q-2 1 -2 5q0 6 7 14t19 15.5t28.5 14t34.5 9.5h1v-70q0 -104 -142 -213q-178 -137 -178 -310q0 -28 4.5 -57t15.5 -58h-56v-12
h238v12h-8z" />
    <glyph glyph-name="FL043Ch" horiz-adv-x="916" 
d="M678 12h-8v-12h216v12h-60v708h60v12h-216v-12h8v-106q0 -1 -13 -16.5t-34 -42.5t-46 -63.5t-49 -79.5t-44 -90.5t-30 -96.5q-5 50 -23 98t-43.5 90.5t-53.5 79t-51.5 63.5t-39 43t-15.5 17v104h8v12h-214v-12h58v-708h-58v-12h214v12h-8v569q49 -74 78 -132t44 -109
t19.5 -98t4.5 -99v-131h-8v-12h168v12h-8v45q0 65 1 114.5t5 89.5t13 74.5t25 71t40.5 77.5t59.5 94v-566z" />
    <glyph glyph-name="FL043Dh" 
d="M236 522q27 -8 64 -12t84 -4v-494h-8v-12h214v12h-58v708h58v12h-214v-12h8v-196q-101 8 -148 49v147h8v12h-214v-12h58v-708h-58v-12h214v12h-8v510z" />
    <glyph glyph-name="FL043Eh" horiz-adv-x="582" 
d="M230 158q34 -34 34 -87q0 -31 -13.5 -44t-37.5 -13q-27 0 -27 19v22q0 16 -20 16q-9 0 -28 -3t-38 -8.5t-33.5 -13t-14.5 -16.5q0 -12 13.5 -19t32 -11t38 -5t32.5 -1q111 0 185 30t118 81.5t62.5 122t18.5 151.5q0 73 -14.5 137.5t-48 113.5t-87.5 77.5t-132 28.5
q-58 0 -102.5 -19t-75 -53t-46.5 -81.5t-16 -103.5q0 -53 19 -99t67 -104q20 -23 48 -53t66 -65zM220 718q8 1 12 1h10q37 0 67 -20.5t51.5 -61t33.5 -102t12 -142.5q0 -175 -33.5 -270.5t-118.5 -108.5q58 37 58 110q0 87 -78 204q-88 134 -88 264q0 113 74 126z" />
    <glyph glyph-name="FL043Fh" 
d="M384 700v-688h-8v-12h214v12h-58v708h58v12h-560v-12h58v-708h-58v-12h214v12h-8v697q16 1 27.5 4t37.5 3q45 0 64 -5.5t19 -10.5z" />
    <glyph glyph-name="FL0440h" horiz-adv-x="598" 
d="M258 132q0 28 104 129q40 39 77 74.5t65.5 70.5t46 72.5t17.5 79.5q0 34 -16 60t-42.5 45.5t-61.5 33t-72.5 22t-75.5 12t-70 3.5q-37 0 -63.5 -2.5t-43.5 -12.5t-25 -28.5t-8 -51.5v-627h-60v-12h380v12h-174v97q35 -19 84 -19q29 0 47 3t27.5 7.5t12.5 11t3 12.5
q0 11 -10.5 19t-25 13t-29 7.5t-21.5 2.5q-18 0 -18 -11q0 -2 2 -7t4 -11t4 -11t2 -8q0 -9 -14 -9q-5 0 -12.5 1t-15 3.5t-13 6.5t-5.5 10v2zM326 702q84 -36 84 -164q0 -145 -82 -260q-43 -59 -66.5 -96.5t-25.5 -54.5v562q0 25 38 25q25 0 52 -12z" />
    <glyph glyph-name="FL0441h" horiz-adv-x="578" 
d="M197 13q-21 0 -21 13l8 34q0 11 -20 11q-55 -13 -94 -25q-22 -6 -22 -19q0 -31 122 -31q55 0 98 8.5t79 28t67.5 52t62.5 81.5q37 56 54 111t17 125l-154 -15v-71q0 -278 -140 -302q58 37 58 110q0 87 -78 204q-88 134 -88 264q0 128 98 128q93 0 132 -138h150
q-9 34 -32 62.5t-57 48.5t-76.5 31.5t-90.5 11.5q-60 0 -105 -18.5t-75 -52t-45 -81t-15 -105.5q0 -52 19.5 -99.5t66.5 -103.5q12 -15 36 -36.5t48 -47.5t42 -54.5t18 -57.5q0 -31 -15 -48t-41 -19h-7z" />
    <glyph glyph-name="FL0442h" horiz-adv-x="706" 
d="M282 720v-708h-218v-12h582v12h-218v708h82v-159q0 -10 22.5 -27t51.5 -33t56 -27.5t36 -11.5q-17 23 -23.5 44t-6.5 55v171h-582v-171q0 -34 -8 -54.5t-26 -40.5q7 0 22.5 5t34.5 13t39 18.5t36.5 21t27 20.5t10.5 17v159h82z" />
    <glyph glyph-name="FL0443h" horiz-adv-x="634" 
d="M196 720h8v12h-174v-12h18l204 -536q-95 -15 -95 -36q0 -14 20 -23.5t47 -22.5q27 74 192 80q-21 -76 -48 -112q-21 -24 -53 -39t-70 -15q-25 0 -25 16l6 26q0 13 -22 13q-9 0 -27.5 -2t-37.5 -6.5t-33 -12.5t-14 -20q0 -13 12.5 -20t30.5 -10.5t37.5 -4.5t33.5 -1
q74 0 144 32q101 46 152 352q45 267 102 354h-190v-12h8q-1 -5 -1 -30q0 -37 2.5 -113t7.5 -191q1 -12 1 -23v-21q0 -39 -3 -76t-11 -72h-22z" />
    <glyph glyph-name="FL0444h" horiz-adv-x="860" 
d="M178 0h506v12h-180v111q41 -22 164 -22q104 0 130 29q32 33 32 84q0 136 -209 345q-79 79 -107 159q11 0 26 -5.5t28.5 -13t23 -15t9.5 -10.5l-3 -7q0 -1 5 -1q39 14 60 33.5t21 32.5h-506q0 -2 5 -12.5t15 -22.5t24.5 -21.5t34.5 -9.5q4 0 6 2q-2 2 -2 6q0 5 9 12.5
t22 14.5t28 12t26 5q-21 -64 -107 -157q-209 -221 -209 -350q0 -48 30 -81q27 -28 128 -28q117 0 168 21v-111h-178v-12zM356 139q-22 -20 -76 -20q-27 0 -46.5 11.5t-31.5 31.5t-18 46.5t-6 55.5q0 155 94 281q65 100 84 137v-543zM624 130q-19 -11 -48 -11q-47 0 -72 20
v543q51 -95 83 -140q97 -134 97 -284q0 -95 -60 -128z" />
    <glyph glyph-name="FL0445h" horiz-adv-x="622" 
d="M250 452l152 -440h-8v-12h198v12h-38l-202 521q65 62 106 108.5t58 78.5h76v12h-202v-12h8q2 -6 3 -12.5t1 -14.5q0 -77 -58 -141l-62 168h8v12h-260v-12h106l104 -247q-88 -132 -120 -199q-32 -66 -50.5 -131t-23.5 -131h-16v-12h216v12h-8q-58 89 -58 190q0 110 70 250
z" />
    <glyph glyph-name="FL0446h" horiz-adv-x="662" 
d="M384 52q-36 -2 -73 -5.5t-75 -10.5v684h8v12h-214v-12h58v-709l-58 -9v-20q49 9 94.5 17t90.5 15t90.5 11t94.5 4q151 0 151 -35q0 -3 -2 -5.5t-4 -6.5l1.5 -0.5t3.5 -0.5q37 12 59.5 29.5t22.5 28.5q0 4 -14.5 7t-32.5 5t-34 2.5t-19 0.5v666h58v12h-214v-12h8v-668z
" />
    <glyph glyph-name="FL0447h" horiz-adv-x="622" 
d="M386 179q-21 37 -108 132q-66 73 -66 204q0 112 48 205h8v12h-238v-12h56q-11 -29 -15.5 -58t-4.5 -57q0 -173 178 -310q142 -109 142 -213v-70h-174v-12h380v12h-60v708h60v12h-214v-12h8v-541z" />
    <glyph glyph-name="FL0448h" horiz-adv-x="916" 
d="M678 720v-696q-20 -10 -90 -10q-56 0 -56 10v696h8v12h-164v-12h8v-696q-23 -10 -92 -10q-56 0 -56 10v696h8v12h-214v-12h58v-708h-58v-12h856v12h-60v708h60v12h-216v-12h8z" />
    <glyph glyph-name="FL0449h" horiz-adv-x="916" 
d="M532 44v676h8v12h-164v-12h8v-676q-51 -2 -88 -4.5t-60 -5.5v686h8v12h-214v-12h58v-707q-24 -5 -38.5 -8t-19.5 -5v-14q32 3 65.5 5t66.5 2q41 0 80 -8.5t76 -18.5t71.5 -18.5t66.5 -8.5q34 0 68 8.5t69 18t72 18t76 8.5q65 0 143 -6v14q-12 3 -26.5 6t-31.5 7v707h60
v12h-216v-12h8v-685q-54 6 -146 9z" />
    <glyph glyph-name="FL044Ah" horiz-adv-x="586" 
d="M371 718q-71 -51 -126 -111t-95 -135q-37 -69 -48.5 -184t-11.5 -276h-60v-12h502q24 64 24 127q0 55 -23.5 106.5t-59 100.5t-78 96t-79.5 95q23 36 56 72.5t80 74.5q20 16 41.5 31t44.5 29h-378q0 -5 5.5 -17t15.5 -24t25 -21.5t35 -9.5q2 0 4 2q-3 3 -3 8q0 8 12 16
t31 14.5t42 12t44 7.5v-2zM362 12h-124q-2 26 -3 54t-1 59q0 278 64 363q24 -35 44.5 -63t36 -57t24.5 -64t9 -84q0 -115 -50 -208z" />
    <glyph glyph-name="FL044Ch" horiz-adv-x="584" 
d="M236 720h57v12h-263v-12h58v-708h-58v-12h502q11 33 16.5 64.5t5.5 62.5q0 173 -179 310q-139 108 -139 213v70zM362 12h-126v541q11 -19 36.5 -51.5t69.5 -80.5q66 -74 66 -204q0 -110 -46 -205z" />
    <glyph glyph-name="FL044Dh" horiz-adv-x="574" 
d="M386 513q3 -15 5.5 -37t4 -46t2.5 -48t1 -44q0 -300 -155 -324q60 36 60 111q0 46 -24 104.5t-66 116.5l-140 -17q4 -19 19 -38t35 -39t42.5 -40.5t41 -43t30.5 -47t12 -50.5t-11.5 -40.5t-39.5 -16.5q-27 0 -27 19v6t2 16q0 16 -17 16q-12 0 -32 -3.5t-38.5 -9
t-32.5 -13t-14 -15.5q0 -12 13 -19.5t31 -11t37.5 -4.5t32.5 -1q107 0 164 30q43 22 83 62.5t71 90t49.5 102.5t18.5 100q0 72 -15 137t-49 114t-87.5 77.5t-130.5 28.5q-208 0 -232 -210h112q-6 34 -6 65q0 69 23.5 98.5t74.5 29.5q111 0 150 -192q-275 -13 -275 -53
q0 -14 19.5 -23t47.5 -22l-1 4q0 22 59 45q33 12 70.5 21t81.5 14z" />
    <glyph glyph-name="FL044Eh" horiz-adv-x="886" 
d="M334 486v-31t2 -25q5 -34 25 -69.5t48 -71t60.5 -69t62.5 -62.5q34 -34 34 -87q0 -37 -17.5 -47t-44.5 -10q-16 0 -16 5q7 14 7 18q0 11 -20 11q-4 0 -15.5 -1.5t-23.5 -4.5t-21.5 -8.5t-9.5 -14.5q0 -6 1.5 -10.5t8 -7.5t19.5 -5t36 -2q107 0 164 30q43 22 83 62.5
t71 90t49.5 102.5t18.5 100q0 72 -15 137t-49 113.5t-87.5 77.5t-130.5 29q-111 0 -174 -67q-55 -58 -64 -159q-73 15 -100 39v171h100v12h-306v-12h58v-708h-58v-12h306v11h-100v487q20 -4 44.5 -7t53.5 -5zM522 718q7 1 12 1h12q43 0 74 -29.5t51 -80.5t30 -120.5
t10 -150.5q0 -300 -155 -324q60 36 60 110q0 87 -78 204q-90 132 -90 264q0 113 74 126z" />
    <glyph glyph-name="FL044Fh" horiz-adv-x="586" 
d="M340 -65h-8v-12h224v12h-68v634q0 31 -9 49t-26.5 27.5t-44 12.5t-62.5 3q-38 0 -80 -3t-77.5 -15t-59 -36t-23.5 -67q0 -54 32.5 -80t81.5 -26q23 0 45 3.5t45 11.5q-18 -20 -43.5 -41.5t-57.5 -46.5q-179 -137 -179 -311q0 -61 24 -127h178v12h-8q-48 93 -48 205
q0 132 68 204q76 83 96 121v-530zM340 525q0 -32 -9 -45.5t-35 -13.5q-16 0 -33 6t-31.5 17.5t-24 28t-9.5 38.5q0 20 8.5 36t22.5 27t32.5 17t38.5 6q37 0 40 -24v-93z" />
    <glyph glyph-name="FL00F0h" horiz-adv-x="598" 
d="M258 132q0 28 104 129q40 39 77 74.5t65.5 70.5t46 72.5t17.5 79.5q0 34 -16 60t-42.5 45.5t-61.5 33t-72.5 22t-75.5 12t-70 3.5q-37 0 -63.5 -2.5t-43.5 -12.5t-25 -28.5t-8 -51.5v-627h-60v-12h380v12h-174v97q35 -19 84 -19q29 0 47 3t27.5 7.5t12.5 11t3 12.5
q0 11 -10.5 19t-25 13t-29 7.5t-21.5 2.5q-18 0 -18 -11q0 -2 2 -7t4 -11t4 -11t2 -8q0 -9 -14 -9q-5 0 -12.5 1t-15 3.5t-13 6.5t-5.5 10v2zM326 702q84 -36 84 -164q0 -145 -82 -260q-43 -59 -66.5 -96.5t-25.5 -54.5v562q0 25 38 25q25 0 52 -12z" />
    <glyph glyph-name="FL00FDh" horiz-adv-x="574" 
d="M386 513q3 -15 5.5 -37t4 -46t2.5 -48t1 -44q0 -300 -155 -324q60 36 60 111q0 46 -24 104.5t-66 116.5l-140 -17q4 -19 19 -38t35 -39t42.5 -40.5t41 -43t30.5 -47t12 -50.5t-11.5 -40.5t-39.5 -16.5q-27 0 -27 19v6t2 16q0 16 -17 16q-12 0 -32 -3.5t-38.5 -9
t-32.5 -13t-14 -15.5q0 -12 13 -19.5t31 -11t37.5 -4.5t32.5 -1q107 0 164 30q43 22 83 62.5t71 90t49.5 102.5t18.5 100q0 72 -15 137t-49 114t-87.5 77.5t-130.5 28.5q-208 0 -232 -210h112q-6 34 -6 65q0 69 23.5 98.5t74.5 29.5q111 0 150 -192q-275 -13 -275 -53
q0 -14 19.5 -23t47.5 -22l-1 4q0 22 59 45q33 12 70.5 21t81.5 14z" />
    <glyph glyph-name="FL00FEh" horiz-adv-x="886" 
d="M334 486v-31t2 -25q5 -34 25 -69.5t48 -71t60.5 -69t62.5 -62.5q34 -34 34 -87q0 -37 -17.5 -47t-44.5 -10q-16 0 -16 5q7 14 7 18q0 11 -20 11q-4 0 -15.5 -1.5t-23.5 -4.5t-21.5 -8.5t-9.5 -14.5q0 -6 1.5 -10.5t8 -7.5t19.5 -5t36 -2q107 0 164 30q43 22 83 62.5
t71 90t49.5 102.5t18.5 100q0 72 -15 137t-49 113.5t-87.5 77.5t-130.5 29q-111 0 -174 -67q-55 -58 -64 -159q-73 15 -100 39v171h100v12h-306v-12h58v-708h-58v-12h306v11h-100v487q20 -4 44.5 -7t53.5 -5zM522 718q7 1 12 1h12q43 0 74 -29.5t51 -80.5t30 -120.5
t10 -150.5q0 -300 -155 -324q60 36 60 110q0 87 -78 204q-90 132 -90 264q0 113 74 126z" />
    <glyph glyph-name="FL0AD2h" 
d="M384 12h-8v-12h214v12h-58v610h58v12h-214v-12h8v-388q-28 -6 -68 -27q-55 -29 -80 -73v488h8v12h-214v-12h58v-610h-58v-12h214v12h-8v104q81 72 128 72q20 0 20 -20v-156zM313 668q33 0 61 1t49 5t32.5 11.5t11.5 21.5q0 18 -12 42.5t-31 37.5q-3 0 -3 -3l3 -16
q0 -25 -14.5 -40.5t-34 -24t-38.5 -11.5t-27 -3q-9 0 -27.5 2.5t-38 10.5t-34 23t-14.5 40q0 4 1 9t3 10q-1 2 -4 2q-9 0 -17 -11t-13.5 -24.5t-8.5 -26.5t-3 -17q0 -14 16.5 -22t40 -11.5t49.5 -4.5t46 -1h7z" />
    <glyph glyph-name="FL0829h" horiz-adv-x="621" 
d="M384 12h-8v-12h214v12h-58v711h59v12h-214v-12h8v-489q-29 -6 -69 -27q-55 -29 -80 -73v589h9v12h-214v-12h58v-711h-59v-12h214v12h-8v104q81 72 128 72q20 0 20 -20v-156zM314 769q33 0 61 1t49 5t32.5 11.5t11.5 21.5q0 18 -12 42.5t-31 37.5q-3 0 -3 -3l3 -16
q0 -25 -14.5 -40.5t-34 -24t-38.5 -11.5t-27 -3q-9 0 -27.5 2.5t-38 10.5t-34 23t-14.5 40q0 4 1 9t3 10q-1 2 -4 2q-9 0 -17 -11t-13.5 -24.5t-8.5 -26.5t-3 -17q0 -14 16.5 -22t40 -11.5t49.5 -4.5t46 -1h7z" />
    </font>
</defs>
</svg>
